M48
; DRILL file {KiCad (6.0.4-0)} date Sunday, August 07, 2022 at 01:11:57 PM
; FORMAT={2:4/ absolute / inch / suppress leading zeros}
; #@! TF.CreationDate,2022-08-07T13:11:57-04:00
; #@! TF.GenerationSoftware,Kicad,Pcbnew,(6.0.4-0)
; #@! TF.FileFunction,Plated,1,2,PTH
FMAT,2
INCH,TZ
; #@! TA.AperFunction,Plated,PTH,ViaDrill
T1C0.0157
; #@! TA.AperFunction,Plated,PTH,ComponentDrill
T2C0.0197
; #@! TA.AperFunction,Plated,PTH,ComponentDrill
T3C0.0236
; #@! TA.AperFunction,Plated,PTH,ComponentDrill
T4C0.0295
; #@! TA.AperFunction,Plated,PTH,ComponentDrill
T5C0.0300
; #@! TA.AperFunction,Plated,PTH,ComponentDrill
T6C0.0315
; #@! TA.AperFunction,Plated,PTH,ComponentDrill
T7C0.0394
; #@! TA.AperFunction,Plated,PTH,ComponentDrill
T8C0.0512
; #@! TA.AperFunction,Plated,PTH,ComponentDrill
T9C0.0520
; #@! TA.AperFunction,Plated,PTH,ComponentDrill
T10C0.0709
; #@! TA.AperFunction,Plated,PTH,ComponentDrill
T11C0.0866
; #@! TA.AperFunction,Plated,PTH,ComponentDrill
T12C0.1200
; #@! TA.AperFunction,Plated,PTH,ComponentDrill
T13C0.1260
%
G90
G05
T1
X22849Y-51437
X22981Y-49171
X23386Y-38136
X25350Y-32654
X27621Y-28197
X28285Y-42321
X31421Y-34413
X33129Y-33249
X35989Y-33875
X35989Y-30078
X36435Y-36200
X37710Y-54458
X39548Y-24616
X39649Y-38466
X39870Y-56927
X40062Y-57793
X40374Y-56222
X40410Y-54979
X40902Y-59358
X41349Y-38834
X41913Y-38385
X41951Y-38831
X42788Y-38094
X42822Y-39900
X43072Y-33650
X43648Y-32277
X45859Y-39452
X46057Y-50584
X46209Y-57763
X46768Y-33760
X49494Y-44302
X51812Y-52940
X52406Y-45182
X53192Y-44417
X53517Y-32271
X54695Y-46984
X54838Y-40318
X54900Y-19014
X55560Y-43576
X55785Y-58604
X56813Y-35651
X57979Y-35785
X58605Y-26107
X59349Y-43010
X59995Y-41217
X60632Y-30068
X60781Y-46873
X61298Y-30401
X61370Y-52689
X62159Y-49819
X63614Y-50850
X64798Y-37608
X66489Y-27573
X69282Y-37002
X69537Y-39420
X69791Y-38758
X70915Y-34266
X71169Y-35785
X71540Y-35056
X72141Y-46943
X72585Y-59798
X72595Y-43350
X73190Y-47771
X75248Y-46299
X76895Y-57392
X79073Y-46299
X79621Y-35498
X80316Y-25206
X81349Y-21360
X81631Y-35211
X81640Y-48934
X81852Y-46735
X81903Y-40799
X82684Y-37081
X83530Y-36435
X84062Y-39766
X84313Y-51548
X84954Y-48340
X85141Y-39978
X87830Y-44925
X88367Y-46729
X89881Y-33028
X90058Y-46968
X92793Y-11214
X93324Y-45470
X97980Y-33301
X99060Y-33130
X99152Y-49530
X101948Y-57749
X102495Y-54639
X104244Y-57998
X104899Y-59350
X105900Y-42638
X107872Y-33534
T2
X92450Y-29650
T3
X47400Y-29100
X47400Y-29691
X58459Y-19850
X59050Y-19850
X69850Y-23250
X69850Y-23841
T4
X61950Y-19350
X61950Y-20350
X62450Y-19850
X64850Y-19350
X64850Y-20350
X65350Y-19850
T5
X60258Y-10450
X60258Y-12450
X61817Y-10450
X61817Y-12450
X63376Y-10450
X63376Y-12450
X64935Y-10450
X64935Y-12450
X66494Y-10450
X66494Y-12450
X68053Y-10450
X68053Y-12450
X69612Y-10450
X69612Y-12450
X71171Y-10450
X71171Y-12450
X72730Y-10450
X72730Y-12450
X74289Y-10450
X74289Y-12450
X75848Y-10450
X75848Y-12450
X77407Y-10450
X77407Y-12450
X78966Y-10450
X78966Y-12450
X80526Y-10450
X80526Y-12450
X82085Y-10450
X82085Y-12450
X83644Y-10450
X83644Y-12450
X85203Y-10450
X85203Y-12450
X86762Y-10450
X86762Y-12450
X88321Y-10450
X88321Y-12450
X89880Y-10450
X89880Y-12450
X91439Y-10450
X91439Y-12450
X92998Y-10450
X92998Y-12450
T6
X24300Y-18650
X24300Y-19650
X24300Y-20650
X24300Y-21650
X24300Y-22650
X24300Y-23650
X24300Y-24650
X24300Y-25650
X24300Y-26650
X24300Y-27650
X24300Y-28650
X24300Y-29650
X24300Y-30650
X24300Y-31650
X24300Y-32650
X24300Y-33650
X24300Y-34650
X24300Y-35650
X24300Y-36650
X24300Y-37650
X24931Y-49350
X24931Y-50350
X24931Y-51350
X24931Y-52350
X24931Y-53350
X24931Y-54350
X24931Y-55350
X24931Y-56350
X24931Y-57350
X24931Y-58350
X24931Y-59350
X24931Y-60350
X25800Y-17250
X26963Y-48050
X27769Y-17250
X28931Y-48050
X30300Y-18650
X30300Y-19650
X30300Y-20650
X30300Y-21650
X30300Y-22650
X30300Y-23650
X30300Y-24650
X30300Y-25650
X30300Y-26650
X30300Y-27650
X30300Y-28650
X30300Y-29650
X30300Y-30650
X30300Y-31650
X30300Y-32650
X30300Y-33650
X30300Y-34650
X30300Y-35650
X30300Y-36650
X30300Y-37650
X30931Y-49350
X30931Y-50350
X30931Y-51350
X30931Y-52350
X30931Y-53350
X30931Y-54350
X30931Y-55350
X30931Y-56350
X30931Y-57350
X30931Y-58350
X30931Y-59350
X30931Y-60350
X32600Y-18650
X32600Y-19650
X32600Y-20650
X32600Y-21650
X32600Y-22650
X32600Y-23650
X32600Y-24650
X32600Y-25650
X32600Y-26650
X32600Y-27650
X32600Y-28650
X32600Y-29650
X32600Y-30650
X32600Y-31650
X32600Y-32650
X32600Y-33650
X32600Y-34650
X32600Y-35650
X32600Y-36650
X32600Y-37650
X33381Y-49350
X33381Y-50350
X33381Y-51350
X33381Y-52350
X33381Y-53350
X33381Y-54350
X33381Y-55350
X33381Y-56350
X33381Y-57350
X33381Y-58350
X33381Y-59350
X33381Y-60350
X34700Y-17250
X35331Y-48050
X36669Y-17250
X37300Y-48050
X38600Y-18650
X38600Y-19650
X38600Y-20650
X38600Y-21650
X38600Y-22650
X38600Y-23650
X38600Y-24650
X38600Y-25650
X38600Y-26650
X38600Y-27650
X38600Y-28650
X38600Y-29650
X38600Y-30650
X38600Y-31650
X38600Y-32650
X38600Y-33650
X38600Y-34650
X38600Y-35650
X38600Y-36650
X38600Y-37650
X39381Y-49350
X39381Y-50350
X39381Y-51350
X39381Y-52350
X39381Y-53350
X39381Y-54350
X39381Y-55350
X39381Y-56350
X39381Y-57350
X39381Y-58350
X39381Y-59350
X39381Y-60350
X41900Y-18600
X41900Y-21600
X41900Y-25600
X41900Y-26600
X41900Y-27600
X41900Y-28600
X41900Y-31650
X41900Y-32650
X41900Y-33650
X41900Y-34650
X41900Y-35650
X41900Y-36650
X41900Y-37650
X42131Y-49350
X42131Y-50350
X42131Y-51350
X42131Y-52350
X42131Y-53350
X42131Y-54350
X42131Y-55350
X42131Y-56350
X42131Y-57350
X42150Y-60100
X42500Y-24400
X42663Y-48050
X43300Y-18600
X43300Y-21600
X44469Y-24400
X44631Y-48050
X44700Y-17600
X44700Y-21600
X44900Y-25600
X44900Y-26600
X44900Y-27600
X44900Y-28600
X44900Y-31650
X44900Y-32650
X44900Y-33650
X44900Y-34650
X44900Y-35650
X44900Y-36650
X44900Y-37650
X45131Y-49350
X45131Y-50350
X45131Y-51350
X45131Y-52350
X45131Y-53350
X45131Y-54350
X45131Y-55350
X45131Y-56350
X45131Y-57350
X45150Y-60100
X46100Y-18600
X46100Y-21600
X47400Y-23450
X47400Y-27450
X47400Y-33600
X47400Y-34600
X47500Y-17600
X47500Y-21600
X47881Y-49350
X47881Y-50350
X47881Y-51350
X47881Y-52350
X47881Y-53350
X47881Y-54350
X47881Y-55350
X47881Y-56350
X47881Y-57350
X47900Y-39900
X47900Y-40900
X47900Y-41900
X47900Y-42900
X47900Y-43900
X47900Y-44900
X47900Y-45900
X48413Y-48050
X48431Y-38600
X48900Y-18600
X48900Y-21600
X49100Y-23450
X49100Y-26450
X50300Y-17600
X50300Y-21600
X50381Y-48050
X50400Y-38600
X50500Y-23450
X50500Y-26450
X50881Y-49350
X50881Y-50350
X50881Y-51350
X50881Y-52350
X50881Y-53350
X50881Y-54350
X50881Y-55350
X50881Y-56350
X50881Y-57350
X50900Y-39900
X50900Y-40900
X50900Y-41900
X50900Y-42900
X50900Y-43900
X50900Y-44900
X50900Y-45900
X51900Y-23450
X51900Y-26450
X53631Y-49350
X53631Y-50350
X53631Y-51350
X53631Y-52350
X53631Y-53350
X53631Y-54350
X53631Y-55350
X53631Y-56350
X53631Y-57350
X54081Y-48100
X56050Y-48100
X56631Y-49350
X56631Y-50350
X56631Y-51350
X56631Y-52350
X56631Y-53350
X56631Y-54350
X56631Y-55350
X56631Y-56350
X56631Y-57350
X57350Y-22800
X57381Y-24000
X57900Y-36850
X57900Y-37850
X57900Y-38850
X57900Y-39850
X57900Y-40850
X57900Y-41850
X57900Y-42850
X57900Y-43850
X57900Y-44850
X57900Y-45850
X58250Y-18250
X58250Y-21450
X59050Y-25650
X59050Y-31650
X59250Y-18250
X59250Y-21450
X59319Y-22800
X59350Y-24000
X59631Y-49350
X59631Y-50350
X59631Y-51350
X59631Y-52350
X59631Y-53350
X59631Y-54350
X59631Y-55350
X59631Y-56350
X59631Y-57350
X59631Y-58350
X59631Y-59350
X59631Y-60350
X60050Y-25650
X60050Y-31650
X60900Y-36850
X60900Y-37850
X60900Y-38850
X60900Y-39850
X60900Y-40850
X60900Y-41850
X60900Y-42850
X60900Y-43850
X60900Y-44850
X60900Y-45850
X61050Y-25650
X61050Y-31650
X61150Y-23050
X61150Y-24050
X61431Y-48019
X62050Y-25650
X62050Y-31650
X62650Y-23050
X62650Y-24050
X63050Y-25650
X63050Y-31650
X63400Y-48019
X64050Y-23050
X64050Y-24050
X64050Y-25650
X64050Y-31650
X64150Y-36850
X64150Y-37850
X64150Y-38850
X64150Y-39850
X64150Y-40850
X64150Y-41850
X64150Y-42850
X64150Y-43850
X64150Y-44850
X64150Y-45850
X65050Y-25650
X65050Y-31650
X65450Y-23050
X65450Y-24050
X65631Y-49350
X65631Y-50350
X65631Y-51350
X65631Y-52350
X65631Y-53350
X65631Y-54350
X65631Y-55350
X65631Y-56350
X65631Y-57350
X65631Y-58350
X65631Y-59350
X65631Y-60350
X66050Y-25650
X66050Y-31650
X67050Y-25650
X67050Y-31650
X67150Y-36850
X67150Y-37850
X67150Y-38850
X67150Y-39850
X67150Y-40850
X67150Y-41850
X67150Y-42850
X67150Y-43850
X67150Y-44850
X67150Y-45850
X67350Y-19200
X67350Y-21169
X67350Y-22231
X67350Y-24200
X68050Y-25650
X68050Y-31650
X68531Y-49350
X68531Y-50350
X68531Y-51350
X68531Y-52350
X68531Y-53350
X68531Y-54350
X68531Y-55350
X68531Y-57850
X69050Y-25650
X69050Y-31650
X69050Y-33150
X69650Y-21450
X69850Y-18600
X69850Y-19584
X70050Y-25650
X70050Y-31650
X70437Y-21450
X70650Y-39850
X70650Y-40850
X70650Y-41850
X70650Y-42850
X70650Y-43850
X70650Y-44850
X70650Y-45850
X70981Y-38450
X71050Y-25650
X71050Y-31650
X71531Y-49350
X71531Y-50350
X71531Y-51350
X71531Y-52350
X71531Y-53350
X71531Y-54350
X71531Y-55350
X71531Y-57850
X72050Y-25650
X72050Y-31650
X72450Y-20250
X72450Y-21250
X72450Y-23000
X72450Y-24000
X72950Y-38450
X73050Y-25650
X73050Y-31650
X73050Y-33150
X73400Y-59350
X73400Y-61100
X73650Y-39850
X73650Y-40850
X73650Y-41850
X73650Y-42850
X73650Y-43850
X73650Y-44850
X73650Y-45850
X74050Y-25650
X74050Y-31650
X74250Y-23000
X74250Y-24000
X74431Y-49319
X74431Y-50319
X74431Y-51319
X74431Y-52319
X74431Y-53319
X74431Y-54319
X74431Y-55319
X74650Y-19650
X74650Y-21650
X75050Y-25650
X75050Y-31650
X75650Y-20650
X75850Y-23000
X75850Y-24000
X76050Y-25650
X76050Y-31650
X77050Y-25650
X77050Y-31650
X77150Y-38850
X77150Y-39850
X77150Y-40850
X77150Y-41850
X77150Y-42850
X77150Y-43850
X77150Y-44850
X77150Y-45850
X77256Y-19050
X77266Y-21650
X77400Y-59350
X77400Y-61100
X77431Y-49319
X77431Y-50319
X77431Y-51319
X77431Y-52319
X77431Y-53319
X77431Y-54319
X77431Y-55319
X77650Y-23900
X77666Y-37450
X78050Y-25650
X78050Y-31650
X78241Y-19050
X78250Y-21650
X79619Y-23900
X79634Y-37450
X79950Y-26150
X79950Y-30150
X79950Y-31650
X80050Y-19650
X80050Y-21619
X80150Y-38850
X80150Y-39850
X80150Y-40850
X80150Y-41850
X80150Y-42850
X80150Y-43850
X80150Y-44850
X80150Y-45850
X80581Y-51269
X80581Y-52269
X80581Y-53269
X80581Y-54269
X80581Y-55269
X80581Y-56269
X80581Y-57269
X80581Y-58269
X80581Y-59269
X80581Y-60269
X81231Y-49969
X81550Y-19050
X81550Y-20050
X81919Y-31650
X83100Y-23100
X83100Y-25069
X83200Y-49969
X83500Y-38850
X83500Y-39850
X83500Y-40850
X83500Y-41850
X83500Y-42850
X83500Y-43850
X83500Y-44850
X83500Y-45850
X83581Y-51269
X83581Y-52269
X83581Y-53269
X83581Y-54269
X83581Y-55269
X83581Y-56269
X83581Y-57269
X83581Y-58269
X83581Y-59269
X83581Y-60269
X84500Y-18250
X84500Y-20219
X85950Y-26681
X85950Y-28650
X86031Y-49269
X86031Y-50269
X86031Y-51269
X86031Y-52269
X86031Y-53269
X86031Y-54269
X86031Y-55269
X86031Y-56269
X86031Y-57269
X86031Y-58269
X86031Y-59269
X86031Y-60269
X86416Y-18866
X86450Y-32650
X86500Y-38850
X86500Y-39850
X86500Y-40850
X86500Y-41850
X86500Y-42850
X86500Y-43850
X86500Y-44850
X86500Y-45850
X86791Y-21266
X86791Y-23066
X87400Y-18866
X87450Y-24650
X87450Y-25650
X87450Y-26650
X87450Y-27650
X87450Y-28650
X87450Y-29650
X87450Y-30650
X87450Y-32650
X88031Y-47969
X89450Y-32650
X89791Y-18266
X89791Y-19666
X89900Y-38850
X89900Y-39850
X89900Y-40850
X89900Y-41850
X89900Y-42850
X89900Y-43850
X89900Y-44850
X89900Y-45850
X90000Y-47969
X90400Y-37450
X90450Y-24650
X90450Y-25650
X90450Y-26650
X90450Y-27650
X90450Y-28650
X90450Y-29650
X90450Y-30650
X90450Y-32650
X90791Y-18266
X90791Y-19666
X90791Y-21266
X90791Y-23066
X92031Y-49269
X92031Y-50269
X92031Y-51269
X92031Y-52269
X92031Y-53269
X92031Y-54269
X92031Y-55269
X92031Y-56269
X92031Y-57269
X92031Y-58269
X92031Y-59269
X92031Y-60269
X92369Y-37450
X92450Y-22150
X92450Y-23150
X92450Y-25721
X92450Y-27650
X92450Y-31650
X92450Y-32650
X92900Y-38850
X92900Y-39850
X92900Y-40850
X92900Y-41850
X92900Y-42850
X92900Y-43850
X92900Y-44850
X92900Y-45850
X94431Y-49269
X94431Y-50269
X94431Y-51269
X94431Y-52269
X94431Y-53269
X94431Y-54269
X94431Y-55269
X94431Y-56269
X94431Y-57269
X94431Y-58269
X94431Y-59269
X94431Y-60269
X96404Y-38850
X96404Y-39850
X96404Y-40850
X96404Y-41850
X96404Y-42850
X96404Y-43850
X96404Y-44850
X96404Y-45850
X96431Y-47969
X96900Y-37450
X98400Y-47969
X98869Y-37450
X99404Y-38850
X99404Y-39850
X99404Y-40850
X99404Y-41850
X99404Y-42850
X99404Y-43850
X99404Y-44850
X99404Y-45850
X100431Y-49269
X100431Y-50269
X100431Y-51269
X100431Y-52269
X100431Y-53269
X100431Y-54269
X100431Y-55269
X100431Y-56269
X100431Y-57269
X100431Y-58269
X100431Y-59269
X100431Y-60269
X103800Y-41350
X103800Y-42350
X103800Y-43350
X103800Y-44350
X103800Y-45350
X103800Y-46350
X103800Y-47350
X103800Y-48350
X103800Y-49350
X103800Y-50350
X103800Y-51350
X103800Y-52350
X103800Y-53350
X103800Y-54350
X103800Y-55350
X103800Y-56350
X103800Y-57350
X103800Y-58350
X103800Y-59350
X103800Y-60350
X103831Y-35100
X103831Y-38100
X103900Y-27631
X103900Y-29600
X103900Y-30631
X103900Y-32600
X105231Y-35100
X105231Y-38100
X105500Y-28031
X105500Y-32031
X105631Y-40050
X106631Y-35100
X106631Y-38100
X107600Y-40050
X107831Y-35100
X107831Y-38100
X109800Y-41350
X109800Y-42350
X109800Y-43350
X109800Y-44350
X109800Y-45350
X109800Y-46350
X109800Y-47350
X109800Y-48350
X109800Y-49350
X109800Y-50350
X109800Y-51350
X109800Y-52350
X109800Y-53350
X109800Y-54350
X109800Y-55350
X109800Y-56350
X109800Y-57350
X109800Y-58350
X109800Y-59350
X109800Y-60350
X109916Y-36400
X109931Y-38100
X111884Y-36400
X111900Y-38100
X111900Y-54350
X111900Y-57350
X113650Y-54450
X113650Y-56100
X114650Y-54450
X114650Y-56100
T7
X20450Y-18650
X20450Y-19650
X20450Y-20650
X20450Y-21650
X20450Y-22650
X20450Y-23650
X20450Y-24650
X20450Y-25650
X20450Y-26650
X20450Y-27650
X20450Y-28650
X20450Y-29650
X20450Y-30650
X20450Y-31650
X20450Y-32650
X20450Y-33650
X20450Y-34650
X20450Y-35650
X20450Y-36650
X20450Y-37650
X20900Y-43600
X20900Y-44600
X20900Y-45600
X20900Y-46600
X20900Y-47600
X20900Y-48600
X20900Y-49600
X20900Y-50600
X20900Y-51600
X20900Y-52600
X20900Y-53600
X20900Y-54600
X21900Y-43600
X21900Y-44600
X21900Y-45600
X21900Y-46600
X21900Y-47600
X21900Y-48600
X21900Y-49600
X21900Y-50600
X21900Y-51600
X21900Y-52600
X21900Y-53600
X21900Y-54600
X29600Y-40850
X30600Y-40850
X31600Y-40850
X32600Y-40850
X33600Y-40850
X34600Y-40850
X52620Y-17600
X52620Y-18600
X52620Y-19600
X83100Y-19050
X83100Y-20050
X100400Y-20850
X100400Y-22819
X114091Y-41340
X114091Y-42431
X114091Y-43521
X114091Y-44612
X114091Y-45702
X115209Y-41885
X115209Y-42976
X115209Y-44067
X115209Y-45157
X116650Y-54350
X116650Y-55350
X116650Y-56350
T8
X26072Y-14116
X27056Y-15100
X28041Y-10179
X29025Y-14116
X29025Y-16084
X30009Y-10179
X30994Y-15100
X31978Y-14116
X38046Y-14116
X39030Y-15100
X40014Y-10179
X40998Y-14116
X41983Y-10179
X42967Y-15100
X43951Y-14116
T9
X106400Y-24100
X114998Y-24100
T10
X109250Y-29905
X109250Y-31795
X110750Y-29905
X110750Y-31795
X112250Y-29905
X112250Y-31795
X117250Y-29850
X117250Y-31850
T11
X55850Y-17450
X55850Y-34250
X93850Y-17450
X93850Y-34250
T12
X56488Y-11450
X96756Y-11425
T13
X20650Y-10850
X20650Y-60600
X69900Y-60600
X114338Y-12412
X114650Y-38600
X114650Y-48443
X116250Y-60600
T7
G00X113038Y-18119
M15
G01X113038Y-17331
M16
G05
G00X114613Y-15875
M15
G01X113825Y-15875
M16
G05
G00X115400Y-18119
M15
G01X115400Y-17331
M16
G05
T0
M30
