%TF.GenerationSoftware,KiCad,Pcbnew,(6.0.4-0)*%
%TF.CreationDate,2022-08-07T13:12:03-04:00*%
%TF.ProjectId,VIC20Reloaded-1.1-002,56494332-3052-4656-9c6f-616465642d31,1.1-002E*%
%TF.SameCoordinates,Original*%
%TF.FileFunction,AssemblyDrawing,Top*%
%FSLAX46Y46*%
G04 Gerber Fmt 4.6, Leading zero omitted, Abs format (unit mm)*
G04 Created by KiCad (PCBNEW (6.0.4-0)) date 2022-08-07 13:12:03*
%MOMM*%
%LPD*%
G01*
G04 APERTURE LIST*
%ADD10C,0.150000*%
%ADD11C,0.129000*%
%ADD12C,0.254000*%
%ADD13C,0.100000*%
%ADD14C,0.127000*%
%ADD15C,0.200000*%
G04 APERTURE END LIST*
D10*
X177776142Y-48660666D02*
X177823761Y-48708285D01*
X177871380Y-48851142D01*
X177871380Y-48946380D01*
X177823761Y-49089238D01*
X177728523Y-49184476D01*
X177633285Y-49232095D01*
X177442809Y-49279714D01*
X177299952Y-49279714D01*
X177109476Y-49232095D01*
X177014238Y-49184476D01*
X176919000Y-49089238D01*
X176871380Y-48946380D01*
X176871380Y-48851142D01*
X176919000Y-48708285D01*
X176966619Y-48660666D01*
X177204714Y-47803523D02*
X177871380Y-47803523D01*
X176823761Y-48041619D02*
X177538047Y-48279714D01*
X177538047Y-47660666D01*
X220579333Y-48277142D02*
X220531714Y-48324761D01*
X220388857Y-48372380D01*
X220293619Y-48372380D01*
X220150761Y-48324761D01*
X220055523Y-48229523D01*
X220007904Y-48134285D01*
X219960285Y-47943809D01*
X219960285Y-47800952D01*
X220007904Y-47610476D01*
X220055523Y-47515238D01*
X220150761Y-47420000D01*
X220293619Y-47372380D01*
X220388857Y-47372380D01*
X220531714Y-47420000D01*
X220579333Y-47467619D01*
X221484095Y-47372380D02*
X221007904Y-47372380D01*
X220960285Y-47848571D01*
X221007904Y-47800952D01*
X221103142Y-47753333D01*
X221341238Y-47753333D01*
X221436476Y-47800952D01*
X221484095Y-47848571D01*
X221531714Y-47943809D01*
X221531714Y-48181904D01*
X221484095Y-48277142D01*
X221436476Y-48324761D01*
X221341238Y-48372380D01*
X221103142Y-48372380D01*
X221007904Y-48324761D01*
X220960285Y-48277142D01*
X197314333Y-48744142D02*
X197266714Y-48791761D01*
X197123857Y-48839380D01*
X197028619Y-48839380D01*
X196885761Y-48791761D01*
X196790523Y-48696523D01*
X196742904Y-48601285D01*
X196695285Y-48410809D01*
X196695285Y-48267952D01*
X196742904Y-48077476D01*
X196790523Y-47982238D01*
X196885761Y-47887000D01*
X197028619Y-47839380D01*
X197123857Y-47839380D01*
X197266714Y-47887000D01*
X197314333Y-47934619D01*
X198171476Y-47839380D02*
X197981000Y-47839380D01*
X197885761Y-47887000D01*
X197838142Y-47934619D01*
X197742904Y-48077476D01*
X197695285Y-48267952D01*
X197695285Y-48648904D01*
X197742904Y-48744142D01*
X197790523Y-48791761D01*
X197885761Y-48839380D01*
X198076238Y-48839380D01*
X198171476Y-48791761D01*
X198219095Y-48744142D01*
X198266714Y-48648904D01*
X198266714Y-48410809D01*
X198219095Y-48315571D01*
X198171476Y-48267952D01*
X198076238Y-48220333D01*
X197885761Y-48220333D01*
X197790523Y-48267952D01*
X197742904Y-48315571D01*
X197695285Y-48410809D01*
X172721380Y-60610857D02*
X172721380Y-60515619D01*
X172769000Y-60420380D01*
X172816619Y-60372761D01*
X172911857Y-60325142D01*
X173102333Y-60277523D01*
X173340428Y-60277523D01*
X173530904Y-60325142D01*
X173626142Y-60372761D01*
X173673761Y-60420380D01*
X173721380Y-60515619D01*
X173721380Y-60610857D01*
X173673761Y-60706095D01*
X173626142Y-60753714D01*
X173530904Y-60801333D01*
X173340428Y-60848952D01*
X173102333Y-60848952D01*
X172911857Y-60801333D01*
X172816619Y-60753714D01*
X172769000Y-60706095D01*
X172721380Y-60610857D01*
X173626142Y-59848952D02*
X173673761Y-59801333D01*
X173721380Y-59848952D01*
X173673761Y-59896571D01*
X173626142Y-59848952D01*
X173721380Y-59848952D01*
X173721380Y-58848952D02*
X173721380Y-59420380D01*
X173721380Y-59134666D02*
X172721380Y-59134666D01*
X172864238Y-59229904D01*
X172959476Y-59325142D01*
X173007095Y-59420380D01*
X173054714Y-57991809D02*
X173721380Y-57991809D01*
X173054714Y-58420380D02*
X173578523Y-58420380D01*
X173673761Y-58372761D01*
X173721380Y-58277523D01*
X173721380Y-58134666D01*
X173673761Y-58039428D01*
X173626142Y-57991809D01*
X173197571Y-57182285D02*
X173197571Y-57515619D01*
X173721380Y-57515619D02*
X172721380Y-57515619D01*
X172721380Y-57039428D01*
D11*
X171376142Y-59520857D02*
X171417095Y-59561809D01*
X171458047Y-59684666D01*
X171458047Y-59766571D01*
X171417095Y-59889428D01*
X171335190Y-59971333D01*
X171253285Y-60012285D01*
X171089476Y-60053238D01*
X170966619Y-60053238D01*
X170802809Y-60012285D01*
X170720904Y-59971333D01*
X170639000Y-59889428D01*
X170598047Y-59766571D01*
X170598047Y-59684666D01*
X170639000Y-59561809D01*
X170679952Y-59520857D01*
X171458047Y-58701809D02*
X171458047Y-59193238D01*
X171458047Y-58947523D02*
X170598047Y-58947523D01*
X170720904Y-59029428D01*
X170802809Y-59111333D01*
X170843761Y-59193238D01*
X170598047Y-57964666D02*
X170598047Y-58128476D01*
X170639000Y-58210380D01*
X170679952Y-58251333D01*
X170802809Y-58333238D01*
X170966619Y-58374190D01*
X171294238Y-58374190D01*
X171376142Y-58333238D01*
X171417095Y-58292285D01*
X171458047Y-58210380D01*
X171458047Y-58046571D01*
X171417095Y-57964666D01*
X171376142Y-57923714D01*
X171294238Y-57882761D01*
X171089476Y-57882761D01*
X171007571Y-57923714D01*
X170966619Y-57964666D01*
X170925666Y-58046571D01*
X170925666Y-58210380D01*
X170966619Y-58292285D01*
X171007571Y-58333238D01*
X171089476Y-58374190D01*
D10*
X177268142Y-54840142D02*
X177220523Y-54887761D01*
X177077666Y-54935380D01*
X176982428Y-54935380D01*
X176839571Y-54887761D01*
X176744333Y-54792523D01*
X176696714Y-54697285D01*
X176649095Y-54506809D01*
X176649095Y-54363952D01*
X176696714Y-54173476D01*
X176744333Y-54078238D01*
X176839571Y-53983000D01*
X176982428Y-53935380D01*
X177077666Y-53935380D01*
X177220523Y-53983000D01*
X177268142Y-54030619D01*
X178220523Y-54935380D02*
X177649095Y-54935380D01*
X177934809Y-54935380D02*
X177934809Y-53935380D01*
X177839571Y-54078238D01*
X177744333Y-54173476D01*
X177649095Y-54221095D01*
X178553857Y-53935380D02*
X179220523Y-53935380D01*
X178791952Y-54935380D01*
X109221142Y-119299380D02*
X109316380Y-119299380D01*
X109411619Y-119347000D01*
X109459238Y-119394619D01*
X109506857Y-119489857D01*
X109554476Y-119680333D01*
X109554476Y-119918428D01*
X109506857Y-120108904D01*
X109459238Y-120204142D01*
X109411619Y-120251761D01*
X109316380Y-120299380D01*
X109221142Y-120299380D01*
X109125904Y-120251761D01*
X109078285Y-120204142D01*
X109030666Y-120108904D01*
X108983047Y-119918428D01*
X108983047Y-119680333D01*
X109030666Y-119489857D01*
X109078285Y-119394619D01*
X109125904Y-119347000D01*
X109221142Y-119299380D01*
X109983047Y-120204142D02*
X110030666Y-120251761D01*
X109983047Y-120299380D01*
X109935428Y-120251761D01*
X109983047Y-120204142D01*
X109983047Y-120299380D01*
X110983047Y-120299380D02*
X110411619Y-120299380D01*
X110697333Y-120299380D02*
X110697333Y-119299380D01*
X110602095Y-119442238D01*
X110506857Y-119537476D01*
X110411619Y-119585095D01*
X111840190Y-119632714D02*
X111840190Y-120299380D01*
X111411619Y-119632714D02*
X111411619Y-120156523D01*
X111459238Y-120251761D01*
X111554476Y-120299380D01*
X111697333Y-120299380D01*
X111792571Y-120251761D01*
X111840190Y-120204142D01*
X112649714Y-119775571D02*
X112316380Y-119775571D01*
X112316380Y-120299380D02*
X112316380Y-119299380D01*
X112792571Y-119299380D01*
D11*
X110311142Y-122354142D02*
X110270190Y-122395095D01*
X110147333Y-122436047D01*
X110065428Y-122436047D01*
X109942571Y-122395095D01*
X109860666Y-122313190D01*
X109819714Y-122231285D01*
X109778761Y-122067476D01*
X109778761Y-121944619D01*
X109819714Y-121780809D01*
X109860666Y-121698904D01*
X109942571Y-121617000D01*
X110065428Y-121576047D01*
X110147333Y-121576047D01*
X110270190Y-121617000D01*
X110311142Y-121657952D01*
X111130190Y-122436047D02*
X110638761Y-122436047D01*
X110884476Y-122436047D02*
X110884476Y-121576047D01*
X110802571Y-121698904D01*
X110720666Y-121780809D01*
X110638761Y-121821761D01*
X111621619Y-121944619D02*
X111539714Y-121903666D01*
X111498761Y-121862714D01*
X111457809Y-121780809D01*
X111457809Y-121739857D01*
X111498761Y-121657952D01*
X111539714Y-121617000D01*
X111621619Y-121576047D01*
X111785428Y-121576047D01*
X111867333Y-121617000D01*
X111908285Y-121657952D01*
X111949238Y-121739857D01*
X111949238Y-121780809D01*
X111908285Y-121862714D01*
X111867333Y-121903666D01*
X111785428Y-121944619D01*
X111621619Y-121944619D01*
X111539714Y-121985571D01*
X111498761Y-122026523D01*
X111457809Y-122108428D01*
X111457809Y-122272238D01*
X111498761Y-122354142D01*
X111539714Y-122395095D01*
X111621619Y-122436047D01*
X111785428Y-122436047D01*
X111867333Y-122395095D01*
X111908285Y-122354142D01*
X111949238Y-122272238D01*
X111949238Y-122108428D01*
X111908285Y-122026523D01*
X111867333Y-121985571D01*
X111785428Y-121944619D01*
X281133142Y-92763142D02*
X281092190Y-92804095D01*
X280969333Y-92845047D01*
X280887428Y-92845047D01*
X280764571Y-92804095D01*
X280682666Y-92722190D01*
X280641714Y-92640285D01*
X280600761Y-92476476D01*
X280600761Y-92353619D01*
X280641714Y-92189809D01*
X280682666Y-92107904D01*
X280764571Y-92026000D01*
X280887428Y-91985047D01*
X280969333Y-91985047D01*
X281092190Y-92026000D01*
X281133142Y-92066952D01*
X281460761Y-92066952D02*
X281501714Y-92026000D01*
X281583619Y-91985047D01*
X281788380Y-91985047D01*
X281870285Y-92026000D01*
X281911238Y-92066952D01*
X281952190Y-92148857D01*
X281952190Y-92230761D01*
X281911238Y-92353619D01*
X281419809Y-92845047D01*
X281952190Y-92845047D01*
X282484571Y-91985047D02*
X282566476Y-91985047D01*
X282648380Y-92026000D01*
X282689333Y-92066952D01*
X282730285Y-92148857D01*
X282771238Y-92312666D01*
X282771238Y-92517428D01*
X282730285Y-92681238D01*
X282689333Y-92763142D01*
X282648380Y-92804095D01*
X282566476Y-92845047D01*
X282484571Y-92845047D01*
X282402666Y-92804095D01*
X282361714Y-92763142D01*
X282320761Y-92681238D01*
X282279809Y-92517428D01*
X282279809Y-92312666D01*
X282320761Y-92148857D01*
X282361714Y-92066952D01*
X282402666Y-92026000D01*
X282484571Y-91985047D01*
X281173142Y-97081142D02*
X281132190Y-97122095D01*
X281009333Y-97163047D01*
X280927428Y-97163047D01*
X280804571Y-97122095D01*
X280722666Y-97040190D01*
X280681714Y-96958285D01*
X280640761Y-96794476D01*
X280640761Y-96671619D01*
X280681714Y-96507809D01*
X280722666Y-96425904D01*
X280804571Y-96344000D01*
X280927428Y-96303047D01*
X281009333Y-96303047D01*
X281132190Y-96344000D01*
X281173142Y-96384952D01*
X281500761Y-96384952D02*
X281541714Y-96344000D01*
X281623619Y-96303047D01*
X281828380Y-96303047D01*
X281910285Y-96344000D01*
X281951238Y-96384952D01*
X281992190Y-96466857D01*
X281992190Y-96548761D01*
X281951238Y-96671619D01*
X281459809Y-97163047D01*
X281992190Y-97163047D01*
X282811238Y-97163047D02*
X282319809Y-97163047D01*
X282565523Y-97163047D02*
X282565523Y-96303047D01*
X282483619Y-96425904D01*
X282401714Y-96507809D01*
X282319809Y-96548761D01*
D10*
X138224142Y-119426380D02*
X138319380Y-119426380D01*
X138414619Y-119474000D01*
X138462238Y-119521619D01*
X138509857Y-119616857D01*
X138557476Y-119807333D01*
X138557476Y-120045428D01*
X138509857Y-120235904D01*
X138462238Y-120331142D01*
X138414619Y-120378761D01*
X138319380Y-120426380D01*
X138224142Y-120426380D01*
X138128904Y-120378761D01*
X138081285Y-120331142D01*
X138033666Y-120235904D01*
X137986047Y-120045428D01*
X137986047Y-119807333D01*
X138033666Y-119616857D01*
X138081285Y-119521619D01*
X138128904Y-119474000D01*
X138224142Y-119426380D01*
X138986047Y-120331142D02*
X139033666Y-120378761D01*
X138986047Y-120426380D01*
X138938428Y-120378761D01*
X138986047Y-120331142D01*
X138986047Y-120426380D01*
X139986047Y-120426380D02*
X139414619Y-120426380D01*
X139700333Y-120426380D02*
X139700333Y-119426380D01*
X139605095Y-119569238D01*
X139509857Y-119664476D01*
X139414619Y-119712095D01*
X140843190Y-119759714D02*
X140843190Y-120426380D01*
X140414619Y-119759714D02*
X140414619Y-120283523D01*
X140462238Y-120378761D01*
X140557476Y-120426380D01*
X140700333Y-120426380D01*
X140795571Y-120378761D01*
X140843190Y-120331142D01*
X141652714Y-119902571D02*
X141319380Y-119902571D01*
X141319380Y-120426380D02*
X141319380Y-119426380D01*
X141795571Y-119426380D01*
D11*
X139314142Y-122481142D02*
X139273190Y-122522095D01*
X139150333Y-122563047D01*
X139068428Y-122563047D01*
X138945571Y-122522095D01*
X138863666Y-122440190D01*
X138822714Y-122358285D01*
X138781761Y-122194476D01*
X138781761Y-122071619D01*
X138822714Y-121907809D01*
X138863666Y-121825904D01*
X138945571Y-121744000D01*
X139068428Y-121703047D01*
X139150333Y-121703047D01*
X139273190Y-121744000D01*
X139314142Y-121784952D01*
X139641761Y-121784952D02*
X139682714Y-121744000D01*
X139764619Y-121703047D01*
X139969380Y-121703047D01*
X140051285Y-121744000D01*
X140092238Y-121784952D01*
X140133190Y-121866857D01*
X140133190Y-121948761D01*
X140092238Y-122071619D01*
X139600809Y-122563047D01*
X140133190Y-122563047D01*
X140460809Y-121784952D02*
X140501761Y-121744000D01*
X140583666Y-121703047D01*
X140788428Y-121703047D01*
X140870333Y-121744000D01*
X140911285Y-121784952D01*
X140952238Y-121866857D01*
X140952238Y-121948761D01*
X140911285Y-122071619D01*
X140419857Y-122563047D01*
X140952238Y-122563047D01*
D10*
X123826142Y-119299380D02*
X123921380Y-119299380D01*
X124016619Y-119347000D01*
X124064238Y-119394619D01*
X124111857Y-119489857D01*
X124159476Y-119680333D01*
X124159476Y-119918428D01*
X124111857Y-120108904D01*
X124064238Y-120204142D01*
X124016619Y-120251761D01*
X123921380Y-120299380D01*
X123826142Y-120299380D01*
X123730904Y-120251761D01*
X123683285Y-120204142D01*
X123635666Y-120108904D01*
X123588047Y-119918428D01*
X123588047Y-119680333D01*
X123635666Y-119489857D01*
X123683285Y-119394619D01*
X123730904Y-119347000D01*
X123826142Y-119299380D01*
X124588047Y-120204142D02*
X124635666Y-120251761D01*
X124588047Y-120299380D01*
X124540428Y-120251761D01*
X124588047Y-120204142D01*
X124588047Y-120299380D01*
X125588047Y-120299380D02*
X125016619Y-120299380D01*
X125302333Y-120299380D02*
X125302333Y-119299380D01*
X125207095Y-119442238D01*
X125111857Y-119537476D01*
X125016619Y-119585095D01*
X126445190Y-119632714D02*
X126445190Y-120299380D01*
X126016619Y-119632714D02*
X126016619Y-120156523D01*
X126064238Y-120251761D01*
X126159476Y-120299380D01*
X126302333Y-120299380D01*
X126397571Y-120251761D01*
X126445190Y-120204142D01*
X127254714Y-119775571D02*
X126921380Y-119775571D01*
X126921380Y-120299380D02*
X126921380Y-119299380D01*
X127397571Y-119299380D01*
D11*
X124916142Y-122354142D02*
X124875190Y-122395095D01*
X124752333Y-122436047D01*
X124670428Y-122436047D01*
X124547571Y-122395095D01*
X124465666Y-122313190D01*
X124424714Y-122231285D01*
X124383761Y-122067476D01*
X124383761Y-121944619D01*
X124424714Y-121780809D01*
X124465666Y-121698904D01*
X124547571Y-121617000D01*
X124670428Y-121576047D01*
X124752333Y-121576047D01*
X124875190Y-121617000D01*
X124916142Y-121657952D01*
X125243761Y-121657952D02*
X125284714Y-121617000D01*
X125366619Y-121576047D01*
X125571380Y-121576047D01*
X125653285Y-121617000D01*
X125694238Y-121657952D01*
X125735190Y-121739857D01*
X125735190Y-121821761D01*
X125694238Y-121944619D01*
X125202809Y-122436047D01*
X125735190Y-122436047D01*
X126021857Y-121576047D02*
X126554238Y-121576047D01*
X126267571Y-121903666D01*
X126390428Y-121903666D01*
X126472333Y-121944619D01*
X126513285Y-121985571D01*
X126554238Y-122067476D01*
X126554238Y-122272238D01*
X126513285Y-122354142D01*
X126472333Y-122395095D01*
X126390428Y-122436047D01*
X126144714Y-122436047D01*
X126062809Y-122395095D01*
X126021857Y-122354142D01*
D10*
X88995142Y-45467380D02*
X89090380Y-45467380D01*
X89185619Y-45515000D01*
X89233238Y-45562619D01*
X89280857Y-45657857D01*
X89328476Y-45848333D01*
X89328476Y-46086428D01*
X89280857Y-46276904D01*
X89233238Y-46372142D01*
X89185619Y-46419761D01*
X89090380Y-46467380D01*
X88995142Y-46467380D01*
X88899904Y-46419761D01*
X88852285Y-46372142D01*
X88804666Y-46276904D01*
X88757047Y-46086428D01*
X88757047Y-45848333D01*
X88804666Y-45657857D01*
X88852285Y-45562619D01*
X88899904Y-45515000D01*
X88995142Y-45467380D01*
X89757047Y-46372142D02*
X89804666Y-46419761D01*
X89757047Y-46467380D01*
X89709428Y-46419761D01*
X89757047Y-46372142D01*
X89757047Y-46467380D01*
X90757047Y-46467380D02*
X90185619Y-46467380D01*
X90471333Y-46467380D02*
X90471333Y-45467380D01*
X90376095Y-45610238D01*
X90280857Y-45705476D01*
X90185619Y-45753095D01*
X91614190Y-45800714D02*
X91614190Y-46467380D01*
X91185619Y-45800714D02*
X91185619Y-46324523D01*
X91233238Y-46419761D01*
X91328476Y-46467380D01*
X91471333Y-46467380D01*
X91566571Y-46419761D01*
X91614190Y-46372142D01*
X92423714Y-45943571D02*
X92090380Y-45943571D01*
X92090380Y-46467380D02*
X92090380Y-45467380D01*
X92566571Y-45467380D01*
X66389142Y-41067380D02*
X66484380Y-41067380D01*
X66579619Y-41115000D01*
X66627238Y-41162619D01*
X66674857Y-41257857D01*
X66722476Y-41448333D01*
X66722476Y-41686428D01*
X66674857Y-41876904D01*
X66627238Y-41972142D01*
X66579619Y-42019761D01*
X66484380Y-42067380D01*
X66389142Y-42067380D01*
X66293904Y-42019761D01*
X66246285Y-41972142D01*
X66198666Y-41876904D01*
X66151047Y-41686428D01*
X66151047Y-41448333D01*
X66198666Y-41257857D01*
X66246285Y-41162619D01*
X66293904Y-41115000D01*
X66389142Y-41067380D01*
X67151047Y-41972142D02*
X67198666Y-42019761D01*
X67151047Y-42067380D01*
X67103428Y-42019761D01*
X67151047Y-41972142D01*
X67151047Y-42067380D01*
X68151047Y-42067380D02*
X67579619Y-42067380D01*
X67865333Y-42067380D02*
X67865333Y-41067380D01*
X67770095Y-41210238D01*
X67674857Y-41305476D01*
X67579619Y-41353095D01*
X69008190Y-41400714D02*
X69008190Y-42067380D01*
X68579619Y-41400714D02*
X68579619Y-41924523D01*
X68627238Y-42019761D01*
X68722476Y-42067380D01*
X68865333Y-42067380D01*
X68960571Y-42019761D01*
X69008190Y-41972142D01*
X69817714Y-41543571D02*
X69484380Y-41543571D01*
X69484380Y-42067380D02*
X69484380Y-41067380D01*
X69960571Y-41067380D01*
X223696666Y-61286571D02*
X223363333Y-61286571D01*
X223363333Y-61810380D02*
X223363333Y-60810380D01*
X223839523Y-60810380D01*
X224220476Y-61810380D02*
X224220476Y-60810380D01*
X225172857Y-61810380D02*
X224696666Y-61810380D01*
X224696666Y-60810380D01*
X225363333Y-60810380D02*
X225934761Y-60810380D01*
X225649047Y-61810380D02*
X225649047Y-60810380D01*
X226268095Y-61286571D02*
X226601428Y-61286571D01*
X226744285Y-61810380D02*
X226268095Y-61810380D01*
X226268095Y-60810380D01*
X226744285Y-60810380D01*
X227744285Y-61810380D02*
X227410952Y-61334190D01*
X227172857Y-61810380D02*
X227172857Y-60810380D01*
X227553809Y-60810380D01*
X227649047Y-60858000D01*
X227696666Y-60905619D01*
X227744285Y-61000857D01*
X227744285Y-61143714D01*
X227696666Y-61238952D01*
X227649047Y-61286571D01*
X227553809Y-61334190D01*
X227172857Y-61334190D01*
X224696666Y-58516571D02*
X224363333Y-58516571D01*
X224363333Y-59040380D02*
X224363333Y-58040380D01*
X224839523Y-58040380D01*
X225553809Y-58516571D02*
X225696666Y-58564190D01*
X225744285Y-58611809D01*
X225791904Y-58707047D01*
X225791904Y-58849904D01*
X225744285Y-58945142D01*
X225696666Y-58992761D01*
X225601428Y-59040380D01*
X225220476Y-59040380D01*
X225220476Y-58040380D01*
X225553809Y-58040380D01*
X225649047Y-58088000D01*
X225696666Y-58135619D01*
X225744285Y-58230857D01*
X225744285Y-58326095D01*
X225696666Y-58421333D01*
X225649047Y-58468952D01*
X225553809Y-58516571D01*
X225220476Y-58516571D01*
X226125238Y-58040380D02*
X226744285Y-58040380D01*
X226410952Y-58421333D01*
X226553809Y-58421333D01*
X226649047Y-58468952D01*
X226696666Y-58516571D01*
X226744285Y-58611809D01*
X226744285Y-58849904D01*
X226696666Y-58945142D01*
X226649047Y-58992761D01*
X226553809Y-59040380D01*
X226268095Y-59040380D01*
X226172857Y-58992761D01*
X226125238Y-58945142D01*
X123094571Y-66476333D02*
X123094571Y-66809666D01*
X123618380Y-66809666D02*
X122618380Y-66809666D01*
X122618380Y-66333476D01*
X123618380Y-65952523D02*
X122618380Y-65952523D01*
X123618380Y-65000142D02*
X123618380Y-65476333D01*
X122618380Y-65476333D01*
X122618380Y-64809666D02*
X122618380Y-64238238D01*
X123618380Y-64523952D02*
X122618380Y-64523952D01*
X123094571Y-63904904D02*
X123094571Y-63571571D01*
X123618380Y-63428714D02*
X123618380Y-63904904D01*
X122618380Y-63904904D01*
X122618380Y-63428714D01*
X123618380Y-62428714D02*
X123142190Y-62762047D01*
X123618380Y-63000142D02*
X122618380Y-63000142D01*
X122618380Y-62619190D01*
X122666000Y-62523952D01*
X122713619Y-62476333D01*
X122808857Y-62428714D01*
X122951714Y-62428714D01*
X123046952Y-62476333D01*
X123094571Y-62523952D01*
X123142190Y-62619190D01*
X123142190Y-63000142D01*
X120324571Y-65476333D02*
X120324571Y-65809666D01*
X120848380Y-65809666D02*
X119848380Y-65809666D01*
X119848380Y-65333476D01*
X120324571Y-64619190D02*
X120372190Y-64476333D01*
X120419809Y-64428714D01*
X120515047Y-64381095D01*
X120657904Y-64381095D01*
X120753142Y-64428714D01*
X120800761Y-64476333D01*
X120848380Y-64571571D01*
X120848380Y-64952523D01*
X119848380Y-64952523D01*
X119848380Y-64619190D01*
X119896000Y-64523952D01*
X119943619Y-64476333D01*
X120038857Y-64428714D01*
X120134095Y-64428714D01*
X120229333Y-64476333D01*
X120276952Y-64523952D01*
X120324571Y-64619190D01*
X120324571Y-64952523D01*
X119848380Y-64047761D02*
X119848380Y-63381095D01*
X120848380Y-63809666D01*
X178633666Y-81359571D02*
X178300333Y-81359571D01*
X178300333Y-81883380D02*
X178300333Y-80883380D01*
X178776523Y-80883380D01*
X179157476Y-81883380D02*
X179157476Y-80883380D01*
X180109857Y-81883380D02*
X179633666Y-81883380D01*
X179633666Y-80883380D01*
X180300333Y-80883380D02*
X180871761Y-80883380D01*
X180586047Y-81883380D02*
X180586047Y-80883380D01*
X181205095Y-81359571D02*
X181538428Y-81359571D01*
X181681285Y-81883380D02*
X181205095Y-81883380D01*
X181205095Y-80883380D01*
X181681285Y-80883380D01*
X182681285Y-81883380D02*
X182347952Y-81407190D01*
X182109857Y-81883380D02*
X182109857Y-80883380D01*
X182490809Y-80883380D01*
X182586047Y-80931000D01*
X182633666Y-80978619D01*
X182681285Y-81073857D01*
X182681285Y-81216714D01*
X182633666Y-81311952D01*
X182586047Y-81359571D01*
X182490809Y-81407190D01*
X182109857Y-81407190D01*
X179157476Y-84129571D02*
X178824142Y-84129571D01*
X178824142Y-84653380D02*
X178824142Y-83653380D01*
X179300333Y-83653380D01*
X180014619Y-84129571D02*
X180157476Y-84177190D01*
X180205095Y-84224809D01*
X180252714Y-84320047D01*
X180252714Y-84462904D01*
X180205095Y-84558142D01*
X180157476Y-84605761D01*
X180062238Y-84653380D01*
X179681285Y-84653380D01*
X179681285Y-83653380D01*
X180014619Y-83653380D01*
X180109857Y-83701000D01*
X180157476Y-83748619D01*
X180205095Y-83843857D01*
X180205095Y-83939095D01*
X180157476Y-84034333D01*
X180109857Y-84081952D01*
X180014619Y-84129571D01*
X179681285Y-84129571D01*
X181205095Y-84653380D02*
X180633666Y-84653380D01*
X180919380Y-84653380D02*
X180919380Y-83653380D01*
X180824142Y-83796238D01*
X180728904Y-83891476D01*
X180633666Y-83939095D01*
X181824142Y-83653380D02*
X181919380Y-83653380D01*
X182014619Y-83701000D01*
X182062238Y-83748619D01*
X182109857Y-83843857D01*
X182157476Y-84034333D01*
X182157476Y-84272428D01*
X182109857Y-84462904D01*
X182062238Y-84558142D01*
X182014619Y-84605761D01*
X181919380Y-84653380D01*
X181824142Y-84653380D01*
X181728904Y-84605761D01*
X181681285Y-84558142D01*
X181633666Y-84462904D01*
X181586047Y-84272428D01*
X181586047Y-84034333D01*
X181633666Y-83843857D01*
X181681285Y-83748619D01*
X181728904Y-83701000D01*
X181824142Y-83653380D01*
X189682666Y-157892571D02*
X189349333Y-157892571D01*
X189349333Y-158416380D02*
X189349333Y-157416380D01*
X189825523Y-157416380D01*
X190206476Y-158416380D02*
X190206476Y-157416380D01*
X191158857Y-158416380D02*
X190682666Y-158416380D01*
X190682666Y-157416380D01*
X191349333Y-157416380D02*
X191920761Y-157416380D01*
X191635047Y-158416380D02*
X191635047Y-157416380D01*
X192254095Y-157892571D02*
X192587428Y-157892571D01*
X192730285Y-158416380D02*
X192254095Y-158416380D01*
X192254095Y-157416380D01*
X192730285Y-157416380D01*
X193730285Y-158416380D02*
X193396952Y-157940190D01*
X193158857Y-158416380D02*
X193158857Y-157416380D01*
X193539809Y-157416380D01*
X193635047Y-157464000D01*
X193682666Y-157511619D01*
X193730285Y-157606857D01*
X193730285Y-157749714D01*
X193682666Y-157844952D01*
X193635047Y-157892571D01*
X193539809Y-157940190D01*
X193158857Y-157940190D01*
X190206476Y-155122571D02*
X189873142Y-155122571D01*
X189873142Y-155646380D02*
X189873142Y-154646380D01*
X190349333Y-154646380D01*
X191063619Y-155122571D02*
X191206476Y-155170190D01*
X191254095Y-155217809D01*
X191301714Y-155313047D01*
X191301714Y-155455904D01*
X191254095Y-155551142D01*
X191206476Y-155598761D01*
X191111238Y-155646380D01*
X190730285Y-155646380D01*
X190730285Y-154646380D01*
X191063619Y-154646380D01*
X191158857Y-154694000D01*
X191206476Y-154741619D01*
X191254095Y-154836857D01*
X191254095Y-154932095D01*
X191206476Y-155027333D01*
X191158857Y-155074952D01*
X191063619Y-155122571D01*
X190730285Y-155122571D01*
X192254095Y-155646380D02*
X191682666Y-155646380D01*
X191968380Y-155646380D02*
X191968380Y-154646380D01*
X191873142Y-154789238D01*
X191777904Y-154884476D01*
X191682666Y-154932095D01*
X192635047Y-154741619D02*
X192682666Y-154694000D01*
X192777904Y-154646380D01*
X193016000Y-154646380D01*
X193111238Y-154694000D01*
X193158857Y-154741619D01*
X193206476Y-154836857D01*
X193206476Y-154932095D01*
X193158857Y-155074952D01*
X192587428Y-155646380D01*
X193206476Y-155646380D01*
X189682666Y-147907571D02*
X189349333Y-147907571D01*
X189349333Y-148431380D02*
X189349333Y-147431380D01*
X189825523Y-147431380D01*
X190206476Y-148431380D02*
X190206476Y-147431380D01*
X191158857Y-148431380D02*
X190682666Y-148431380D01*
X190682666Y-147431380D01*
X191349333Y-147431380D02*
X191920761Y-147431380D01*
X191635047Y-148431380D02*
X191635047Y-147431380D01*
X192254095Y-147907571D02*
X192587428Y-147907571D01*
X192730285Y-148431380D02*
X192254095Y-148431380D01*
X192254095Y-147431380D01*
X192730285Y-147431380D01*
X193730285Y-148431380D02*
X193396952Y-147955190D01*
X193158857Y-148431380D02*
X193158857Y-147431380D01*
X193539809Y-147431380D01*
X193635047Y-147479000D01*
X193682666Y-147526619D01*
X193730285Y-147621857D01*
X193730285Y-147764714D01*
X193682666Y-147859952D01*
X193635047Y-147907571D01*
X193539809Y-147955190D01*
X193158857Y-147955190D01*
X190206476Y-150677571D02*
X189873142Y-150677571D01*
X189873142Y-151201380D02*
X189873142Y-150201380D01*
X190349333Y-150201380D01*
X191063619Y-150677571D02*
X191206476Y-150725190D01*
X191254095Y-150772809D01*
X191301714Y-150868047D01*
X191301714Y-151010904D01*
X191254095Y-151106142D01*
X191206476Y-151153761D01*
X191111238Y-151201380D01*
X190730285Y-151201380D01*
X190730285Y-150201380D01*
X191063619Y-150201380D01*
X191158857Y-150249000D01*
X191206476Y-150296619D01*
X191254095Y-150391857D01*
X191254095Y-150487095D01*
X191206476Y-150582333D01*
X191158857Y-150629952D01*
X191063619Y-150677571D01*
X190730285Y-150677571D01*
X192254095Y-151201380D02*
X191682666Y-151201380D01*
X191968380Y-151201380D02*
X191968380Y-150201380D01*
X191873142Y-150344238D01*
X191777904Y-150439476D01*
X191682666Y-150487095D01*
X192587428Y-150201380D02*
X193206476Y-150201380D01*
X192873142Y-150582333D01*
X193016000Y-150582333D01*
X193111238Y-150629952D01*
X193158857Y-150677571D01*
X193206476Y-150772809D01*
X193206476Y-151010904D01*
X193158857Y-151106142D01*
X193111238Y-151153761D01*
X193016000Y-151201380D01*
X192730285Y-151201380D01*
X192635047Y-151153761D01*
X192587428Y-151106142D01*
X91170904Y-138771380D02*
X91170904Y-139580904D01*
X91218523Y-139676142D01*
X91266142Y-139723761D01*
X91361380Y-139771380D01*
X91551857Y-139771380D01*
X91647095Y-139723761D01*
X91694714Y-139676142D01*
X91742333Y-139580904D01*
X91742333Y-138771380D01*
X92742333Y-139771380D02*
X92170904Y-139771380D01*
X92456619Y-139771380D02*
X92456619Y-138771380D01*
X92361380Y-138914238D01*
X92266142Y-139009476D01*
X92170904Y-139057095D01*
X93599476Y-139104714D02*
X93599476Y-139771380D01*
X93361380Y-138723761D02*
X93123285Y-139438047D01*
X93742333Y-139438047D01*
X69707904Y-138771380D02*
X69707904Y-139580904D01*
X69755523Y-139676142D01*
X69803142Y-139723761D01*
X69898380Y-139771380D01*
X70088857Y-139771380D01*
X70184095Y-139723761D01*
X70231714Y-139676142D01*
X70279333Y-139580904D01*
X70279333Y-138771380D01*
X71279333Y-139771380D02*
X70707904Y-139771380D01*
X70993619Y-139771380D02*
X70993619Y-138771380D01*
X70898380Y-138914238D01*
X70803142Y-139009476D01*
X70707904Y-139057095D01*
X72184095Y-138771380D02*
X71707904Y-138771380D01*
X71660285Y-139247571D01*
X71707904Y-139199952D01*
X71803142Y-139152333D01*
X72041238Y-139152333D01*
X72136476Y-139199952D01*
X72184095Y-139247571D01*
X72231714Y-139342809D01*
X72231714Y-139580904D01*
X72184095Y-139676142D01*
X72136476Y-139723761D01*
X72041238Y-139771380D01*
X71803142Y-139771380D01*
X71707904Y-139723761D01*
X71660285Y-139676142D01*
X67651523Y-70953380D02*
X67651523Y-71762904D01*
X67699142Y-71858142D01*
X67746761Y-71905761D01*
X67842000Y-71953380D01*
X68032476Y-71953380D01*
X68127714Y-71905761D01*
X68175333Y-71858142D01*
X68222952Y-71762904D01*
X68222952Y-70953380D01*
X68651523Y-71667666D02*
X69127714Y-71667666D01*
X68556285Y-71953380D02*
X68889619Y-70953380D01*
X69222952Y-71953380D01*
X69889619Y-71429571D02*
X70032476Y-71477190D01*
X70080095Y-71524809D01*
X70127714Y-71620047D01*
X70127714Y-71762904D01*
X70080095Y-71858142D01*
X70032476Y-71905761D01*
X69937238Y-71953380D01*
X69556285Y-71953380D01*
X69556285Y-70953380D01*
X69889619Y-70953380D01*
X69984857Y-71001000D01*
X70032476Y-71048619D01*
X70080095Y-71143857D01*
X70080095Y-71239095D01*
X70032476Y-71334333D01*
X69984857Y-71381952D01*
X69889619Y-71429571D01*
X69556285Y-71429571D01*
X71080095Y-71953380D02*
X70508666Y-71953380D01*
X70794380Y-71953380D02*
X70794380Y-70953380D01*
X70699142Y-71096238D01*
X70603904Y-71191476D01*
X70508666Y-71239095D01*
X88733523Y-70953380D02*
X88733523Y-71762904D01*
X88781142Y-71858142D01*
X88828761Y-71905761D01*
X88924000Y-71953380D01*
X89114476Y-71953380D01*
X89209714Y-71905761D01*
X89257333Y-71858142D01*
X89304952Y-71762904D01*
X89304952Y-70953380D01*
X89733523Y-71667666D02*
X90209714Y-71667666D01*
X89638285Y-71953380D02*
X89971619Y-70953380D01*
X90304952Y-71953380D01*
X90971619Y-71429571D02*
X91114476Y-71477190D01*
X91162095Y-71524809D01*
X91209714Y-71620047D01*
X91209714Y-71762904D01*
X91162095Y-71858142D01*
X91114476Y-71905761D01*
X91019238Y-71953380D01*
X90638285Y-71953380D01*
X90638285Y-70953380D01*
X90971619Y-70953380D01*
X91066857Y-71001000D01*
X91114476Y-71048619D01*
X91162095Y-71143857D01*
X91162095Y-71239095D01*
X91114476Y-71334333D01*
X91066857Y-71381952D01*
X90971619Y-71429571D01*
X90638285Y-71429571D01*
X91543047Y-70953380D02*
X92162095Y-70953380D01*
X91828761Y-71334333D01*
X91971619Y-71334333D01*
X92066857Y-71381952D01*
X92114476Y-71429571D01*
X92162095Y-71524809D01*
X92162095Y-71762904D01*
X92114476Y-71858142D01*
X92066857Y-71905761D01*
X91971619Y-71953380D01*
X91685904Y-71953380D01*
X91590666Y-71905761D01*
X91543047Y-71858142D01*
X108974095Y-68286380D02*
X108974095Y-69095904D01*
X109021714Y-69191142D01*
X109069333Y-69238761D01*
X109164571Y-69286380D01*
X109355047Y-69286380D01*
X109450285Y-69238761D01*
X109497904Y-69191142D01*
X109545523Y-69095904D01*
X109545523Y-68286380D01*
X110355047Y-68762571D02*
X110497904Y-68810190D01*
X110545523Y-68857809D01*
X110593142Y-68953047D01*
X110593142Y-69095904D01*
X110545523Y-69191142D01*
X110497904Y-69238761D01*
X110402666Y-69286380D01*
X110021714Y-69286380D01*
X110021714Y-68286380D01*
X110355047Y-68286380D01*
X110450285Y-68334000D01*
X110497904Y-68381619D01*
X110545523Y-68476857D01*
X110545523Y-68572095D01*
X110497904Y-68667333D01*
X110450285Y-68714952D01*
X110355047Y-68762571D01*
X110021714Y-68762571D01*
X111450285Y-68286380D02*
X111259809Y-68286380D01*
X111164571Y-68334000D01*
X111116952Y-68381619D01*
X111021714Y-68524476D01*
X110974095Y-68714952D01*
X110974095Y-69095904D01*
X111021714Y-69191142D01*
X111069333Y-69238761D01*
X111164571Y-69286380D01*
X111355047Y-69286380D01*
X111450285Y-69238761D01*
X111497904Y-69191142D01*
X111545523Y-69095904D01*
X111545523Y-68857809D01*
X111497904Y-68762571D01*
X111450285Y-68714952D01*
X111355047Y-68667333D01*
X111164571Y-68667333D01*
X111069333Y-68714952D01*
X111021714Y-68762571D01*
X110974095Y-68857809D01*
X173569380Y-74032904D02*
X174378904Y-74032904D01*
X174474142Y-73985285D01*
X174521761Y-73937666D01*
X174569380Y-73842428D01*
X174569380Y-73651952D01*
X174521761Y-73556714D01*
X174474142Y-73509095D01*
X174378904Y-73461476D01*
X173569380Y-73461476D01*
X174045571Y-72651952D02*
X174093190Y-72509095D01*
X174140809Y-72461476D01*
X174236047Y-72413857D01*
X174378904Y-72413857D01*
X174474142Y-72461476D01*
X174521761Y-72509095D01*
X174569380Y-72604333D01*
X174569380Y-72985285D01*
X173569380Y-72985285D01*
X173569380Y-72651952D01*
X173617000Y-72556714D01*
X173664619Y-72509095D01*
X173759857Y-72461476D01*
X173855095Y-72461476D01*
X173950333Y-72509095D01*
X173997952Y-72556714D01*
X174045571Y-72651952D01*
X174045571Y-72985285D01*
X173569380Y-72080523D02*
X173569380Y-71413857D01*
X174569380Y-71842428D01*
X224671095Y-69683380D02*
X224671095Y-70492904D01*
X224718714Y-70588142D01*
X224766333Y-70635761D01*
X224861571Y-70683380D01*
X225052047Y-70683380D01*
X225147285Y-70635761D01*
X225194904Y-70588142D01*
X225242523Y-70492904D01*
X225242523Y-69683380D01*
X226052047Y-70159571D02*
X226194904Y-70207190D01*
X226242523Y-70254809D01*
X226290142Y-70350047D01*
X226290142Y-70492904D01*
X226242523Y-70588142D01*
X226194904Y-70635761D01*
X226099666Y-70683380D01*
X225718714Y-70683380D01*
X225718714Y-69683380D01*
X226052047Y-69683380D01*
X226147285Y-69731000D01*
X226194904Y-69778619D01*
X226242523Y-69873857D01*
X226242523Y-69969095D01*
X226194904Y-70064333D01*
X226147285Y-70111952D01*
X226052047Y-70159571D01*
X225718714Y-70159571D01*
X226766333Y-70683380D02*
X226956809Y-70683380D01*
X227052047Y-70635761D01*
X227099666Y-70588142D01*
X227194904Y-70445285D01*
X227242523Y-70254809D01*
X227242523Y-69873857D01*
X227194904Y-69778619D01*
X227147285Y-69731000D01*
X227052047Y-69683380D01*
X226861571Y-69683380D01*
X226766333Y-69731000D01*
X226718714Y-69778619D01*
X226671095Y-69873857D01*
X226671095Y-70111952D01*
X226718714Y-70207190D01*
X226766333Y-70254809D01*
X226861571Y-70302428D01*
X227052047Y-70302428D01*
X227147285Y-70254809D01*
X227194904Y-70207190D01*
X227242523Y-70111952D01*
X247414095Y-107021380D02*
X247414095Y-107830904D01*
X247461714Y-107926142D01*
X247509333Y-107973761D01*
X247604571Y-108021380D01*
X247795047Y-108021380D01*
X247890285Y-107973761D01*
X247937904Y-107926142D01*
X247985523Y-107830904D01*
X247985523Y-107021380D01*
X249033142Y-107926142D02*
X248985523Y-107973761D01*
X248842666Y-108021380D01*
X248747428Y-108021380D01*
X248604571Y-107973761D01*
X248509333Y-107878523D01*
X248461714Y-107783285D01*
X248414095Y-107592809D01*
X248414095Y-107449952D01*
X248461714Y-107259476D01*
X248509333Y-107164238D01*
X248604571Y-107069000D01*
X248747428Y-107021380D01*
X248842666Y-107021380D01*
X248985523Y-107069000D01*
X249033142Y-107116619D01*
X249937904Y-107021380D02*
X249461714Y-107021380D01*
X249414095Y-107497571D01*
X249461714Y-107449952D01*
X249556952Y-107402333D01*
X249795047Y-107402333D01*
X249890285Y-107449952D01*
X249937904Y-107497571D01*
X249985523Y-107592809D01*
X249985523Y-107830904D01*
X249937904Y-107926142D01*
X249890285Y-107973761D01*
X249795047Y-108021380D01*
X249556952Y-108021380D01*
X249461714Y-107973761D01*
X249414095Y-107926142D01*
X157822095Y-138771380D02*
X157822095Y-139580904D01*
X157869714Y-139676142D01*
X157917333Y-139723761D01*
X158012571Y-139771380D01*
X158203047Y-139771380D01*
X158298285Y-139723761D01*
X158345904Y-139676142D01*
X158393523Y-139580904D01*
X158393523Y-138771380D01*
X158869714Y-139771380D02*
X158869714Y-138771380D01*
X159107809Y-138771380D01*
X159250666Y-138819000D01*
X159345904Y-138914238D01*
X159393523Y-139009476D01*
X159441142Y-139199952D01*
X159441142Y-139342809D01*
X159393523Y-139533285D01*
X159345904Y-139628523D01*
X159250666Y-139723761D01*
X159107809Y-139771380D01*
X158869714Y-139771380D01*
X159774476Y-138771380D02*
X160441142Y-138771380D01*
X160012571Y-139771380D01*
X230894095Y-107021380D02*
X230894095Y-107830904D01*
X230941714Y-107926142D01*
X230989333Y-107973761D01*
X231084571Y-108021380D01*
X231275047Y-108021380D01*
X231370285Y-107973761D01*
X231417904Y-107926142D01*
X231465523Y-107830904D01*
X231465523Y-107021380D01*
X231941714Y-108021380D02*
X231941714Y-107021380D01*
X232179809Y-107021380D01*
X232322666Y-107069000D01*
X232417904Y-107164238D01*
X232465523Y-107259476D01*
X232513142Y-107449952D01*
X232513142Y-107592809D01*
X232465523Y-107783285D01*
X232417904Y-107878523D01*
X232322666Y-107973761D01*
X232179809Y-108021380D01*
X231941714Y-108021380D01*
X232989333Y-108021380D02*
X233179809Y-108021380D01*
X233275047Y-107973761D01*
X233322666Y-107926142D01*
X233417904Y-107783285D01*
X233465523Y-107592809D01*
X233465523Y-107211857D01*
X233417904Y-107116619D01*
X233370285Y-107069000D01*
X233275047Y-107021380D01*
X233084571Y-107021380D01*
X232989333Y-107069000D01*
X232941714Y-107116619D01*
X232894095Y-107211857D01*
X232894095Y-107449952D01*
X232941714Y-107545190D01*
X232989333Y-107592809D01*
X233084571Y-107640428D01*
X233275047Y-107640428D01*
X233370285Y-107592809D01*
X233417904Y-107545190D01*
X233465523Y-107449952D01*
X165536714Y-104481380D02*
X165536714Y-105290904D01*
X165584333Y-105386142D01*
X165631952Y-105433761D01*
X165727190Y-105481380D01*
X165917666Y-105481380D01*
X166012904Y-105433761D01*
X166060523Y-105386142D01*
X166108142Y-105290904D01*
X166108142Y-104481380D01*
X166584333Y-104957571D02*
X166917666Y-104957571D01*
X167060523Y-105481380D02*
X166584333Y-105481380D01*
X166584333Y-104481380D01*
X167060523Y-104481380D01*
X167631952Y-104909952D02*
X167536714Y-104862333D01*
X167489095Y-104814714D01*
X167441476Y-104719476D01*
X167441476Y-104671857D01*
X167489095Y-104576619D01*
X167536714Y-104529000D01*
X167631952Y-104481380D01*
X167822428Y-104481380D01*
X167917666Y-104529000D01*
X167965285Y-104576619D01*
X168012904Y-104671857D01*
X168012904Y-104719476D01*
X167965285Y-104814714D01*
X167917666Y-104862333D01*
X167822428Y-104909952D01*
X167631952Y-104909952D01*
X167536714Y-104957571D01*
X167489095Y-105005190D01*
X167441476Y-105100428D01*
X167441476Y-105290904D01*
X167489095Y-105386142D01*
X167536714Y-105433761D01*
X167631952Y-105481380D01*
X167822428Y-105481380D01*
X167917666Y-105433761D01*
X167965285Y-105386142D01*
X168012904Y-105290904D01*
X168012904Y-105100428D01*
X167965285Y-105005190D01*
X167917666Y-104957571D01*
X167822428Y-104909952D01*
X269581523Y-128611380D02*
X269581523Y-129420904D01*
X269629142Y-129516142D01*
X269676761Y-129563761D01*
X269772000Y-129611380D01*
X269962476Y-129611380D01*
X270057714Y-129563761D01*
X270105333Y-129516142D01*
X270152952Y-129420904D01*
X270152952Y-128611380D01*
X270629142Y-129087571D02*
X270962476Y-129087571D01*
X271105333Y-129611380D02*
X270629142Y-129611380D01*
X270629142Y-128611380D01*
X271105333Y-128611380D01*
X272057714Y-129611380D02*
X271486285Y-129611380D01*
X271772000Y-129611380D02*
X271772000Y-128611380D01*
X271676761Y-128754238D01*
X271581523Y-128849476D01*
X271486285Y-128897095D01*
X272676761Y-128611380D02*
X272772000Y-128611380D01*
X272867238Y-128659000D01*
X272914857Y-128706619D01*
X272962476Y-128801857D01*
X273010095Y-128992333D01*
X273010095Y-129230428D01*
X272962476Y-129420904D01*
X272914857Y-129516142D01*
X272867238Y-129563761D01*
X272772000Y-129611380D01*
X272676761Y-129611380D01*
X272581523Y-129563761D01*
X272533904Y-129516142D01*
X272486285Y-129420904D01*
X272438666Y-129230428D01*
X272438666Y-128992333D01*
X272486285Y-128801857D01*
X272533904Y-128706619D01*
X272581523Y-128659000D01*
X272676761Y-128611380D01*
X207296523Y-141106380D02*
X207296523Y-141915904D01*
X207344142Y-142011142D01*
X207391761Y-142058761D01*
X207487000Y-142106380D01*
X207677476Y-142106380D01*
X207772714Y-142058761D01*
X207820333Y-142011142D01*
X207867952Y-141915904D01*
X207867952Y-141106380D01*
X208677476Y-141582571D02*
X208344142Y-141582571D01*
X208344142Y-142106380D02*
X208344142Y-141106380D01*
X208820333Y-141106380D01*
X209344142Y-141534952D02*
X209248904Y-141487333D01*
X209201285Y-141439714D01*
X209153666Y-141344476D01*
X209153666Y-141296857D01*
X209201285Y-141201619D01*
X209248904Y-141154000D01*
X209344142Y-141106380D01*
X209534619Y-141106380D01*
X209629857Y-141154000D01*
X209677476Y-141201619D01*
X209725095Y-141296857D01*
X209725095Y-141344476D01*
X209677476Y-141439714D01*
X209629857Y-141487333D01*
X209534619Y-141534952D01*
X209344142Y-141534952D01*
X209248904Y-141582571D01*
X209201285Y-141630190D01*
X209153666Y-141725428D01*
X209153666Y-141915904D01*
X209201285Y-142011142D01*
X209248904Y-142058761D01*
X209344142Y-142106380D01*
X209534619Y-142106380D01*
X209629857Y-142058761D01*
X209677476Y-142011142D01*
X209725095Y-141915904D01*
X209725095Y-141725428D01*
X209677476Y-141630190D01*
X209629857Y-141582571D01*
X209534619Y-141534952D01*
X214638095Y-107021380D02*
X214638095Y-107830904D01*
X214685714Y-107926142D01*
X214733333Y-107973761D01*
X214828571Y-108021380D01*
X215019047Y-108021380D01*
X215114285Y-107973761D01*
X215161904Y-107926142D01*
X215209523Y-107830904D01*
X215209523Y-107021380D01*
X216257142Y-107926142D02*
X216209523Y-107973761D01*
X216066666Y-108021380D01*
X215971428Y-108021380D01*
X215828571Y-107973761D01*
X215733333Y-107878523D01*
X215685714Y-107783285D01*
X215638095Y-107592809D01*
X215638095Y-107449952D01*
X215685714Y-107259476D01*
X215733333Y-107164238D01*
X215828571Y-107069000D01*
X215971428Y-107021380D01*
X216066666Y-107021380D01*
X216209523Y-107069000D01*
X216257142Y-107116619D01*
X217114285Y-107021380D02*
X216923809Y-107021380D01*
X216828571Y-107069000D01*
X216780952Y-107116619D01*
X216685714Y-107259476D01*
X216638095Y-107449952D01*
X216638095Y-107830904D01*
X216685714Y-107926142D01*
X216733333Y-107973761D01*
X216828571Y-108021380D01*
X217019047Y-108021380D01*
X217114285Y-107973761D01*
X217161904Y-107926142D01*
X217209523Y-107830904D01*
X217209523Y-107592809D01*
X217161904Y-107497571D01*
X217114285Y-107449952D01*
X217019047Y-107402333D01*
X216828571Y-107402333D01*
X216733333Y-107449952D01*
X216685714Y-107497571D01*
X216638095Y-107592809D01*
X124214095Y-108418380D02*
X124214095Y-109227904D01*
X124261714Y-109323142D01*
X124309333Y-109370761D01*
X124404571Y-109418380D01*
X124595047Y-109418380D01*
X124690285Y-109370761D01*
X124737904Y-109323142D01*
X124785523Y-109227904D01*
X124785523Y-108418380D01*
X125261714Y-109418380D02*
X125261714Y-108418380D01*
X125499809Y-108418380D01*
X125642666Y-108466000D01*
X125737904Y-108561238D01*
X125785523Y-108656476D01*
X125833142Y-108846952D01*
X125833142Y-108989809D01*
X125785523Y-109180285D01*
X125737904Y-109275523D01*
X125642666Y-109370761D01*
X125499809Y-109418380D01*
X125261714Y-109418380D01*
X126785523Y-109418380D02*
X126214095Y-109418380D01*
X126499809Y-109418380D02*
X126499809Y-108418380D01*
X126404571Y-108561238D01*
X126309333Y-108656476D01*
X126214095Y-108704095D01*
X109562095Y-134961380D02*
X109562095Y-135770904D01*
X109609714Y-135866142D01*
X109657333Y-135913761D01*
X109752571Y-135961380D01*
X109943047Y-135961380D01*
X110038285Y-135913761D01*
X110085904Y-135866142D01*
X110133523Y-135770904D01*
X110133523Y-134961380D01*
X110609714Y-135961380D02*
X110609714Y-134961380D01*
X110847809Y-134961380D01*
X110990666Y-135009000D01*
X111085904Y-135104238D01*
X111133523Y-135199476D01*
X111181142Y-135389952D01*
X111181142Y-135532809D01*
X111133523Y-135723285D01*
X111085904Y-135818523D01*
X110990666Y-135913761D01*
X110847809Y-135961380D01*
X110609714Y-135961380D01*
X111562095Y-135056619D02*
X111609714Y-135009000D01*
X111704952Y-134961380D01*
X111943047Y-134961380D01*
X112038285Y-135009000D01*
X112085904Y-135056619D01*
X112133523Y-135151857D01*
X112133523Y-135247095D01*
X112085904Y-135389952D01*
X111514476Y-135961380D01*
X112133523Y-135961380D01*
X138819714Y-134961380D02*
X138819714Y-135770904D01*
X138867333Y-135866142D01*
X138914952Y-135913761D01*
X139010190Y-135961380D01*
X139200666Y-135961380D01*
X139295904Y-135913761D01*
X139343523Y-135866142D01*
X139391142Y-135770904D01*
X139391142Y-134961380D01*
X139867333Y-135437571D02*
X140200666Y-135437571D01*
X140343523Y-135961380D02*
X139867333Y-135961380D01*
X139867333Y-134961380D01*
X140343523Y-134961380D01*
X141295904Y-135961380D02*
X140724476Y-135961380D01*
X141010190Y-135961380D02*
X141010190Y-134961380D01*
X140914952Y-135104238D01*
X140819714Y-135199476D01*
X140724476Y-135247095D01*
X124214714Y-134961380D02*
X124214714Y-135770904D01*
X124262333Y-135866142D01*
X124309952Y-135913761D01*
X124405190Y-135961380D01*
X124595666Y-135961380D01*
X124690904Y-135913761D01*
X124738523Y-135866142D01*
X124786142Y-135770904D01*
X124786142Y-134961380D01*
X125262333Y-135437571D02*
X125595666Y-135437571D01*
X125738523Y-135961380D02*
X125262333Y-135961380D01*
X125262333Y-134961380D01*
X125738523Y-134961380D01*
X126119476Y-135056619D02*
X126167095Y-135009000D01*
X126262333Y-134961380D01*
X126500428Y-134961380D01*
X126595666Y-135009000D01*
X126643285Y-135056619D01*
X126690904Y-135151857D01*
X126690904Y-135247095D01*
X126643285Y-135389952D01*
X126071857Y-135961380D01*
X126690904Y-135961380D01*
X198509095Y-107021380D02*
X198509095Y-107830904D01*
X198556714Y-107926142D01*
X198604333Y-107973761D01*
X198699571Y-108021380D01*
X198890047Y-108021380D01*
X198985285Y-107973761D01*
X199032904Y-107926142D01*
X199080523Y-107830904D01*
X199080523Y-107021380D01*
X200128142Y-107926142D02*
X200080523Y-107973761D01*
X199937666Y-108021380D01*
X199842428Y-108021380D01*
X199699571Y-107973761D01*
X199604333Y-107878523D01*
X199556714Y-107783285D01*
X199509095Y-107592809D01*
X199509095Y-107449952D01*
X199556714Y-107259476D01*
X199604333Y-107164238D01*
X199699571Y-107069000D01*
X199842428Y-107021380D01*
X199937666Y-107021380D01*
X200080523Y-107069000D01*
X200128142Y-107116619D01*
X200985285Y-107354714D02*
X200985285Y-108021380D01*
X200747190Y-106973761D02*
X200509095Y-107688047D01*
X201128142Y-107688047D01*
X200231571Y-73334333D02*
X200231571Y-73667666D01*
X200755380Y-73667666D02*
X199755380Y-73667666D01*
X199755380Y-73191476D01*
X200755380Y-72810523D02*
X199755380Y-72810523D01*
X200755380Y-71858142D02*
X200755380Y-72334333D01*
X199755380Y-72334333D01*
X199755380Y-71667666D02*
X199755380Y-71096238D01*
X200755380Y-71381952D02*
X199755380Y-71381952D01*
X200231571Y-70762904D02*
X200231571Y-70429571D01*
X200755380Y-70286714D02*
X200755380Y-70762904D01*
X199755380Y-70762904D01*
X199755380Y-70286714D01*
X200755380Y-69286714D02*
X200279190Y-69620047D01*
X200755380Y-69858142D02*
X199755380Y-69858142D01*
X199755380Y-69477190D01*
X199803000Y-69381952D01*
X199850619Y-69334333D01*
X199945857Y-69286714D01*
X200088714Y-69286714D01*
X200183952Y-69334333D01*
X200231571Y-69381952D01*
X200279190Y-69477190D01*
X200279190Y-69858142D01*
X203001571Y-72334333D02*
X203001571Y-72667666D01*
X203525380Y-72667666D02*
X202525380Y-72667666D01*
X202525380Y-72191476D01*
X203001571Y-71477190D02*
X203049190Y-71334333D01*
X203096809Y-71286714D01*
X203192047Y-71239095D01*
X203334904Y-71239095D01*
X203430142Y-71286714D01*
X203477761Y-71334333D01*
X203525380Y-71429571D01*
X203525380Y-71810523D01*
X202525380Y-71810523D01*
X202525380Y-71477190D01*
X202573000Y-71381952D01*
X202620619Y-71334333D01*
X202715857Y-71286714D01*
X202811095Y-71286714D01*
X202906333Y-71334333D01*
X202953952Y-71381952D01*
X203001571Y-71477190D01*
X203001571Y-71810523D01*
X202525380Y-70381952D02*
X202525380Y-70572428D01*
X202573000Y-70667666D01*
X202620619Y-70715285D01*
X202763476Y-70810523D01*
X202953952Y-70858142D01*
X203334904Y-70858142D01*
X203430142Y-70810523D01*
X203477761Y-70762904D01*
X203525380Y-70667666D01*
X203525380Y-70477190D01*
X203477761Y-70381952D01*
X203430142Y-70334333D01*
X203334904Y-70286714D01*
X203096809Y-70286714D01*
X203001571Y-70334333D01*
X202953952Y-70381952D01*
X202906333Y-70477190D01*
X202906333Y-70667666D01*
X202953952Y-70762904D01*
X203001571Y-70810523D01*
X203096809Y-70858142D01*
X168321380Y-52910857D02*
X168321380Y-52815619D01*
X168369000Y-52720380D01*
X168416619Y-52672761D01*
X168511857Y-52625142D01*
X168702333Y-52577523D01*
X168940428Y-52577523D01*
X169130904Y-52625142D01*
X169226142Y-52672761D01*
X169273761Y-52720380D01*
X169321380Y-52815619D01*
X169321380Y-52910857D01*
X169273761Y-53006095D01*
X169226142Y-53053714D01*
X169130904Y-53101333D01*
X168940428Y-53148952D01*
X168702333Y-53148952D01*
X168511857Y-53101333D01*
X168416619Y-53053714D01*
X168369000Y-53006095D01*
X168321380Y-52910857D01*
X169226142Y-52148952D02*
X169273761Y-52101333D01*
X169321380Y-52148952D01*
X169273761Y-52196571D01*
X169226142Y-52148952D01*
X169321380Y-52148952D01*
X169321380Y-51148952D02*
X169321380Y-51720380D01*
X169321380Y-51434666D02*
X168321380Y-51434666D01*
X168464238Y-51529904D01*
X168559476Y-51625142D01*
X168607095Y-51720380D01*
X168654714Y-50291809D02*
X169321380Y-50291809D01*
X168654714Y-50720380D02*
X169178523Y-50720380D01*
X169273761Y-50672761D01*
X169321380Y-50577523D01*
X169321380Y-50434666D01*
X169273761Y-50339428D01*
X169226142Y-50291809D01*
X168797571Y-49482285D02*
X168797571Y-49815619D01*
X169321380Y-49815619D02*
X168321380Y-49815619D01*
X168321380Y-49339428D01*
D11*
X171376142Y-51820857D02*
X171417095Y-51861809D01*
X171458047Y-51984666D01*
X171458047Y-52066571D01*
X171417095Y-52189428D01*
X171335190Y-52271333D01*
X171253285Y-52312285D01*
X171089476Y-52353238D01*
X170966619Y-52353238D01*
X170802809Y-52312285D01*
X170720904Y-52271333D01*
X170639000Y-52189428D01*
X170598047Y-52066571D01*
X170598047Y-51984666D01*
X170639000Y-51861809D01*
X170679952Y-51820857D01*
X171458047Y-51001809D02*
X171458047Y-51493238D01*
X171458047Y-51247523D02*
X170598047Y-51247523D01*
X170720904Y-51329428D01*
X170802809Y-51411333D01*
X170843761Y-51493238D01*
X170679952Y-50674190D02*
X170639000Y-50633238D01*
X170598047Y-50551333D01*
X170598047Y-50346571D01*
X170639000Y-50264666D01*
X170679952Y-50223714D01*
X170761857Y-50182761D01*
X170843761Y-50182761D01*
X170966619Y-50223714D01*
X171458047Y-50715142D01*
X171458047Y-50182761D01*
D10*
X197338333Y-55348142D02*
X197290714Y-55395761D01*
X197147857Y-55443380D01*
X197052619Y-55443380D01*
X196909761Y-55395761D01*
X196814523Y-55300523D01*
X196766904Y-55205285D01*
X196719285Y-55014809D01*
X196719285Y-54871952D01*
X196766904Y-54681476D01*
X196814523Y-54586238D01*
X196909761Y-54491000D01*
X197052619Y-54443380D01*
X197147857Y-54443380D01*
X197290714Y-54491000D01*
X197338333Y-54538619D01*
X197671666Y-54443380D02*
X198338333Y-54443380D01*
X197909761Y-55443380D01*
X296648142Y-141279476D02*
X296695761Y-141327095D01*
X296743380Y-141469952D01*
X296743380Y-141565190D01*
X296695761Y-141708047D01*
X296600523Y-141803285D01*
X296505285Y-141850904D01*
X296314809Y-141898523D01*
X296171952Y-141898523D01*
X295981476Y-141850904D01*
X295886238Y-141803285D01*
X295791000Y-141708047D01*
X295743380Y-141565190D01*
X295743380Y-141469952D01*
X295791000Y-141327095D01*
X295838619Y-141279476D01*
X296743380Y-140850904D02*
X295743380Y-140850904D01*
X296743380Y-140279476D01*
X295743380Y-140279476D01*
X296743380Y-139279476D02*
X296743380Y-139850904D01*
X296743380Y-139565190D02*
X295743380Y-139565190D01*
X295886238Y-139660428D01*
X295981476Y-139755666D01*
X296029095Y-139850904D01*
D12*
X293644047Y-80052333D02*
X293704523Y-79870904D01*
X293704523Y-79568523D01*
X293644047Y-79447571D01*
X293583571Y-79387095D01*
X293462619Y-79326619D01*
X293341666Y-79326619D01*
X293220714Y-79387095D01*
X293160238Y-79447571D01*
X293099761Y-79568523D01*
X293039285Y-79810428D01*
X292978809Y-79931380D01*
X292918333Y-79991857D01*
X292797380Y-80052333D01*
X292676428Y-80052333D01*
X292555476Y-79991857D01*
X292495000Y-79931380D01*
X292434523Y-79810428D01*
X292434523Y-79508047D01*
X292495000Y-79326619D01*
X292434523Y-78903285D02*
X293704523Y-78600904D01*
X292797380Y-78359000D01*
X293704523Y-78117095D01*
X292434523Y-77814714D01*
X293704523Y-76665666D02*
X293704523Y-77391380D01*
X293704523Y-77028523D02*
X292434523Y-77028523D01*
X292615952Y-77149476D01*
X292736904Y-77270428D01*
X292797380Y-77391380D01*
D11*
X264213142Y-73236857D02*
X264254095Y-73277809D01*
X264295047Y-73400666D01*
X264295047Y-73482571D01*
X264254095Y-73605428D01*
X264172190Y-73687333D01*
X264090285Y-73728285D01*
X263926476Y-73769238D01*
X263803619Y-73769238D01*
X263639809Y-73728285D01*
X263557904Y-73687333D01*
X263476000Y-73605428D01*
X263435047Y-73482571D01*
X263435047Y-73400666D01*
X263476000Y-73277809D01*
X263516952Y-73236857D01*
X263435047Y-72950190D02*
X263435047Y-72417809D01*
X263762666Y-72704476D01*
X263762666Y-72581619D01*
X263803619Y-72499714D01*
X263844571Y-72458761D01*
X263926476Y-72417809D01*
X264131238Y-72417809D01*
X264213142Y-72458761D01*
X264254095Y-72499714D01*
X264295047Y-72581619D01*
X264295047Y-72827333D01*
X264254095Y-72909238D01*
X264213142Y-72950190D01*
X264295047Y-71598761D02*
X264295047Y-72090190D01*
X264295047Y-71844476D02*
X263435047Y-71844476D01*
X263557904Y-71926380D01*
X263639809Y-72008285D01*
X263680761Y-72090190D01*
X264213142Y-80856857D02*
X264254095Y-80897809D01*
X264295047Y-81020666D01*
X264295047Y-81102571D01*
X264254095Y-81225428D01*
X264172190Y-81307333D01*
X264090285Y-81348285D01*
X263926476Y-81389238D01*
X263803619Y-81389238D01*
X263639809Y-81348285D01*
X263557904Y-81307333D01*
X263476000Y-81225428D01*
X263435047Y-81102571D01*
X263435047Y-81020666D01*
X263476000Y-80897809D01*
X263516952Y-80856857D01*
X263435047Y-80570190D02*
X263435047Y-80037809D01*
X263762666Y-80324476D01*
X263762666Y-80201619D01*
X263803619Y-80119714D01*
X263844571Y-80078761D01*
X263926476Y-80037809D01*
X264131238Y-80037809D01*
X264213142Y-80078761D01*
X264254095Y-80119714D01*
X264295047Y-80201619D01*
X264295047Y-80447333D01*
X264254095Y-80529238D01*
X264213142Y-80570190D01*
X263516952Y-79710190D02*
X263476000Y-79669238D01*
X263435047Y-79587333D01*
X263435047Y-79382571D01*
X263476000Y-79300666D01*
X263516952Y-79259714D01*
X263598857Y-79218761D01*
X263680761Y-79218761D01*
X263803619Y-79259714D01*
X264295047Y-79751142D01*
X264295047Y-79218761D01*
D10*
X255373142Y-56101857D02*
X255420761Y-56149476D01*
X255468380Y-56292333D01*
X255468380Y-56387571D01*
X255420761Y-56530428D01*
X255325523Y-56625666D01*
X255230285Y-56673285D01*
X255039809Y-56720904D01*
X254896952Y-56720904D01*
X254706476Y-56673285D01*
X254611238Y-56625666D01*
X254516000Y-56530428D01*
X254468380Y-56387571D01*
X254468380Y-56292333D01*
X254516000Y-56149476D01*
X254563619Y-56101857D01*
X254468380Y-55768523D02*
X254468380Y-55149476D01*
X254849333Y-55482809D01*
X254849333Y-55339952D01*
X254896952Y-55244714D01*
X254944571Y-55197095D01*
X255039809Y-55149476D01*
X255277904Y-55149476D01*
X255373142Y-55197095D01*
X255420761Y-55244714D01*
X255468380Y-55339952D01*
X255468380Y-55625666D01*
X255420761Y-55720904D01*
X255373142Y-55768523D01*
X254468380Y-54816142D02*
X254468380Y-54197095D01*
X254849333Y-54530428D01*
X254849333Y-54387571D01*
X254896952Y-54292333D01*
X254944571Y-54244714D01*
X255039809Y-54197095D01*
X255277904Y-54197095D01*
X255373142Y-54244714D01*
X255420761Y-54292333D01*
X255468380Y-54387571D01*
X255468380Y-54673285D01*
X255420761Y-54768523D01*
X255373142Y-54816142D01*
X268422380Y-76446666D02*
X268422380Y-76922857D01*
X267422380Y-76922857D01*
X267422380Y-76208571D02*
X267422380Y-75589523D01*
X267803333Y-75922857D01*
X267803333Y-75780000D01*
X267850952Y-75684761D01*
X267898571Y-75637142D01*
X267993809Y-75589523D01*
X268231904Y-75589523D01*
X268327142Y-75637142D01*
X268374761Y-75684761D01*
X268422380Y-75780000D01*
X268422380Y-76065714D01*
X268374761Y-76160952D01*
X268327142Y-76208571D01*
X149614095Y-104481380D02*
X149614095Y-105290904D01*
X149661714Y-105386142D01*
X149709333Y-105433761D01*
X149804571Y-105481380D01*
X149995047Y-105481380D01*
X150090285Y-105433761D01*
X150137904Y-105386142D01*
X150185523Y-105290904D01*
X150185523Y-104481380D01*
X150661714Y-105481380D02*
X150661714Y-104481380D01*
X150899809Y-104481380D01*
X151042666Y-104529000D01*
X151137904Y-104624238D01*
X151185523Y-104719476D01*
X151233142Y-104909952D01*
X151233142Y-105052809D01*
X151185523Y-105243285D01*
X151137904Y-105338523D01*
X151042666Y-105433761D01*
X150899809Y-105481380D01*
X150661714Y-105481380D01*
X151804571Y-104909952D02*
X151709333Y-104862333D01*
X151661714Y-104814714D01*
X151614095Y-104719476D01*
X151614095Y-104671857D01*
X151661714Y-104576619D01*
X151709333Y-104529000D01*
X151804571Y-104481380D01*
X151995047Y-104481380D01*
X152090285Y-104529000D01*
X152137904Y-104576619D01*
X152185523Y-104671857D01*
X152185523Y-104719476D01*
X152137904Y-104814714D01*
X152090285Y-104862333D01*
X151995047Y-104909952D01*
X151804571Y-104909952D01*
X151709333Y-104957571D01*
X151661714Y-105005190D01*
X151614095Y-105100428D01*
X151614095Y-105290904D01*
X151661714Y-105386142D01*
X151709333Y-105433761D01*
X151804571Y-105481380D01*
X151995047Y-105481380D01*
X152090285Y-105433761D01*
X152137904Y-105386142D01*
X152185523Y-105290904D01*
X152185523Y-105100428D01*
X152137904Y-105005190D01*
X152090285Y-104957571D01*
X151995047Y-104909952D01*
X230037285Y-77218142D02*
X229989666Y-77265761D01*
X229846809Y-77313380D01*
X229751571Y-77313380D01*
X229608714Y-77265761D01*
X229513476Y-77170523D01*
X229465857Y-77075285D01*
X229418238Y-76884809D01*
X229418238Y-76741952D01*
X229465857Y-76551476D01*
X229513476Y-76456238D01*
X229608714Y-76361000D01*
X229751571Y-76313380D01*
X229846809Y-76313380D01*
X229989666Y-76361000D01*
X230037285Y-76408619D01*
X230465857Y-77313380D02*
X230465857Y-76646714D01*
X230465857Y-76837190D02*
X230513476Y-76741952D01*
X230561095Y-76694333D01*
X230656333Y-76646714D01*
X230751571Y-76646714D01*
X230989666Y-76646714D02*
X231227761Y-77313380D01*
X231465857Y-76646714D02*
X231227761Y-77313380D01*
X231132523Y-77551476D01*
X231084904Y-77599095D01*
X230989666Y-77646714D01*
X231799190Y-77265761D02*
X231894428Y-77313380D01*
X232084904Y-77313380D01*
X232180142Y-77265761D01*
X232227761Y-77170523D01*
X232227761Y-77122904D01*
X232180142Y-77027666D01*
X232084904Y-76980047D01*
X231942047Y-76980047D01*
X231846809Y-76932428D01*
X231799190Y-76837190D01*
X231799190Y-76789571D01*
X231846809Y-76694333D01*
X231942047Y-76646714D01*
X232084904Y-76646714D01*
X232180142Y-76694333D01*
X232513476Y-76646714D02*
X232894428Y-76646714D01*
X232656333Y-76313380D02*
X232656333Y-77170523D01*
X232703952Y-77265761D01*
X232799190Y-77313380D01*
X232894428Y-77313380D01*
X233656333Y-77313380D02*
X233656333Y-76789571D01*
X233608714Y-76694333D01*
X233513476Y-76646714D01*
X233323000Y-76646714D01*
X233227761Y-76694333D01*
X233656333Y-77265761D02*
X233561095Y-77313380D01*
X233323000Y-77313380D01*
X233227761Y-77265761D01*
X233180142Y-77170523D01*
X233180142Y-77075285D01*
X233227761Y-76980047D01*
X233323000Y-76932428D01*
X233561095Y-76932428D01*
X233656333Y-76884809D01*
X234275380Y-77313380D02*
X234180142Y-77265761D01*
X234132523Y-77170523D01*
X234132523Y-76313380D01*
X235942047Y-76361000D02*
X235846809Y-76313380D01*
X235703952Y-76313380D01*
X235561095Y-76361000D01*
X235465857Y-76456238D01*
X235418238Y-76551476D01*
X235370619Y-76741952D01*
X235370619Y-76884809D01*
X235418238Y-77075285D01*
X235465857Y-77170523D01*
X235561095Y-77265761D01*
X235703952Y-77313380D01*
X235799190Y-77313380D01*
X235942047Y-77265761D01*
X235989666Y-77218142D01*
X235989666Y-76884809D01*
X235799190Y-76884809D01*
X236418238Y-77313380D02*
X236418238Y-76646714D01*
X236418238Y-76837190D02*
X236465857Y-76741952D01*
X236513476Y-76694333D01*
X236608714Y-76646714D01*
X236703952Y-76646714D01*
X237180142Y-77313380D02*
X237084904Y-77265761D01*
X237037285Y-77218142D01*
X236989666Y-77122904D01*
X236989666Y-76837190D01*
X237037285Y-76741952D01*
X237084904Y-76694333D01*
X237180142Y-76646714D01*
X237323000Y-76646714D01*
X237418238Y-76694333D01*
X237465857Y-76741952D01*
X237513476Y-76837190D01*
X237513476Y-77122904D01*
X237465857Y-77218142D01*
X237418238Y-77265761D01*
X237323000Y-77313380D01*
X237180142Y-77313380D01*
X238370619Y-76646714D02*
X238370619Y-77313380D01*
X237942047Y-76646714D02*
X237942047Y-77170523D01*
X237989666Y-77265761D01*
X238084904Y-77313380D01*
X238227761Y-77313380D01*
X238323000Y-77265761D01*
X238370619Y-77218142D01*
X238846809Y-76646714D02*
X238846809Y-77313380D01*
X238846809Y-76741952D02*
X238894428Y-76694333D01*
X238989666Y-76646714D01*
X239132523Y-76646714D01*
X239227761Y-76694333D01*
X239275380Y-76789571D01*
X239275380Y-77313380D01*
X240180142Y-77313380D02*
X240180142Y-76313380D01*
X240180142Y-77265761D02*
X240084904Y-77313380D01*
X239894428Y-77313380D01*
X239799190Y-77265761D01*
X239751571Y-77218142D01*
X239703952Y-77122904D01*
X239703952Y-76837190D01*
X239751571Y-76741952D01*
X239799190Y-76694333D01*
X239894428Y-76646714D01*
X240084904Y-76646714D01*
X240180142Y-76694333D01*
X233561095Y-73313380D02*
X234132523Y-73313380D01*
X233846809Y-74313380D02*
X233846809Y-73313380D01*
X234465857Y-74313380D02*
X234465857Y-73313380D01*
X234846809Y-73313380D01*
X234942047Y-73361000D01*
X234989666Y-73408619D01*
X235037285Y-73503857D01*
X235037285Y-73646714D01*
X234989666Y-73741952D01*
X234942047Y-73789571D01*
X234846809Y-73837190D01*
X234465857Y-73837190D01*
X235989666Y-74313380D02*
X235418238Y-74313380D01*
X235703952Y-74313380D02*
X235703952Y-73313380D01*
X235608714Y-73456238D01*
X235513476Y-73551476D01*
X235418238Y-73599095D01*
X73211142Y-106497095D02*
X73258761Y-106544714D01*
X73306380Y-106687571D01*
X73306380Y-106782809D01*
X73258761Y-106925666D01*
X73163523Y-107020904D01*
X73068285Y-107068523D01*
X72877809Y-107116142D01*
X72734952Y-107116142D01*
X72544476Y-107068523D01*
X72449238Y-107020904D01*
X72354000Y-106925666D01*
X72306380Y-106782809D01*
X72306380Y-106687571D01*
X72354000Y-106544714D01*
X72401619Y-106497095D01*
X73020666Y-106116142D02*
X73020666Y-105639952D01*
X73306380Y-106211380D02*
X72306380Y-105878047D01*
X73306380Y-105544714D01*
X73258761Y-105259000D02*
X73306380Y-105116142D01*
X73306380Y-104878047D01*
X73258761Y-104782809D01*
X73211142Y-104735190D01*
X73115904Y-104687571D01*
X73020666Y-104687571D01*
X72925428Y-104735190D01*
X72877809Y-104782809D01*
X72830190Y-104878047D01*
X72782571Y-105068523D01*
X72734952Y-105163761D01*
X72687333Y-105211380D01*
X72592095Y-105259000D01*
X72496857Y-105259000D01*
X72401619Y-105211380D01*
X72354000Y-105163761D01*
X72306380Y-105068523D01*
X72306380Y-104830428D01*
X72354000Y-104687571D01*
X73258761Y-104306619D02*
X73306380Y-104163761D01*
X73306380Y-103925666D01*
X73258761Y-103830428D01*
X73211142Y-103782809D01*
X73115904Y-103735190D01*
X73020666Y-103735190D01*
X72925428Y-103782809D01*
X72877809Y-103830428D01*
X72830190Y-103925666D01*
X72782571Y-104116142D01*
X72734952Y-104211380D01*
X72687333Y-104259000D01*
X72592095Y-104306619D01*
X72496857Y-104306619D01*
X72401619Y-104259000D01*
X72354000Y-104211380D01*
X72306380Y-104116142D01*
X72306380Y-103878047D01*
X72354000Y-103735190D01*
X72782571Y-103306619D02*
X72782571Y-102973285D01*
X73306380Y-102830428D02*
X73306380Y-103306619D01*
X72306380Y-103306619D01*
X72306380Y-102830428D01*
X72306380Y-102544714D02*
X72306380Y-101973285D01*
X73306380Y-102259000D02*
X72306380Y-102259000D01*
X72306380Y-101782809D02*
X72306380Y-101211380D01*
X73306380Y-101497095D02*
X72306380Y-101497095D01*
X72782571Y-100878047D02*
X72782571Y-100544714D01*
X73306380Y-100401857D02*
X73306380Y-100878047D01*
X72306380Y-100878047D01*
X72306380Y-100401857D01*
X80795904Y-104211380D02*
X80795904Y-103211380D01*
X81176857Y-103211380D01*
X81272095Y-103259000D01*
X81319714Y-103306619D01*
X81367333Y-103401857D01*
X81367333Y-103544714D01*
X81319714Y-103639952D01*
X81272095Y-103687571D01*
X81176857Y-103735190D01*
X80795904Y-103735190D01*
X81748285Y-103306619D02*
X81795904Y-103259000D01*
X81891142Y-103211380D01*
X82129238Y-103211380D01*
X82224476Y-103259000D01*
X82272095Y-103306619D01*
X82319714Y-103401857D01*
X82319714Y-103497095D01*
X82272095Y-103639952D01*
X81700666Y-104211380D01*
X82319714Y-104211380D01*
X182022904Y-108291380D02*
X182022904Y-109100904D01*
X182070523Y-109196142D01*
X182118142Y-109243761D01*
X182213380Y-109291380D01*
X182403857Y-109291380D01*
X182499095Y-109243761D01*
X182546714Y-109196142D01*
X182594333Y-109100904D01*
X182594333Y-108291380D01*
X183594333Y-109291380D02*
X183022904Y-109291380D01*
X183308619Y-109291380D02*
X183308619Y-108291380D01*
X183213380Y-108434238D01*
X183118142Y-108529476D01*
X183022904Y-108577095D01*
X183927666Y-108291380D02*
X184546714Y-108291380D01*
X184213380Y-108672333D01*
X184356238Y-108672333D01*
X184451476Y-108719952D01*
X184499095Y-108767571D01*
X184546714Y-108862809D01*
X184546714Y-109100904D01*
X184499095Y-109196142D01*
X184451476Y-109243761D01*
X184356238Y-109291380D01*
X184070523Y-109291380D01*
X183975285Y-109243761D01*
X183927666Y-109196142D01*
X191604095Y-132343380D02*
X191604095Y-133152904D01*
X191651714Y-133248142D01*
X191699333Y-133295761D01*
X191794571Y-133343380D01*
X191985047Y-133343380D01*
X192080285Y-133295761D01*
X192127904Y-133248142D01*
X192175523Y-133152904D01*
X192175523Y-132343380D01*
X193223142Y-133248142D02*
X193175523Y-133295761D01*
X193032666Y-133343380D01*
X192937428Y-133343380D01*
X192794571Y-133295761D01*
X192699333Y-133200523D01*
X192651714Y-133105285D01*
X192604095Y-132914809D01*
X192604095Y-132771952D01*
X192651714Y-132581476D01*
X192699333Y-132486238D01*
X192794571Y-132391000D01*
X192937428Y-132343380D01*
X193032666Y-132343380D01*
X193175523Y-132391000D01*
X193223142Y-132438619D01*
X193556476Y-132343380D02*
X194175523Y-132343380D01*
X193842190Y-132724333D01*
X193985047Y-132724333D01*
X194080285Y-132771952D01*
X194127904Y-132819571D01*
X194175523Y-132914809D01*
X194175523Y-133152904D01*
X194127904Y-133248142D01*
X194080285Y-133295761D01*
X193985047Y-133343380D01*
X193699333Y-133343380D01*
X193604095Y-133295761D01*
X193556476Y-133248142D01*
X172760285Y-158176380D02*
X172760285Y-157176380D01*
X173093619Y-157890666D01*
X173426952Y-157176380D01*
X173426952Y-158176380D01*
X174046000Y-158176380D02*
X173950761Y-158128761D01*
X173903142Y-158081142D01*
X173855523Y-157985904D01*
X173855523Y-157700190D01*
X173903142Y-157604952D01*
X173950761Y-157557333D01*
X174046000Y-157509714D01*
X174188857Y-157509714D01*
X174284095Y-157557333D01*
X174331714Y-157604952D01*
X174379333Y-157700190D01*
X174379333Y-157985904D01*
X174331714Y-158081142D01*
X174284095Y-158128761D01*
X174188857Y-158176380D01*
X174046000Y-158176380D01*
X175236476Y-157509714D02*
X175236476Y-158176380D01*
X174807904Y-157509714D02*
X174807904Y-158033523D01*
X174855523Y-158128761D01*
X174950761Y-158176380D01*
X175093619Y-158176380D01*
X175188857Y-158128761D01*
X175236476Y-158081142D01*
X175712666Y-157509714D02*
X175712666Y-158176380D01*
X175712666Y-157604952D02*
X175760285Y-157557333D01*
X175855523Y-157509714D01*
X175998380Y-157509714D01*
X176093619Y-157557333D01*
X176141238Y-157652571D01*
X176141238Y-158176380D01*
X176474571Y-157509714D02*
X176855523Y-157509714D01*
X176617428Y-157176380D02*
X176617428Y-158033523D01*
X176665047Y-158128761D01*
X176760285Y-158176380D01*
X176855523Y-158176380D01*
X177188857Y-158176380D02*
X177188857Y-157509714D01*
X177188857Y-157176380D02*
X177141238Y-157224000D01*
X177188857Y-157271619D01*
X177236476Y-157224000D01*
X177188857Y-157176380D01*
X177188857Y-157271619D01*
X177665047Y-157509714D02*
X177665047Y-158176380D01*
X177665047Y-157604952D02*
X177712666Y-157557333D01*
X177807904Y-157509714D01*
X177950761Y-157509714D01*
X178046000Y-157557333D01*
X178093619Y-157652571D01*
X178093619Y-158176380D01*
X178998380Y-157509714D02*
X178998380Y-158319238D01*
X178950761Y-158414476D01*
X178903142Y-158462095D01*
X178807904Y-158509714D01*
X178665047Y-158509714D01*
X178569809Y-158462095D01*
X178998380Y-158128761D02*
X178903142Y-158176380D01*
X178712666Y-158176380D01*
X178617428Y-158128761D01*
X178569809Y-158081142D01*
X178522190Y-157985904D01*
X178522190Y-157700190D01*
X178569809Y-157604952D01*
X178617428Y-157557333D01*
X178712666Y-157509714D01*
X178903142Y-157509714D01*
X178998380Y-157557333D01*
X179474571Y-158176380D02*
X179474571Y-157176380D01*
X179474571Y-157652571D02*
X180046000Y-157652571D01*
X180046000Y-158176380D02*
X180046000Y-157176380D01*
X180665047Y-158176380D02*
X180569809Y-158128761D01*
X180522190Y-158081142D01*
X180474571Y-157985904D01*
X180474571Y-157700190D01*
X180522190Y-157604952D01*
X180569809Y-157557333D01*
X180665047Y-157509714D01*
X180807904Y-157509714D01*
X180903142Y-157557333D01*
X180950761Y-157604952D01*
X180998380Y-157700190D01*
X180998380Y-157985904D01*
X180950761Y-158081142D01*
X180903142Y-158128761D01*
X180807904Y-158176380D01*
X180665047Y-158176380D01*
X181569809Y-158176380D02*
X181474571Y-158128761D01*
X181426952Y-158033523D01*
X181426952Y-157176380D01*
X182331714Y-158128761D02*
X182236476Y-158176380D01*
X182046000Y-158176380D01*
X181950761Y-158128761D01*
X181903142Y-158033523D01*
X181903142Y-157652571D01*
X181950761Y-157557333D01*
X182046000Y-157509714D01*
X182236476Y-157509714D01*
X182331714Y-157557333D01*
X182379333Y-157652571D01*
X182379333Y-157747809D01*
X181903142Y-157843047D01*
X176784095Y-154376380D02*
X176784095Y-153376380D01*
X176784095Y-153852571D02*
X177355523Y-153852571D01*
X177355523Y-154376380D02*
X177355523Y-153376380D01*
X177879333Y-154376380D02*
X178069809Y-154376380D01*
X178165047Y-154328761D01*
X178212666Y-154281142D01*
X178307904Y-154138285D01*
X178355523Y-153947809D01*
X178355523Y-153566857D01*
X178307904Y-153471619D01*
X178260285Y-153424000D01*
X178165047Y-153376380D01*
X177974571Y-153376380D01*
X177879333Y-153424000D01*
X177831714Y-153471619D01*
X177784095Y-153566857D01*
X177784095Y-153804952D01*
X177831714Y-153900190D01*
X177879333Y-153947809D01*
X177974571Y-153995428D01*
X178165047Y-153995428D01*
X178260285Y-153947809D01*
X178307904Y-153900190D01*
X178355523Y-153804952D01*
X46713142Y-141371142D02*
X46665523Y-141418761D01*
X46522666Y-141466380D01*
X46427428Y-141466380D01*
X46284571Y-141418761D01*
X46189333Y-141323523D01*
X46141714Y-141228285D01*
X46094095Y-141037809D01*
X46094095Y-140894952D01*
X46141714Y-140704476D01*
X46189333Y-140609238D01*
X46284571Y-140514000D01*
X46427428Y-140466380D01*
X46522666Y-140466380D01*
X46665523Y-140514000D01*
X46713142Y-140561619D01*
X47284571Y-141466380D02*
X47189333Y-141418761D01*
X47141714Y-141371142D01*
X47094095Y-141275904D01*
X47094095Y-140990190D01*
X47141714Y-140894952D01*
X47189333Y-140847333D01*
X47284571Y-140799714D01*
X47427428Y-140799714D01*
X47522666Y-140847333D01*
X47570285Y-140894952D01*
X47617904Y-140990190D01*
X47617904Y-141275904D01*
X47570285Y-141371142D01*
X47522666Y-141418761D01*
X47427428Y-141466380D01*
X47284571Y-141466380D01*
X48046476Y-140799714D02*
X48046476Y-141466380D01*
X48046476Y-140894952D02*
X48094095Y-140847333D01*
X48189333Y-140799714D01*
X48332190Y-140799714D01*
X48427428Y-140847333D01*
X48475047Y-140942571D01*
X48475047Y-141466380D01*
X48951238Y-140799714D02*
X48951238Y-141466380D01*
X48951238Y-140894952D02*
X48998857Y-140847333D01*
X49094095Y-140799714D01*
X49236952Y-140799714D01*
X49332190Y-140847333D01*
X49379809Y-140942571D01*
X49379809Y-141466380D01*
X49617904Y-141561619D02*
X50379809Y-141561619D01*
X50808380Y-140466380D02*
X50903619Y-140466380D01*
X50998857Y-140514000D01*
X51046476Y-140561619D01*
X51094095Y-140656857D01*
X51141714Y-140847333D01*
X51141714Y-141085428D01*
X51094095Y-141275904D01*
X51046476Y-141371142D01*
X50998857Y-141418761D01*
X50903619Y-141466380D01*
X50808380Y-141466380D01*
X50713142Y-141418761D01*
X50665523Y-141371142D01*
X50617904Y-141275904D01*
X50570285Y-141085428D01*
X50570285Y-140847333D01*
X50617904Y-140656857D01*
X50665523Y-140561619D01*
X50713142Y-140514000D01*
X50808380Y-140466380D01*
X51522666Y-140561619D02*
X51570285Y-140514000D01*
X51665523Y-140466380D01*
X51903619Y-140466380D01*
X51998857Y-140514000D01*
X52046476Y-140561619D01*
X52094095Y-140656857D01*
X52094095Y-140752095D01*
X52046476Y-140894952D01*
X51475047Y-141466380D01*
X52094095Y-141466380D01*
X52427428Y-141466380D02*
X52951238Y-140799714D01*
X52427428Y-140799714D02*
X52951238Y-141466380D01*
X53856000Y-141466380D02*
X53284571Y-141466380D01*
X53570285Y-141466380D02*
X53570285Y-140466380D01*
X53475047Y-140609238D01*
X53379809Y-140704476D01*
X53284571Y-140752095D01*
X54236952Y-140561619D02*
X54284571Y-140514000D01*
X54379809Y-140466380D01*
X54617904Y-140466380D01*
X54713142Y-140514000D01*
X54760761Y-140561619D01*
X54808380Y-140656857D01*
X54808380Y-140752095D01*
X54760761Y-140894952D01*
X54189333Y-141466380D01*
X54808380Y-141466380D01*
X54998857Y-141561619D02*
X55760761Y-141561619D01*
X56189333Y-140466380D02*
X56379809Y-140466380D01*
X56475047Y-140514000D01*
X56570285Y-140609238D01*
X56617904Y-140799714D01*
X56617904Y-141133047D01*
X56570285Y-141323523D01*
X56475047Y-141418761D01*
X56379809Y-141466380D01*
X56189333Y-141466380D01*
X56094095Y-141418761D01*
X55998857Y-141323523D01*
X55951238Y-141133047D01*
X55951238Y-140799714D01*
X55998857Y-140609238D01*
X56094095Y-140514000D01*
X56189333Y-140466380D01*
X57475047Y-141466380D02*
X57475047Y-140466380D01*
X57475047Y-141418761D02*
X57379809Y-141466380D01*
X57189333Y-141466380D01*
X57094095Y-141418761D01*
X57046476Y-141371142D01*
X56998857Y-141275904D01*
X56998857Y-140990190D01*
X57046476Y-140894952D01*
X57094095Y-140847333D01*
X57189333Y-140799714D01*
X57379809Y-140799714D01*
X57475047Y-140847333D01*
X58379809Y-141466380D02*
X58379809Y-140466380D01*
X58379809Y-141418761D02*
X58284571Y-141466380D01*
X58094095Y-141466380D01*
X57998857Y-141418761D01*
X57951238Y-141371142D01*
X57903619Y-141275904D01*
X57903619Y-140990190D01*
X57951238Y-140894952D01*
X57998857Y-140847333D01*
X58094095Y-140799714D01*
X58284571Y-140799714D01*
X58379809Y-140847333D01*
X58617904Y-141561619D02*
X59379809Y-141561619D01*
X59617904Y-140942571D02*
X59951238Y-140942571D01*
X60094095Y-141466380D02*
X59617904Y-141466380D01*
X59617904Y-140466380D01*
X60094095Y-140466380D01*
X60427428Y-140799714D02*
X60665523Y-141466380D01*
X60903619Y-140799714D01*
X61665523Y-141418761D02*
X61570285Y-141466380D01*
X61379809Y-141466380D01*
X61284571Y-141418761D01*
X61236952Y-141323523D01*
X61236952Y-140942571D01*
X61284571Y-140847333D01*
X61379809Y-140799714D01*
X61570285Y-140799714D01*
X61665523Y-140847333D01*
X61713142Y-140942571D01*
X61713142Y-141037809D01*
X61236952Y-141133047D01*
X62141714Y-140799714D02*
X62141714Y-141466380D01*
X62141714Y-140894952D02*
X62189333Y-140847333D01*
X62284571Y-140799714D01*
X62427428Y-140799714D01*
X62522666Y-140847333D01*
X62570285Y-140942571D01*
X62570285Y-141466380D01*
X53808380Y-125999714D02*
X54522666Y-125999714D01*
X54665523Y-126047333D01*
X54760761Y-126142571D01*
X54808380Y-126285428D01*
X54808380Y-126380666D01*
X53808380Y-125618761D02*
X53808380Y-124999714D01*
X54189333Y-125333047D01*
X54189333Y-125190190D01*
X54236952Y-125094952D01*
X54284571Y-125047333D01*
X54379809Y-124999714D01*
X54617904Y-124999714D01*
X54713142Y-125047333D01*
X54760761Y-125094952D01*
X54808380Y-125190190D01*
X54808380Y-125475904D01*
X54760761Y-125571142D01*
X54713142Y-125618761D01*
X53808380Y-124380666D02*
X53808380Y-124285428D01*
X53856000Y-124190190D01*
X53903619Y-124142571D01*
X53998857Y-124094952D01*
X54189333Y-124047333D01*
X54427428Y-124047333D01*
X54617904Y-124094952D01*
X54713142Y-124142571D01*
X54760761Y-124190190D01*
X54808380Y-124285428D01*
X54808380Y-124380666D01*
X54760761Y-124475904D01*
X54713142Y-124523523D01*
X54617904Y-124571142D01*
X54427428Y-124618761D01*
X54189333Y-124618761D01*
X53998857Y-124571142D01*
X53903619Y-124523523D01*
X53856000Y-124475904D01*
X53808380Y-124380666D01*
X54808380Y-123094952D02*
X54808380Y-123666380D01*
X54808380Y-123380666D02*
X53808380Y-123380666D01*
X53951238Y-123475904D01*
X54046476Y-123571142D01*
X54094095Y-123666380D01*
X209101142Y-56133190D02*
X209148761Y-56180809D01*
X209196380Y-56323666D01*
X209196380Y-56418904D01*
X209148761Y-56561761D01*
X209053523Y-56657000D01*
X208958285Y-56704619D01*
X208767809Y-56752238D01*
X208624952Y-56752238D01*
X208434476Y-56704619D01*
X208339238Y-56657000D01*
X208244000Y-56561761D01*
X208196380Y-56418904D01*
X208196380Y-56323666D01*
X208244000Y-56180809D01*
X208291619Y-56133190D01*
X209196380Y-55704619D02*
X208196380Y-55704619D01*
X209196380Y-55276047D02*
X208672571Y-55276047D01*
X208577333Y-55323666D01*
X208529714Y-55418904D01*
X208529714Y-55561761D01*
X208577333Y-55657000D01*
X208624952Y-55704619D01*
X209196380Y-54799857D02*
X208529714Y-54799857D01*
X208720190Y-54799857D02*
X208624952Y-54752238D01*
X208577333Y-54704619D01*
X208529714Y-54609380D01*
X208529714Y-54514142D01*
X209196380Y-54037952D02*
X209148761Y-54133190D01*
X209101142Y-54180809D01*
X209005904Y-54228428D01*
X208720190Y-54228428D01*
X208624952Y-54180809D01*
X208577333Y-54133190D01*
X208529714Y-54037952D01*
X208529714Y-53895095D01*
X208577333Y-53799857D01*
X208624952Y-53752238D01*
X208720190Y-53704619D01*
X209005904Y-53704619D01*
X209101142Y-53752238D01*
X209148761Y-53799857D01*
X209196380Y-53895095D01*
X209196380Y-54037952D01*
X209196380Y-53276047D02*
X208529714Y-53276047D01*
X208624952Y-53276047D02*
X208577333Y-53228428D01*
X208529714Y-53133190D01*
X208529714Y-52990333D01*
X208577333Y-52895095D01*
X208672571Y-52847476D01*
X209196380Y-52847476D01*
X208672571Y-52847476D02*
X208577333Y-52799857D01*
X208529714Y-52704619D01*
X208529714Y-52561761D01*
X208577333Y-52466523D01*
X208672571Y-52418904D01*
X209196380Y-52418904D01*
X209196380Y-51514142D02*
X208672571Y-51514142D01*
X208577333Y-51561761D01*
X208529714Y-51657000D01*
X208529714Y-51847476D01*
X208577333Y-51942714D01*
X209148761Y-51514142D02*
X209196380Y-51609380D01*
X209196380Y-51847476D01*
X209148761Y-51942714D01*
X209053523Y-51990333D01*
X208958285Y-51990333D01*
X208863047Y-51942714D01*
X208815428Y-51847476D01*
X208815428Y-51609380D01*
X208767809Y-51514142D01*
X209196380Y-50276047D02*
X208196380Y-50276047D01*
X208196380Y-50037952D01*
X208244000Y-49895095D01*
X208339238Y-49799857D01*
X208434476Y-49752238D01*
X208624952Y-49704619D01*
X208767809Y-49704619D01*
X208958285Y-49752238D01*
X209053523Y-49799857D01*
X209148761Y-49895095D01*
X209196380Y-50037952D01*
X209196380Y-50276047D01*
X209196380Y-49276047D02*
X208529714Y-49276047D01*
X208196380Y-49276047D02*
X208244000Y-49323666D01*
X208291619Y-49276047D01*
X208244000Y-49228428D01*
X208196380Y-49276047D01*
X208291619Y-49276047D01*
X209148761Y-48847476D02*
X209196380Y-48752238D01*
X209196380Y-48561761D01*
X209148761Y-48466523D01*
X209053523Y-48418904D01*
X209005904Y-48418904D01*
X208910666Y-48466523D01*
X208863047Y-48561761D01*
X208863047Y-48704619D01*
X208815428Y-48799857D01*
X208720190Y-48847476D01*
X208672571Y-48847476D01*
X208577333Y-48799857D01*
X208529714Y-48704619D01*
X208529714Y-48561761D01*
X208577333Y-48466523D01*
X209148761Y-47561761D02*
X209196380Y-47657000D01*
X209196380Y-47847476D01*
X209148761Y-47942714D01*
X209101142Y-47990333D01*
X209005904Y-48037952D01*
X208720190Y-48037952D01*
X208624952Y-47990333D01*
X208577333Y-47942714D01*
X208529714Y-47847476D01*
X208529714Y-47657000D01*
X208577333Y-47561761D01*
X209196380Y-46990333D02*
X209148761Y-47085571D01*
X209101142Y-47133190D01*
X209005904Y-47180809D01*
X208720190Y-47180809D01*
X208624952Y-47133190D01*
X208577333Y-47085571D01*
X208529714Y-46990333D01*
X208529714Y-46847476D01*
X208577333Y-46752238D01*
X208624952Y-46704619D01*
X208720190Y-46657000D01*
X209005904Y-46657000D01*
X209101142Y-46704619D01*
X209148761Y-46752238D01*
X209196380Y-46847476D01*
X209196380Y-46990333D01*
X208529714Y-46228428D02*
X209196380Y-46228428D01*
X208624952Y-46228428D02*
X208577333Y-46180809D01*
X208529714Y-46085571D01*
X208529714Y-45942714D01*
X208577333Y-45847476D01*
X208672571Y-45799857D01*
X209196380Y-45799857D01*
X208529714Y-45323666D02*
X209196380Y-45323666D01*
X208624952Y-45323666D02*
X208577333Y-45276047D01*
X208529714Y-45180809D01*
X208529714Y-45037952D01*
X208577333Y-44942714D01*
X208672571Y-44895095D01*
X209196380Y-44895095D01*
X209148761Y-44037952D02*
X209196380Y-44133190D01*
X209196380Y-44323666D01*
X209148761Y-44418904D01*
X209053523Y-44466523D01*
X208672571Y-44466523D01*
X208577333Y-44418904D01*
X208529714Y-44323666D01*
X208529714Y-44133190D01*
X208577333Y-44037952D01*
X208672571Y-43990333D01*
X208767809Y-43990333D01*
X208863047Y-44466523D01*
X209148761Y-43133190D02*
X209196380Y-43228428D01*
X209196380Y-43418904D01*
X209148761Y-43514142D01*
X209101142Y-43561761D01*
X209005904Y-43609380D01*
X208720190Y-43609380D01*
X208624952Y-43561761D01*
X208577333Y-43514142D01*
X208529714Y-43418904D01*
X208529714Y-43228428D01*
X208577333Y-43133190D01*
X208529714Y-42847476D02*
X208529714Y-42466523D01*
X208196380Y-42704619D02*
X209053523Y-42704619D01*
X209148761Y-42657000D01*
X209196380Y-42561761D01*
X209196380Y-42466523D01*
X209788285Y-49109380D02*
X209788285Y-49823666D01*
X209740666Y-49966523D01*
X209645428Y-50061761D01*
X209502571Y-50109380D01*
X209407333Y-50109380D01*
X210216857Y-49204619D02*
X210264476Y-49157000D01*
X210359714Y-49109380D01*
X210597809Y-49109380D01*
X210693047Y-49157000D01*
X210740666Y-49204619D01*
X210788285Y-49299857D01*
X210788285Y-49395095D01*
X210740666Y-49537952D01*
X210169238Y-50109380D01*
X210788285Y-50109380D01*
X211407333Y-49109380D02*
X211502571Y-49109380D01*
X211597809Y-49157000D01*
X211645428Y-49204619D01*
X211693047Y-49299857D01*
X211740666Y-49490333D01*
X211740666Y-49728428D01*
X211693047Y-49918904D01*
X211645428Y-50014142D01*
X211597809Y-50061761D01*
X211502571Y-50109380D01*
X211407333Y-50109380D01*
X211312095Y-50061761D01*
X211264476Y-50014142D01*
X211216857Y-49918904D01*
X211169238Y-49728428D01*
X211169238Y-49490333D01*
X211216857Y-49299857D01*
X211264476Y-49204619D01*
X211312095Y-49157000D01*
X211407333Y-49109380D01*
X212693047Y-50109380D02*
X212121619Y-50109380D01*
X212407333Y-50109380D02*
X212407333Y-49109380D01*
X212312095Y-49252238D01*
X212216857Y-49347476D01*
X212121619Y-49395095D01*
X205219380Y-50776047D02*
X204743190Y-51109380D01*
X205219380Y-51347476D02*
X204219380Y-51347476D01*
X204219380Y-50966523D01*
X204267000Y-50871285D01*
X204314619Y-50823666D01*
X204409857Y-50776047D01*
X204552714Y-50776047D01*
X204647952Y-50823666D01*
X204695571Y-50871285D01*
X204743190Y-50966523D01*
X204743190Y-51347476D01*
X204314619Y-50395095D02*
X204267000Y-50347476D01*
X204219380Y-50252238D01*
X204219380Y-50014142D01*
X204267000Y-49918904D01*
X204314619Y-49871285D01*
X204409857Y-49823666D01*
X204505095Y-49823666D01*
X204647952Y-49871285D01*
X205219380Y-50442714D01*
X205219380Y-49823666D01*
X204219380Y-49204619D02*
X204219380Y-49109380D01*
X204267000Y-49014142D01*
X204314619Y-48966523D01*
X204409857Y-48918904D01*
X204600333Y-48871285D01*
X204838428Y-48871285D01*
X205028904Y-48918904D01*
X205124142Y-48966523D01*
X205171761Y-49014142D01*
X205219380Y-49109380D01*
X205219380Y-49204619D01*
X205171761Y-49299857D01*
X205124142Y-49347476D01*
X205028904Y-49395095D01*
X204838428Y-49442714D01*
X204600333Y-49442714D01*
X204409857Y-49395095D01*
X204314619Y-49347476D01*
X204267000Y-49299857D01*
X204219380Y-49204619D01*
X205219380Y-47918904D02*
X205219380Y-48490333D01*
X205219380Y-48204619D02*
X204219380Y-48204619D01*
X204362238Y-48299857D01*
X204457476Y-48395095D01*
X204505095Y-48490333D01*
X273062428Y-66526619D02*
X273110047Y-66479000D01*
X273205285Y-66431380D01*
X273443380Y-66431380D01*
X273538619Y-66479000D01*
X273586238Y-66526619D01*
X273633857Y-66621857D01*
X273633857Y-66717095D01*
X273586238Y-66859952D01*
X273014809Y-67431380D01*
X273633857Y-67431380D01*
X274062428Y-67336142D02*
X274110047Y-67383761D01*
X274062428Y-67431380D01*
X274014809Y-67383761D01*
X274062428Y-67336142D01*
X274062428Y-67431380D01*
X275014809Y-66431380D02*
X274538619Y-66431380D01*
X274491000Y-66907571D01*
X274538619Y-66859952D01*
X274633857Y-66812333D01*
X274871952Y-66812333D01*
X274967190Y-66859952D01*
X275014809Y-66907571D01*
X275062428Y-67002809D01*
X275062428Y-67240904D01*
X275014809Y-67336142D01*
X274967190Y-67383761D01*
X274871952Y-67431380D01*
X274633857Y-67431380D01*
X274538619Y-67383761D01*
X274491000Y-67336142D01*
X275443380Y-67145666D02*
X275919571Y-67145666D01*
X275348142Y-67431380D02*
X275681476Y-66431380D01*
X276014809Y-67431380D01*
X108974095Y-87463380D02*
X108974095Y-88272904D01*
X109021714Y-88368142D01*
X109069333Y-88415761D01*
X109164571Y-88463380D01*
X109355047Y-88463380D01*
X109450285Y-88415761D01*
X109497904Y-88368142D01*
X109545523Y-88272904D01*
X109545523Y-87463380D01*
X110355047Y-87939571D02*
X110497904Y-87987190D01*
X110545523Y-88034809D01*
X110593142Y-88130047D01*
X110593142Y-88272904D01*
X110545523Y-88368142D01*
X110497904Y-88415761D01*
X110402666Y-88463380D01*
X110021714Y-88463380D01*
X110021714Y-87463380D01*
X110355047Y-87463380D01*
X110450285Y-87511000D01*
X110497904Y-87558619D01*
X110545523Y-87653857D01*
X110545523Y-87749095D01*
X110497904Y-87844333D01*
X110450285Y-87891952D01*
X110355047Y-87939571D01*
X110021714Y-87939571D01*
X111450285Y-87796714D02*
X111450285Y-88463380D01*
X111212190Y-87415761D02*
X110974095Y-88130047D01*
X111593142Y-88130047D01*
X176618095Y-132421380D02*
X176618095Y-133230904D01*
X176665714Y-133326142D01*
X176713333Y-133373761D01*
X176808571Y-133421380D01*
X176999047Y-133421380D01*
X177094285Y-133373761D01*
X177141904Y-133326142D01*
X177189523Y-133230904D01*
X177189523Y-132421380D01*
X178237142Y-133326142D02*
X178189523Y-133373761D01*
X178046666Y-133421380D01*
X177951428Y-133421380D01*
X177808571Y-133373761D01*
X177713333Y-133278523D01*
X177665714Y-133183285D01*
X177618095Y-132992809D01*
X177618095Y-132849952D01*
X177665714Y-132659476D01*
X177713333Y-132564238D01*
X177808571Y-132469000D01*
X177951428Y-132421380D01*
X178046666Y-132421380D01*
X178189523Y-132469000D01*
X178237142Y-132516619D01*
X178618095Y-132516619D02*
X178665714Y-132469000D01*
X178760952Y-132421380D01*
X178999047Y-132421380D01*
X179094285Y-132469000D01*
X179141904Y-132516619D01*
X179189523Y-132611857D01*
X179189523Y-132707095D01*
X179141904Y-132849952D01*
X178570476Y-133421380D01*
X179189523Y-133421380D01*
D11*
X214937142Y-49817380D02*
X214978095Y-49858333D01*
X215019047Y-49981190D01*
X215019047Y-50063095D01*
X214978095Y-50185952D01*
X214896190Y-50267857D01*
X214814285Y-50308809D01*
X214650476Y-50349761D01*
X214527619Y-50349761D01*
X214363809Y-50308809D01*
X214281904Y-50267857D01*
X214200000Y-50185952D01*
X214159047Y-50063095D01*
X214159047Y-49981190D01*
X214200000Y-49858333D01*
X214240952Y-49817380D01*
X214240952Y-49489761D02*
X214200000Y-49448809D01*
X214159047Y-49366904D01*
X214159047Y-49162142D01*
X214200000Y-49080238D01*
X214240952Y-49039285D01*
X214322857Y-48998333D01*
X214404761Y-48998333D01*
X214527619Y-49039285D01*
X215019047Y-49530714D01*
X215019047Y-48998333D01*
X214159047Y-48465952D02*
X214159047Y-48384047D01*
X214200000Y-48302142D01*
X214240952Y-48261190D01*
X214322857Y-48220238D01*
X214486666Y-48179285D01*
X214691428Y-48179285D01*
X214855238Y-48220238D01*
X214937142Y-48261190D01*
X214978095Y-48302142D01*
X215019047Y-48384047D01*
X215019047Y-48465952D01*
X214978095Y-48547857D01*
X214937142Y-48588809D01*
X214855238Y-48629761D01*
X214691428Y-48670714D01*
X214486666Y-48670714D01*
X214322857Y-48629761D01*
X214240952Y-48588809D01*
X214200000Y-48547857D01*
X214159047Y-48465952D01*
X215019047Y-47360238D02*
X215019047Y-47851666D01*
X215019047Y-47605952D02*
X214159047Y-47605952D01*
X214281904Y-47687857D01*
X214363809Y-47769761D01*
X214404761Y-47851666D01*
D10*
X131370285Y-42778761D02*
X131513142Y-42826380D01*
X131751238Y-42826380D01*
X131846476Y-42778761D01*
X131894095Y-42731142D01*
X131941714Y-42635904D01*
X131941714Y-42540666D01*
X131894095Y-42445428D01*
X131846476Y-42397809D01*
X131751238Y-42350190D01*
X131560761Y-42302571D01*
X131465523Y-42254952D01*
X131417904Y-42207333D01*
X131370285Y-42112095D01*
X131370285Y-42016857D01*
X131417904Y-41921619D01*
X131465523Y-41874000D01*
X131560761Y-41826380D01*
X131798857Y-41826380D01*
X131941714Y-41874000D01*
X132227428Y-41826380D02*
X132560761Y-42826380D01*
X132894095Y-41826380D01*
X133227428Y-42826380D02*
X133227428Y-41826380D01*
X133703619Y-42826380D02*
X133703619Y-41826380D01*
X133941714Y-41826380D01*
X134084571Y-41874000D01*
X134179809Y-41969238D01*
X134227428Y-42064476D01*
X134275047Y-42254952D01*
X134275047Y-42397809D01*
X134227428Y-42588285D01*
X134179809Y-42683523D01*
X134084571Y-42778761D01*
X133941714Y-42826380D01*
X133703619Y-42826380D01*
X134465523Y-42921619D02*
X135227428Y-42921619D01*
X135465523Y-42302571D02*
X135798857Y-42302571D01*
X135941714Y-42826380D02*
X135465523Y-42826380D01*
X135465523Y-41826380D01*
X135941714Y-41826380D01*
X133108380Y-48529714D02*
X133822666Y-48529714D01*
X133965523Y-48577333D01*
X134060761Y-48672571D01*
X134108380Y-48815428D01*
X134108380Y-48910666D01*
X133203619Y-48101142D02*
X133156000Y-48053523D01*
X133108380Y-47958285D01*
X133108380Y-47720190D01*
X133156000Y-47624952D01*
X133203619Y-47577333D01*
X133298857Y-47529714D01*
X133394095Y-47529714D01*
X133536952Y-47577333D01*
X134108380Y-48148761D01*
X134108380Y-47529714D01*
X133108380Y-46910666D02*
X133108380Y-46815428D01*
X133156000Y-46720190D01*
X133203619Y-46672571D01*
X133298857Y-46624952D01*
X133489333Y-46577333D01*
X133727428Y-46577333D01*
X133917904Y-46624952D01*
X134013142Y-46672571D01*
X134060761Y-46720190D01*
X134108380Y-46815428D01*
X134108380Y-46910666D01*
X134060761Y-47005904D01*
X134013142Y-47053523D01*
X133917904Y-47101142D01*
X133727428Y-47148761D01*
X133489333Y-47148761D01*
X133298857Y-47101142D01*
X133203619Y-47053523D01*
X133156000Y-47005904D01*
X133108380Y-46910666D01*
X133203619Y-46196380D02*
X133156000Y-46148761D01*
X133108380Y-46053523D01*
X133108380Y-45815428D01*
X133156000Y-45720190D01*
X133203619Y-45672571D01*
X133298857Y-45624952D01*
X133394095Y-45624952D01*
X133536952Y-45672571D01*
X134108380Y-46244000D01*
X134108380Y-45624952D01*
D13*
X219263000Y-72421000D02*
X219263000Y-68121000D01*
X217363000Y-68121000D02*
X217363000Y-72421000D01*
X219263000Y-68121000D02*
X217363000Y-68121000D01*
X217363000Y-72421000D02*
X219263000Y-72421000D01*
X178506500Y-46360395D02*
X178506500Y-46860395D01*
X178756500Y-46610395D02*
X178256500Y-46610395D01*
X179919000Y-48494000D02*
G75*
G03*
X179919000Y-48494000I-2500000J0D01*
G01*
X222629605Y-49257500D02*
X222629605Y-48757500D01*
X222879605Y-49007500D02*
X222379605Y-49007500D01*
X223246000Y-47920000D02*
G75*
G03*
X223246000Y-47920000I-2500000J0D01*
G01*
X199614605Y-49474500D02*
X199114605Y-49474500D01*
X199364605Y-49724500D02*
X199364605Y-49224500D01*
X199981000Y-48387000D02*
G75*
G03*
X199981000Y-48387000I-2500000J0D01*
G01*
X207723000Y-79441000D02*
X203423000Y-79441000D01*
X203423000Y-81341000D02*
X207723000Y-81341000D01*
X203423000Y-79441000D02*
X203423000Y-81341000D01*
X207723000Y-81341000D02*
X207723000Y-79441000D01*
X150319000Y-56962000D02*
X146019000Y-56962000D01*
X146019000Y-58862000D02*
X150319000Y-58862000D01*
X150319000Y-58862000D02*
X150319000Y-56962000D01*
X146019000Y-56962000D02*
X146019000Y-58862000D01*
X201881000Y-61656000D02*
X201881000Y-59756000D01*
X197581000Y-61656000D02*
X201881000Y-61656000D01*
X197581000Y-59756000D02*
X197581000Y-61656000D01*
X201881000Y-59756000D02*
X197581000Y-59756000D01*
X178286500Y-58102446D02*
X178286500Y-58502446D01*
X178486500Y-58302446D02*
X178086500Y-58302446D01*
X179419000Y-59805000D02*
G75*
G03*
X179419000Y-59805000I-2000000J0D01*
G01*
X170119000Y-61118000D02*
X172019000Y-61118000D01*
X170119000Y-56818000D02*
X170119000Y-61118000D01*
X172019000Y-61118000D02*
X172019000Y-56818000D01*
X172019000Y-56818000D02*
X170119000Y-56818000D01*
X175777395Y-53395500D02*
X176277395Y-53395500D01*
X176027395Y-53145500D02*
X176027395Y-53645500D01*
X180411000Y-54483000D02*
G75*
G03*
X180411000Y-54483000I-2500000J0D01*
G01*
X108714000Y-121097000D02*
X108714000Y-122997000D01*
X113014000Y-122997000D02*
X113014000Y-121097000D01*
X113014000Y-121097000D02*
X108714000Y-121097000D01*
X108714000Y-122997000D02*
X113014000Y-122997000D01*
X283836000Y-91506000D02*
X279536000Y-91506000D01*
X279536000Y-91506000D02*
X279536000Y-93406000D01*
X279536000Y-93406000D02*
X283836000Y-93406000D01*
X283836000Y-93406000D02*
X283836000Y-91506000D01*
X279576000Y-95824000D02*
X279576000Y-97724000D01*
X283876000Y-97724000D02*
X283876000Y-95824000D01*
X279576000Y-97724000D02*
X283876000Y-97724000D01*
X283876000Y-95824000D02*
X279576000Y-95824000D01*
X142017000Y-121224000D02*
X137717000Y-121224000D01*
X137717000Y-121224000D02*
X137717000Y-123124000D01*
X142017000Y-123124000D02*
X142017000Y-121224000D01*
X137717000Y-123124000D02*
X142017000Y-123124000D01*
X123319000Y-122997000D02*
X127619000Y-122997000D01*
X127619000Y-121097000D02*
X123319000Y-121097000D01*
X127619000Y-122997000D02*
X127619000Y-121097000D01*
X123319000Y-121097000D02*
X123319000Y-122997000D01*
X73136000Y-121097000D02*
X68836000Y-121097000D01*
X73136000Y-122997000D02*
X73136000Y-121097000D01*
X68836000Y-122997000D02*
X73136000Y-122997000D01*
X68836000Y-121097000D02*
X68836000Y-122997000D01*
X127666000Y-98994000D02*
X127666000Y-97094000D01*
X123366000Y-97094000D02*
X123366000Y-98994000D01*
X127666000Y-97094000D02*
X123366000Y-97094000D01*
X123366000Y-98994000D02*
X127666000Y-98994000D01*
X156386000Y-121019000D02*
X156386000Y-122919000D01*
X156386000Y-122919000D02*
X160686000Y-122919000D01*
X160686000Y-121019000D02*
X156386000Y-121019000D01*
X160686000Y-122919000D02*
X160686000Y-121019000D01*
X250776000Y-94173000D02*
X246476000Y-94173000D01*
X246476000Y-96073000D02*
X250776000Y-96073000D01*
X246476000Y-94173000D02*
X246476000Y-96073000D01*
X250776000Y-96073000D02*
X250776000Y-94173000D01*
X88488000Y-42865000D02*
X88488000Y-44765000D01*
X92788000Y-44765000D02*
X92788000Y-42865000D01*
X88488000Y-44765000D02*
X92788000Y-44765000D01*
X92788000Y-42865000D02*
X88488000Y-42865000D01*
X65882000Y-42865000D02*
X65882000Y-44765000D01*
X70182000Y-42865000D02*
X65882000Y-42865000D01*
X70182000Y-44765000D02*
X70182000Y-42865000D01*
X65882000Y-44765000D02*
X70182000Y-44765000D01*
X112600000Y-62926000D02*
X112600000Y-61026000D01*
X112600000Y-61026000D02*
X108300000Y-61026000D01*
X108300000Y-61026000D02*
X108300000Y-62926000D01*
X108300000Y-62926000D02*
X112600000Y-62926000D01*
X121463500Y-73161446D02*
X121063500Y-73161446D01*
X121263500Y-72961446D02*
X121263500Y-73361446D01*
X122396000Y-74664000D02*
G75*
G03*
X122396000Y-74664000I-2000000J0D01*
G01*
X90092000Y-121097000D02*
X90092000Y-122997000D01*
X94392000Y-122997000D02*
X94392000Y-121097000D01*
X94392000Y-121097000D02*
X90092000Y-121097000D01*
X90092000Y-122997000D02*
X94392000Y-122997000D01*
X184943000Y-98613000D02*
X184943000Y-96713000D01*
X184943000Y-96713000D02*
X180643000Y-96713000D01*
X180643000Y-98613000D02*
X184943000Y-98613000D01*
X180643000Y-96713000D02*
X180643000Y-98613000D01*
X216074000Y-61174000D02*
G75*
G03*
X216074000Y-61174000I-5000000J0D01*
G01*
X202377000Y-54561000D02*
X204277000Y-54561000D01*
X202377000Y-50261000D02*
X202377000Y-54561000D01*
X204277000Y-50261000D02*
X202377000Y-50261000D01*
X204277000Y-54561000D02*
X204277000Y-50261000D01*
X291211000Y-138303000D02*
X288671000Y-138303000D01*
X292861000Y-138303000D02*
G75*
G03*
X292861000Y-138303000I-1650000J0D01*
G01*
X291211000Y-142494000D02*
X288671000Y-142494000D01*
X292861000Y-142494000D02*
G75*
G03*
X292861000Y-142494000I-1650000J0D01*
G01*
X220450000Y-58588000D02*
X222030000Y-58588000D01*
X229030000Y-60238000D02*
X229030000Y-56938000D01*
X222030000Y-56938000D02*
X222030000Y-60238000D01*
X230610000Y-58588000D02*
X229030000Y-58588000D01*
X222030000Y-60238000D02*
X229030000Y-60238000D01*
X229030000Y-56938000D02*
X222030000Y-56938000D01*
X219583000Y-82931000D02*
X222123000Y-82931000D01*
X221233000Y-82931000D02*
G75*
G03*
X221233000Y-82931000I-1650000J0D01*
G01*
X118746000Y-61143000D02*
X118746000Y-68143000D01*
X120396000Y-69723000D02*
X120396000Y-68143000D01*
X122046000Y-68143000D02*
X122046000Y-61143000D01*
X118746000Y-68143000D02*
X122046000Y-68143000D01*
X120396000Y-59563000D02*
X120396000Y-61143000D01*
X122046000Y-61143000D02*
X118746000Y-61143000D01*
X184023000Y-60960000D02*
X184023000Y-58420000D01*
X185673000Y-60960000D02*
G75*
G03*
X185673000Y-60960000I-1650000J0D01*
G01*
X185547000Y-84201000D02*
X183967000Y-84201000D01*
X183967000Y-82551000D02*
X176967000Y-82551000D01*
X175387000Y-84201000D02*
X176967000Y-84201000D01*
X176967000Y-85851000D02*
X183967000Y-85851000D01*
X176967000Y-82551000D02*
X176967000Y-85851000D01*
X183967000Y-85851000D02*
X183967000Y-82551000D01*
X120396000Y-85344000D02*
X120396000Y-87884000D01*
X122046000Y-85344000D02*
G75*
G03*
X122046000Y-85344000I-1650000J0D01*
G01*
X188016000Y-153544000D02*
X188016000Y-156844000D01*
X196596000Y-155194000D02*
X195016000Y-155194000D01*
X195016000Y-156844000D02*
X195016000Y-153544000D01*
X188016000Y-156844000D02*
X195016000Y-156844000D01*
X186436000Y-155194000D02*
X188016000Y-155194000D01*
X195016000Y-153544000D02*
X188016000Y-153544000D01*
X188016000Y-149099000D02*
X188016000Y-152399000D01*
X196596000Y-150749000D02*
X195016000Y-150749000D01*
X188016000Y-152399000D02*
X195016000Y-152399000D01*
X186436000Y-150749000D02*
X188016000Y-150749000D01*
X195016000Y-152399000D02*
X195016000Y-149099000D01*
X195016000Y-149099000D02*
X188016000Y-149099000D01*
D14*
X83723500Y-23354000D02*
X83723500Y-38854000D01*
X63723500Y-23354000D02*
X83723500Y-23354000D01*
X63723500Y-38854000D02*
X63723500Y-23354000D01*
X83723500Y-38854000D02*
X63723500Y-38854000D01*
D15*
X63059500Y-35948000D02*
G75*
G03*
X63059500Y-35948000I-100000J0D01*
G01*
D13*
X297316000Y-49521500D02*
X297316000Y-40521500D01*
X286316000Y-40521500D02*
X286316000Y-48771500D01*
X287119213Y-49526925D02*
X286316000Y-48771500D01*
X300816000Y-49521500D02*
X300816000Y-40521500D01*
X300816000Y-40521500D02*
X286316000Y-40521500D01*
X287116000Y-49521500D02*
X300816000Y-49521500D01*
X53213000Y-46101000D02*
X53213000Y-96266000D01*
X50673000Y-46101000D02*
X53213000Y-46101000D01*
X53213000Y-96266000D02*
X52578000Y-96901000D01*
X50673000Y-96901000D02*
X50673000Y-46101000D01*
X52578000Y-96901000D02*
X50673000Y-96901000D01*
X162969000Y-48649000D02*
X162969000Y-52149000D01*
X167199000Y-50419000D02*
G75*
G03*
X162965375Y-48665375I-2480000J0D01*
G01*
X162965375Y-52172625D02*
G75*
G03*
X167199000Y-50419000I1753625J1753625D01*
G01*
X264982000Y-96114000D02*
X264982000Y-89814000D01*
X263732000Y-96774000D02*
X263732000Y-96114000D01*
X262482000Y-96114000D02*
X264982000Y-96114000D01*
X263732000Y-89154000D02*
X263732000Y-89814000D01*
X262482000Y-89814000D02*
X262482000Y-96114000D01*
X264982000Y-89814000D02*
X262482000Y-89814000D01*
X267288000Y-89154000D02*
X267288000Y-89814000D01*
X268538000Y-96114000D02*
X268538000Y-89814000D01*
X266038000Y-89814000D02*
X266038000Y-96114000D01*
X267288000Y-96774000D02*
X267288000Y-96114000D01*
X268538000Y-89814000D02*
X266038000Y-89814000D01*
X266038000Y-96114000D02*
X268538000Y-96114000D01*
X272094000Y-96114000D02*
X272094000Y-89814000D01*
X269594000Y-89814000D02*
X269594000Y-96114000D01*
X272094000Y-89814000D02*
X269594000Y-89814000D01*
X269594000Y-96114000D02*
X272094000Y-96114000D01*
X270844000Y-89154000D02*
X270844000Y-89814000D01*
X270844000Y-96774000D02*
X270844000Y-96114000D01*
X228070000Y-46396000D02*
X230610000Y-46396000D01*
X229320000Y-46396000D02*
G75*
G03*
X229320000Y-46396000I-1250000J0D01*
G01*
X228070000Y-49952000D02*
X230610000Y-49952000D01*
X229320000Y-49952000D02*
G75*
G03*
X229320000Y-49952000I-1250000J0D01*
G01*
X234823000Y-56261000D02*
X234823000Y-58801000D01*
X236073000Y-56261000D02*
G75*
G03*
X236073000Y-56261000I-1250000J0D01*
G01*
X155321000Y-61087000D02*
X155321000Y-58547000D01*
X156571000Y-61087000D02*
G75*
G03*
X156571000Y-61087000I-1250000J0D01*
G01*
X188595000Y-60960000D02*
X188595000Y-58420000D01*
X189845000Y-60960000D02*
G75*
G03*
X189845000Y-60960000I-1250000J0D01*
G01*
X162687000Y-61087000D02*
X162687000Y-58547000D01*
X163937000Y-61087000D02*
G75*
G03*
X163937000Y-61087000I-1250000J0D01*
G01*
X159131000Y-61087000D02*
X159131000Y-58547000D01*
X160381000Y-61087000D02*
G75*
G03*
X160381000Y-61087000I-1250000J0D01*
G01*
X273892000Y-96774000D02*
X273892000Y-96114000D01*
X272642000Y-89814000D02*
X272642000Y-96114000D01*
X275142000Y-96114000D02*
X275142000Y-89814000D01*
X273892000Y-89154000D02*
X273892000Y-89814000D01*
X272642000Y-96114000D02*
X275142000Y-96114000D01*
X275142000Y-89814000D02*
X272642000Y-89814000D01*
X174730000Y-148189000D02*
X181030000Y-148189000D01*
X181030000Y-145689000D02*
X174730000Y-145689000D01*
X174070000Y-146939000D02*
X174730000Y-146939000D01*
X181030000Y-148189000D02*
X181030000Y-145689000D01*
X181690000Y-146939000D02*
X181030000Y-146939000D01*
X174730000Y-145689000D02*
X174730000Y-148189000D01*
X106426000Y-47244000D02*
X106426000Y-47904000D01*
X105176000Y-47904000D02*
X105176000Y-54204000D01*
X105176000Y-54204000D02*
X107676000Y-54204000D01*
X106426000Y-54864000D02*
X106426000Y-54204000D01*
X107676000Y-54204000D02*
X107676000Y-47904000D01*
X107676000Y-47904000D02*
X105176000Y-47904000D01*
X284226000Y-145669000D02*
X284226000Y-145009000D01*
X285476000Y-138709000D02*
X282976000Y-138709000D01*
X285476000Y-145009000D02*
X285476000Y-138709000D01*
X282976000Y-145009000D02*
X285476000Y-145009000D01*
X284226000Y-138049000D02*
X284226000Y-138709000D01*
X282976000Y-138709000D02*
X282976000Y-145009000D01*
X131826000Y-59563000D02*
X131826000Y-60223000D01*
X131826000Y-67183000D02*
X131826000Y-66523000D01*
X133076000Y-66523000D02*
X133076000Y-60223000D01*
X130576000Y-66523000D02*
X133076000Y-66523000D01*
X133076000Y-60223000D02*
X130576000Y-60223000D01*
X130576000Y-60223000D02*
X130576000Y-66523000D01*
X127020000Y-66523000D02*
X129520000Y-66523000D01*
X127020000Y-60223000D02*
X127020000Y-66523000D01*
X129520000Y-66523000D02*
X129520000Y-60223000D01*
X128270000Y-67183000D02*
X128270000Y-66523000D01*
X129520000Y-60223000D02*
X127020000Y-60223000D01*
X128270000Y-59563000D02*
X128270000Y-60223000D01*
X125964000Y-66523000D02*
X125964000Y-60223000D01*
X125964000Y-60223000D02*
X123464000Y-60223000D01*
X124714000Y-59563000D02*
X124714000Y-60223000D01*
X124714000Y-67183000D02*
X124714000Y-66523000D01*
X123464000Y-66523000D02*
X125964000Y-66523000D01*
X123464000Y-60223000D02*
X123464000Y-66523000D01*
X147955000Y-54483000D02*
X150495000Y-54483000D01*
X149205000Y-54483000D02*
G75*
G03*
X149205000Y-54483000I-1250000J0D01*
G01*
X234823000Y-80391000D02*
X234823000Y-82931000D01*
X236073000Y-80391000D02*
G75*
G03*
X236073000Y-80391000I-1250000J0D01*
G01*
X114021000Y-151404000D02*
X107721000Y-151404000D01*
X107721000Y-151404000D02*
X107721000Y-153904000D01*
X107061000Y-152654000D02*
X107721000Y-152654000D01*
X107721000Y-153904000D02*
X114021000Y-153904000D01*
X114021000Y-153904000D02*
X114021000Y-151404000D01*
X114681000Y-152654000D02*
X114021000Y-152654000D01*
X147955000Y-46355000D02*
X150495000Y-46355000D01*
X149205000Y-46355000D02*
G75*
G03*
X149205000Y-46355000I-1250000J0D01*
G01*
X101299000Y-124019000D02*
X83519000Y-124019000D01*
X83519000Y-154619000D02*
X101299000Y-154619000D01*
X85044000Y-154559000D02*
X85044000Y-125079000D01*
X99774000Y-124079000D02*
X99774000Y-154559000D01*
X83519000Y-124019000D02*
X83519000Y-154619000D01*
X86044000Y-124079000D02*
X99774000Y-124079000D01*
X101299000Y-154619000D02*
X101299000Y-124019000D01*
X85044000Y-125079000D02*
X86044000Y-124079000D01*
X99774000Y-154559000D02*
X85044000Y-154559000D01*
X62056000Y-124019000D02*
X62056000Y-154619000D01*
X64581000Y-124079000D02*
X78311000Y-124079000D01*
X78311000Y-124079000D02*
X78311000Y-154559000D01*
X63581000Y-154559000D02*
X63581000Y-125079000D01*
X63581000Y-125079000D02*
X64581000Y-124079000D01*
X62056000Y-154619000D02*
X79836000Y-154619000D01*
X79836000Y-154619000D02*
X79836000Y-124019000D01*
X79836000Y-124019000D02*
X62056000Y-124019000D01*
X78311000Y-154559000D02*
X63581000Y-154559000D01*
X78232000Y-46041000D02*
X60452000Y-46041000D01*
X60452000Y-96961000D02*
X78232000Y-96961000D01*
X61977000Y-47101000D02*
X62977000Y-46101000D01*
X76707000Y-96901000D02*
X61977000Y-96901000D01*
X76707000Y-46101000D02*
X76707000Y-96901000D01*
X78232000Y-96961000D02*
X78232000Y-46041000D01*
X60452000Y-46041000D02*
X60452000Y-96961000D01*
X61977000Y-96901000D02*
X61977000Y-47101000D01*
X62977000Y-46101000D02*
X76707000Y-46101000D01*
X81534000Y-46041000D02*
X81534000Y-96961000D01*
X99314000Y-96961000D02*
X99314000Y-46041000D01*
X84059000Y-46101000D02*
X97789000Y-46101000D01*
X97789000Y-46101000D02*
X97789000Y-96901000D01*
X81534000Y-96961000D02*
X99314000Y-96961000D01*
X99314000Y-46041000D02*
X81534000Y-46041000D01*
X97789000Y-96901000D02*
X83059000Y-96901000D01*
X83059000Y-96901000D02*
X83059000Y-47101000D01*
X83059000Y-47101000D02*
X84059000Y-46101000D01*
X115316000Y-73974000D02*
X115316000Y-63694000D01*
X113411000Y-63754000D02*
X113411000Y-73914000D01*
X113411000Y-73914000D02*
X107061000Y-73914000D01*
X105156000Y-73974000D02*
X115316000Y-73974000D01*
X107061000Y-64754000D02*
X108061000Y-63754000D01*
X107061000Y-73914000D02*
X107061000Y-64754000D01*
X115316000Y-63694000D02*
X105156000Y-63694000D01*
X108061000Y-63754000D02*
X113411000Y-63754000D01*
X105156000Y-63694000D02*
X105156000Y-73974000D01*
X199577000Y-63881000D02*
X148657000Y-63881000D01*
X148717000Y-65406000D02*
X198517000Y-65406000D01*
X199517000Y-66406000D02*
X199517000Y-80136000D01*
X148717000Y-80136000D02*
X148717000Y-65406000D01*
X199517000Y-80136000D02*
X148717000Y-80136000D01*
X148657000Y-81661000D02*
X199577000Y-81661000D01*
X148657000Y-63881000D02*
X148657000Y-81661000D01*
X198517000Y-65406000D02*
X199517000Y-66406000D01*
X199577000Y-81661000D02*
X199577000Y-63881000D01*
X223758000Y-61341000D02*
X229108000Y-61341000D01*
X220853000Y-79181000D02*
X231013000Y-79181000D01*
X229108000Y-61341000D02*
X229108000Y-79121000D01*
X220853000Y-61281000D02*
X220853000Y-79181000D01*
X222758000Y-79121000D02*
X222758000Y-62341000D01*
X229108000Y-79121000D02*
X222758000Y-79121000D01*
X231013000Y-61281000D02*
X220853000Y-61281000D01*
X231013000Y-79181000D02*
X231013000Y-61281000D01*
X222758000Y-62341000D02*
X223758000Y-61341000D01*
X251851000Y-97409000D02*
X251851000Y-117729000D01*
X251851000Y-117729000D02*
X245501000Y-117729000D01*
X245501000Y-117729000D02*
X245501000Y-98409000D01*
X253756000Y-97349000D02*
X243596000Y-97349000D01*
X245501000Y-98409000D02*
X246501000Y-97409000D01*
X243596000Y-97349000D02*
X243596000Y-117789000D01*
X253756000Y-117789000D02*
X253756000Y-97349000D01*
X243596000Y-117789000D02*
X253756000Y-117789000D01*
X246501000Y-97409000D02*
X251851000Y-97409000D01*
X150194000Y-124019000D02*
X150194000Y-154619000D01*
X167974000Y-154619000D02*
X167974000Y-124019000D01*
X151719000Y-154559000D02*
X151719000Y-125079000D01*
X152719000Y-124079000D02*
X166449000Y-124079000D01*
X151719000Y-125079000D02*
X152719000Y-124079000D01*
X166449000Y-154559000D02*
X151719000Y-154559000D01*
X166449000Y-124079000D02*
X166449000Y-154559000D01*
X150194000Y-154619000D02*
X167974000Y-154619000D01*
X167974000Y-124019000D02*
X150194000Y-124019000D01*
X235331000Y-97409000D02*
X235331000Y-117729000D01*
X237236000Y-117789000D02*
X237236000Y-97349000D01*
X228981000Y-98409000D02*
X229981000Y-97409000D01*
X237236000Y-97349000D02*
X227076000Y-97349000D01*
X227076000Y-97349000D02*
X227076000Y-117789000D01*
X235331000Y-117729000D02*
X228981000Y-117729000D01*
X229981000Y-97409000D02*
X235331000Y-97409000D01*
X227076000Y-117789000D02*
X237236000Y-117789000D01*
X228981000Y-117729000D02*
X228981000Y-98409000D01*
X169926000Y-117729000D02*
X163576000Y-117729000D01*
X171831000Y-117789000D02*
X171831000Y-92269000D01*
X163576000Y-93329000D02*
X164576000Y-92329000D01*
X163576000Y-117729000D02*
X163576000Y-93329000D01*
X164576000Y-92329000D02*
X169926000Y-92329000D01*
X161671000Y-117789000D02*
X171831000Y-117789000D01*
X169926000Y-92329000D02*
X169926000Y-117729000D01*
X171831000Y-92269000D02*
X161671000Y-92269000D01*
X161671000Y-92269000D02*
X161671000Y-117789000D01*
X262382000Y-103699000D02*
X262382000Y-154619000D01*
X263907000Y-104759000D02*
X264907000Y-103759000D01*
X280162000Y-154619000D02*
X280162000Y-103699000D01*
X263907000Y-154559000D02*
X263907000Y-104759000D01*
X280162000Y-103699000D02*
X262382000Y-103699000D01*
X278637000Y-103759000D02*
X278637000Y-154559000D01*
X262382000Y-154619000D02*
X280162000Y-154619000D01*
X264907000Y-103759000D02*
X278637000Y-103759000D01*
X278637000Y-154559000D02*
X263907000Y-154559000D01*
X205312000Y-129954000D02*
X206312000Y-128954000D01*
X211662000Y-128954000D02*
X211662000Y-154354000D01*
X213567000Y-154414000D02*
X213567000Y-128894000D01*
X203407000Y-154414000D02*
X213567000Y-154414000D01*
X206312000Y-128954000D02*
X211662000Y-128954000D01*
X213567000Y-128894000D02*
X203407000Y-128894000D01*
X211662000Y-154354000D02*
X205312000Y-154354000D01*
X203407000Y-128894000D02*
X203407000Y-154414000D01*
X205312000Y-154354000D02*
X205312000Y-129954000D01*
X212725000Y-117729000D02*
X212725000Y-98409000D01*
X210820000Y-97349000D02*
X210820000Y-117789000D01*
X220980000Y-97349000D02*
X210820000Y-97349000D01*
X212725000Y-98409000D02*
X213725000Y-97409000D01*
X213725000Y-97409000D02*
X219075000Y-97409000D01*
X210820000Y-117789000D02*
X220980000Y-117789000D01*
X219075000Y-97409000D02*
X219075000Y-117729000D01*
X220980000Y-117789000D02*
X220980000Y-97349000D01*
X219075000Y-117729000D02*
X212725000Y-117729000D01*
X128651000Y-117856000D02*
X122301000Y-117856000D01*
X122301000Y-101076000D02*
X123301000Y-100076000D01*
X128651000Y-100076000D02*
X128651000Y-117856000D01*
X120396000Y-117916000D02*
X130556000Y-117916000D01*
X130556000Y-100016000D02*
X120396000Y-100016000D01*
X130556000Y-117916000D02*
X130556000Y-100016000D01*
X120396000Y-100016000D02*
X120396000Y-117916000D01*
X122301000Y-117856000D02*
X122301000Y-101076000D01*
X123301000Y-100076000D02*
X128651000Y-100076000D01*
X115904000Y-124019000D02*
X105744000Y-124019000D01*
X107649000Y-146939000D02*
X107649000Y-125079000D01*
X105744000Y-124019000D02*
X105744000Y-146999000D01*
X108649000Y-124079000D02*
X113999000Y-124079000D01*
X105744000Y-146999000D02*
X115904000Y-146999000D01*
X115904000Y-146999000D02*
X115904000Y-124019000D01*
X107649000Y-125079000D02*
X108649000Y-124079000D01*
X113999000Y-124079000D02*
X113999000Y-146939000D01*
X113999000Y-146939000D02*
X107649000Y-146939000D01*
X137859000Y-124079000D02*
X143209000Y-124079000D01*
X136859000Y-146939000D02*
X136859000Y-125079000D01*
X134954000Y-124019000D02*
X134954000Y-146999000D01*
X145114000Y-124019000D02*
X134954000Y-124019000D01*
X145114000Y-146999000D02*
X145114000Y-124019000D01*
X143209000Y-146939000D02*
X136859000Y-146939000D01*
X143209000Y-124079000D02*
X143209000Y-146939000D01*
X134954000Y-146999000D02*
X145114000Y-146999000D01*
X136859000Y-125079000D02*
X137859000Y-124079000D01*
X128604000Y-146939000D02*
X122254000Y-146939000D01*
X120349000Y-146999000D02*
X130509000Y-146999000D01*
X128604000Y-124079000D02*
X128604000Y-146939000D01*
X130509000Y-146999000D02*
X130509000Y-124019000D01*
X122254000Y-125079000D02*
X123254000Y-124079000D01*
X120349000Y-124019000D02*
X120349000Y-146999000D01*
X130509000Y-124019000D02*
X120349000Y-124019000D01*
X123254000Y-124079000D02*
X128604000Y-124079000D01*
X122254000Y-146939000D02*
X122254000Y-125079000D01*
X202946000Y-97409000D02*
X202946000Y-117729000D01*
X196596000Y-98409000D02*
X197596000Y-97409000D01*
X194691000Y-97349000D02*
X194691000Y-117789000D01*
X196596000Y-117729000D02*
X196596000Y-98409000D01*
X202946000Y-117729000D02*
X196596000Y-117729000D01*
X197596000Y-97409000D02*
X202946000Y-97409000D01*
X204851000Y-97349000D02*
X194691000Y-97349000D01*
X204851000Y-117789000D02*
X204851000Y-97349000D01*
X194691000Y-117789000D02*
X204851000Y-117789000D01*
X222030000Y-55666000D02*
X229030000Y-55666000D01*
X220450000Y-54016000D02*
X222030000Y-54016000D01*
X230610000Y-54016000D02*
X229030000Y-54016000D01*
X222030000Y-52366000D02*
X222030000Y-55666000D01*
X229030000Y-55666000D02*
X229030000Y-52366000D01*
X229030000Y-52366000D02*
X222030000Y-52366000D01*
X166243000Y-61087000D02*
X166243000Y-58547000D01*
X167493000Y-61087000D02*
G75*
G03*
X167493000Y-61087000I-1250000J0D01*
G01*
X204723000Y-75001000D02*
X204723000Y-68001000D01*
X203073000Y-66421000D02*
X203073000Y-68001000D01*
X201423000Y-68001000D02*
X201423000Y-75001000D01*
X204723000Y-68001000D02*
X201423000Y-68001000D01*
X201423000Y-75001000D02*
X204723000Y-75001000D01*
X203073000Y-76581000D02*
X203073000Y-75001000D01*
X192659000Y-60960000D02*
X192659000Y-58420000D01*
X194309000Y-60960000D02*
G75*
G03*
X194309000Y-60960000I-1650000J0D01*
G01*
X268654000Y-100777000D02*
X268654000Y-102677000D01*
X268654000Y-102677000D02*
X272954000Y-102677000D01*
X272954000Y-102677000D02*
X272954000Y-100777000D01*
X272954000Y-100777000D02*
X268654000Y-100777000D01*
X210978000Y-127872000D02*
X210978000Y-125972000D01*
X210978000Y-125972000D02*
X206678000Y-125972000D01*
X206678000Y-127872000D02*
X210978000Y-127872000D01*
X206678000Y-125972000D02*
X206678000Y-127872000D01*
X146099000Y-60010000D02*
X146099000Y-61910000D01*
X150399000Y-60010000D02*
X146099000Y-60010000D01*
X150399000Y-61910000D02*
X150399000Y-60010000D01*
X146099000Y-61910000D02*
X150399000Y-61910000D01*
X147534446Y-49551500D02*
X147934446Y-49551500D01*
X147734446Y-49351500D02*
X147734446Y-49751500D01*
X151237000Y-50419000D02*
G75*
G03*
X151237000Y-50419000I-2000000J0D01*
G01*
X172019000Y-49118000D02*
X170119000Y-49118000D01*
X170119000Y-53418000D02*
X172019000Y-53418000D01*
X172019000Y-53418000D02*
X172019000Y-49118000D01*
X170119000Y-49118000D02*
X170119000Y-53418000D01*
X184023000Y-53975000D02*
X184023000Y-51435000D01*
X185273000Y-53975000D02*
G75*
G03*
X185273000Y-53975000I-1250000J0D01*
G01*
X155603000Y-48649000D02*
X155603000Y-52149000D01*
X159833000Y-50419000D02*
G75*
G03*
X155599375Y-48665375I-2480000J0D01*
G01*
X155599375Y-52172625D02*
G75*
G03*
X159833000Y-50419000I1753625J1753625D01*
G01*
X199388605Y-56328500D02*
X199388605Y-55828500D01*
X199638605Y-56078500D02*
X199138605Y-56078500D01*
X200005000Y-54991000D02*
G75*
G03*
X200005000Y-54991000I-2500000J0D01*
G01*
X229966000Y-96073000D02*
X234266000Y-96073000D01*
X229966000Y-94173000D02*
X229966000Y-96073000D01*
X234266000Y-94173000D02*
X229966000Y-94173000D01*
X234266000Y-96073000D02*
X234266000Y-94173000D01*
X122300000Y-53284000D02*
X122300000Y-46284000D01*
X119000000Y-53284000D02*
X122300000Y-53284000D01*
X122300000Y-46284000D02*
X119000000Y-46284000D01*
X119000000Y-46284000D02*
X119000000Y-53284000D01*
X120650000Y-54864000D02*
X120650000Y-53284000D01*
X120650000Y-44704000D02*
X120650000Y-46284000D01*
X129412000Y-46284000D02*
X126112000Y-46284000D01*
X127762000Y-44704000D02*
X127762000Y-46284000D01*
X129412000Y-53284000D02*
X129412000Y-46284000D01*
X127762000Y-54864000D02*
X127762000Y-53284000D01*
X126112000Y-53284000D02*
X129412000Y-53284000D01*
X126112000Y-46284000D02*
X126112000Y-53284000D01*
X111888000Y-53284000D02*
X115188000Y-53284000D01*
X115188000Y-53284000D02*
X115188000Y-46284000D01*
X113538000Y-54864000D02*
X113538000Y-53284000D01*
X111888000Y-46284000D02*
X111888000Y-53284000D01*
X115188000Y-46284000D02*
X111888000Y-46284000D01*
X113538000Y-44704000D02*
X113538000Y-46284000D01*
X115844000Y-47904000D02*
X115844000Y-54204000D01*
X118344000Y-47904000D02*
X115844000Y-47904000D01*
X118344000Y-54204000D02*
X118344000Y-47904000D01*
X117094000Y-47244000D02*
X117094000Y-47904000D01*
X115844000Y-54204000D02*
X118344000Y-54204000D01*
X117094000Y-54864000D02*
X117094000Y-54204000D01*
X124206000Y-47244000D02*
X124206000Y-47904000D01*
X124206000Y-54864000D02*
X124206000Y-54204000D01*
X122956000Y-47904000D02*
X122956000Y-54204000D01*
X125456000Y-47904000D02*
X122956000Y-47904000D01*
X125456000Y-54204000D02*
X125456000Y-47904000D01*
X122956000Y-54204000D02*
X125456000Y-54204000D01*
X109982000Y-47244000D02*
X109982000Y-47904000D01*
X108732000Y-47904000D02*
X108732000Y-54204000D01*
X111232000Y-54204000D02*
X111232000Y-47904000D01*
X108732000Y-54204000D02*
X111232000Y-54204000D01*
X109982000Y-54864000D02*
X109982000Y-54204000D01*
X111232000Y-47904000D02*
X108732000Y-47904000D01*
D14*
X94136000Y-39154000D02*
X94136000Y-23354000D01*
X114136000Y-39154000D02*
X94136000Y-39154000D01*
X114136000Y-23354000D02*
X114136000Y-39154000D01*
X94136000Y-23354000D02*
X114136000Y-23354000D01*
D15*
X93472000Y-35948000D02*
G75*
G03*
X93472000Y-35948000I-100000J0D01*
G01*
D13*
X232823000Y-70781000D02*
X232823000Y-64781000D01*
X232498000Y-70906000D02*
X232498000Y-64656000D01*
X236823000Y-70781000D02*
X236823000Y-64781000D01*
X237148000Y-70906000D02*
X237148000Y-64656000D01*
X232498000Y-70906000D02*
G75*
G03*
X237148000Y-70906000I2325000J0D01*
G01*
X232823000Y-70781000D02*
G75*
G03*
X236823000Y-70781000I2000000J0D01*
G01*
X236823000Y-64781000D02*
G75*
G03*
X232823000Y-64781000I-2000000J0D01*
G01*
X237148000Y-64656000D02*
G75*
G03*
X232498000Y-64656000I-2325000J0D01*
G01*
X188591000Y-55806000D02*
X193091000Y-55806000D01*
X188591000Y-49096000D02*
X188591000Y-55806000D01*
X192703000Y-50366000D02*
X190940000Y-50365000D01*
X193091000Y-55806000D02*
X193091000Y-49096000D01*
X192703000Y-50366000D02*
X190940000Y-50365000D01*
X193091000Y-49096000D02*
X188591000Y-49096000D01*
X192711000Y-50366000D02*
G75*
G03*
X192711000Y-50366000I-890000J0D01*
G01*
X295021000Y-137414000D02*
X295656000Y-136779000D01*
X297561000Y-144399000D02*
X295021000Y-144399000D01*
X297561000Y-136779000D02*
X297561000Y-144399000D01*
X295021000Y-144399000D02*
X295021000Y-137414000D01*
X295656000Y-136779000D02*
X297561000Y-136779000D01*
D15*
X310115000Y-82994000D02*
X310115000Y-73724000D01*
X310115000Y-73724000D02*
X297815000Y-73724000D01*
X297815000Y-73724000D02*
X297815000Y-82994000D01*
X297815000Y-73359000D02*
X297815000Y-83359000D01*
X297815000Y-82994000D02*
X310115000Y-82994000D01*
X285115000Y-83359000D02*
X285115000Y-73359000D01*
X285115000Y-73359000D02*
X297815000Y-73359000D01*
X297815000Y-83359000D02*
X285115000Y-83359000D01*
D13*
X227203000Y-82931000D02*
X229743000Y-82931000D01*
X228853000Y-82931000D02*
G75*
G03*
X228853000Y-82931000I-1650000J0D01*
G01*
X264856000Y-70534000D02*
X262956000Y-70534000D01*
X262956000Y-70534000D02*
X262956000Y-74834000D01*
X264856000Y-74834000D02*
X264856000Y-70534000D01*
X262956000Y-74834000D02*
X264856000Y-74834000D01*
X264856000Y-78154000D02*
X262956000Y-78154000D01*
X264856000Y-82454000D02*
X264856000Y-78154000D01*
X262956000Y-78154000D02*
X262956000Y-82454000D01*
X262956000Y-82454000D02*
X264856000Y-82454000D01*
X252328500Y-59247861D02*
X253328500Y-59247861D01*
X252828500Y-59747861D02*
X252828500Y-58747861D01*
X260016000Y-55459000D02*
G75*
G03*
X260016000Y-55459000I-5000000J0D01*
G01*
X267970000Y-81360000D02*
X267970000Y-79780000D01*
X266320000Y-79780000D02*
X269620000Y-79780000D01*
X269620000Y-72780000D02*
X266320000Y-72780000D01*
X267970000Y-71200000D02*
X267970000Y-72780000D01*
X266320000Y-72780000D02*
X266320000Y-79780000D01*
X269620000Y-79780000D02*
X269620000Y-72780000D01*
X147701000Y-93329000D02*
X148701000Y-92329000D01*
X155956000Y-117789000D02*
X155956000Y-92269000D01*
X148701000Y-92329000D02*
X154051000Y-92329000D01*
X155956000Y-92269000D02*
X145796000Y-92269000D01*
X154051000Y-92329000D02*
X154051000Y-117729000D01*
X145796000Y-92269000D02*
X145796000Y-117789000D01*
X145796000Y-117789000D02*
X155956000Y-117789000D01*
X154051000Y-117729000D02*
X147701000Y-117729000D01*
X147701000Y-117729000D02*
X147701000Y-93329000D01*
X73914000Y-105029000D02*
X73914000Y-102489000D01*
X89154000Y-105029000D02*
X73914000Y-105029000D01*
X88519000Y-102489000D02*
X89154000Y-103124000D01*
X89154000Y-103124000D02*
X89154000Y-105029000D01*
X73914000Y-102489000D02*
X88519000Y-102489000D01*
X201921000Y-96073000D02*
X201921000Y-94173000D01*
X197621000Y-94173000D02*
X197621000Y-96073000D01*
X201921000Y-94173000D02*
X197621000Y-94173000D01*
X197621000Y-96073000D02*
X201921000Y-96073000D01*
X254841000Y-123874000D02*
X254841000Y-154354000D01*
X240111000Y-154354000D02*
X240111000Y-124874000D01*
X241111000Y-123874000D02*
X254841000Y-123874000D01*
X240111000Y-124874000D02*
X241111000Y-123874000D01*
X238586000Y-154414000D02*
X256366000Y-154414000D01*
X238586000Y-123814000D02*
X238586000Y-154414000D01*
X254841000Y-154354000D02*
X240111000Y-154354000D01*
X256366000Y-154414000D02*
X256366000Y-123814000D01*
X256366000Y-123814000D02*
X238586000Y-123814000D01*
X245286000Y-122792000D02*
X249586000Y-122792000D01*
X249586000Y-120892000D02*
X245286000Y-120892000D01*
X249586000Y-122792000D02*
X249586000Y-120892000D01*
X245286000Y-120892000D02*
X245286000Y-122792000D01*
X223950000Y-120892000D02*
X223950000Y-122792000D01*
X228250000Y-122792000D02*
X228250000Y-120892000D01*
X228250000Y-120892000D02*
X223950000Y-120892000D01*
X223950000Y-122792000D02*
X228250000Y-122792000D01*
X217250000Y-123814000D02*
X217250000Y-154414000D01*
X233505000Y-123874000D02*
X233505000Y-154354000D01*
X218775000Y-124874000D02*
X219775000Y-123874000D01*
X235030000Y-123814000D02*
X217250000Y-123814000D01*
X235030000Y-154414000D02*
X235030000Y-123814000D01*
X218775000Y-154354000D02*
X218775000Y-124874000D01*
X217250000Y-154414000D02*
X235030000Y-154414000D01*
X233505000Y-154354000D02*
X218775000Y-154354000D01*
X219775000Y-123874000D02*
X233505000Y-123874000D01*
X300331000Y-96444000D02*
X291211000Y-96444000D01*
X300331000Y-121444000D02*
X291211000Y-121444000D01*
X300731000Y-118694000D02*
X306731000Y-118694000D01*
X300731000Y-100544000D02*
X305731000Y-100544000D01*
X300731000Y-95544000D02*
X300731000Y-100544000D01*
X300331000Y-125969000D02*
X300731000Y-125969000D01*
X300331000Y-125969000D02*
X300331000Y-95119000D01*
X300331000Y-95119000D02*
X300331000Y-125969000D01*
X300731000Y-102394000D02*
X300731000Y-118694000D01*
X305731000Y-95544000D02*
X300731000Y-95544000D01*
X287991000Y-125969000D02*
X300331000Y-125969000D01*
X306731000Y-102394000D02*
X300731000Y-102394000D01*
X300331000Y-95119000D02*
X287991000Y-95119000D01*
X287991000Y-95119000D02*
X287991000Y-125969000D01*
X300731000Y-120544000D02*
X300731000Y-125544000D01*
X300731000Y-125969000D02*
X300731000Y-95119000D01*
X300731000Y-95119000D02*
X300331000Y-95119000D01*
X306731000Y-118694000D02*
X306731000Y-102394000D01*
X305731000Y-100544000D02*
X305731000Y-95544000D01*
X305731000Y-120544000D02*
X300731000Y-120544000D01*
X305731000Y-125544000D02*
X305731000Y-120544000D01*
X300331000Y-124644000D02*
X291211000Y-124644000D01*
X300331000Y-99644000D02*
X291211000Y-99644000D01*
X300731000Y-125544000D02*
X305731000Y-125544000D01*
X291211000Y-96444000D02*
G75*
G03*
X291211000Y-99644000I0J-1600000D01*
G01*
X291211000Y-121444000D02*
G75*
G03*
X291211000Y-124644000I0J-1600000D01*
G01*
X178181000Y-117789000D02*
X188341000Y-117789000D01*
X180086000Y-117729000D02*
X180086000Y-100949000D01*
X186436000Y-117729000D02*
X180086000Y-117729000D01*
X181086000Y-99949000D02*
X186436000Y-99949000D01*
X178181000Y-99889000D02*
X178181000Y-117789000D01*
X188341000Y-99889000D02*
X178181000Y-99889000D01*
X186436000Y-99949000D02*
X186436000Y-117729000D01*
X188341000Y-117789000D02*
X188341000Y-99889000D01*
X180086000Y-100949000D02*
X181086000Y-99949000D01*
X190691000Y-124001000D02*
X196041000Y-124001000D01*
X196041000Y-141781000D02*
X189691000Y-141781000D01*
X187786000Y-141841000D02*
X197946000Y-141841000D01*
X189691000Y-141781000D02*
X189691000Y-125001000D01*
X189691000Y-125001000D02*
X190691000Y-124001000D01*
X196041000Y-124001000D02*
X196041000Y-141781000D01*
X197946000Y-141841000D02*
X197946000Y-123941000D01*
X187786000Y-123941000D02*
X187786000Y-141841000D01*
X197946000Y-123941000D02*
X187786000Y-123941000D01*
X56896000Y-109474000D02*
X56896000Y-139954000D01*
X53086000Y-109474000D02*
X56896000Y-109474000D01*
X56896000Y-139954000D02*
X51816000Y-139954000D01*
X51816000Y-110744000D02*
X53086000Y-109474000D01*
X51816000Y-139954000D02*
X51816000Y-110744000D01*
X212344000Y-48387000D02*
X212344000Y-52197000D01*
X211074000Y-47117000D02*
X212344000Y-48387000D01*
X209804000Y-47117000D02*
X211074000Y-47117000D01*
X212344000Y-52197000D02*
X209804000Y-52197000D01*
X209804000Y-52197000D02*
X209804000Y-47117000D01*
X207137000Y-50927000D02*
X207137000Y-48387000D01*
X208387000Y-50927000D02*
G75*
G03*
X208387000Y-50927000I-1250000J0D01*
G01*
D14*
X293256000Y-66064000D02*
X269096000Y-66064000D01*
X293256000Y-56364000D02*
X293256000Y-66064000D01*
X269096000Y-66064000D02*
X269096000Y-56364000D01*
X269096000Y-56364000D02*
X293256000Y-56364000D01*
D13*
X107061000Y-80121000D02*
X108061000Y-79121000D01*
X115316000Y-79061000D02*
X105156000Y-79061000D01*
X113411000Y-79121000D02*
X113411000Y-96901000D01*
X113411000Y-96901000D02*
X107061000Y-96901000D01*
X105156000Y-79061000D02*
X105156000Y-96961000D01*
X108061000Y-79121000D02*
X113411000Y-79121000D01*
X107061000Y-96901000D02*
X107061000Y-80121000D01*
X105156000Y-96961000D02*
X115316000Y-96961000D01*
X115316000Y-96961000D02*
X115316000Y-79061000D01*
X181055000Y-124079000D02*
X181055000Y-141859000D01*
X182960000Y-141919000D02*
X182960000Y-124019000D01*
X172800000Y-141919000D02*
X182960000Y-141919000D01*
X182960000Y-124019000D02*
X172800000Y-124019000D01*
X174705000Y-125079000D02*
X175705000Y-124079000D01*
X172800000Y-124019000D02*
X172800000Y-141919000D01*
X175705000Y-124079000D02*
X181055000Y-124079000D01*
X174705000Y-141859000D02*
X174705000Y-125079000D01*
X181055000Y-141859000D02*
X174705000Y-141859000D01*
X215580000Y-51005000D02*
X215580000Y-46705000D01*
X213680000Y-46705000D02*
X213680000Y-51005000D01*
X215580000Y-46705000D02*
X213680000Y-46705000D01*
X213680000Y-51005000D02*
X215580000Y-51005000D01*
X132386000Y-43434000D02*
X134926000Y-43434000D01*
X134926000Y-43434000D02*
X134926000Y-50419000D01*
X134926000Y-50419000D02*
X134291000Y-51054000D01*
X132386000Y-51054000D02*
X132386000Y-43434000D01*
X134291000Y-51054000D02*
X132386000Y-51054000D01*
M02*
