%TF.GenerationSoftware,KiCad,Pcbnew,(6.0.4-0)*%
%TF.CreationDate,2022-08-07T13:12:03-04:00*%
%TF.ProjectId,VIC20Reloaded-1.1-002,56494332-3052-4656-9c6f-616465642d31,1.1-002E*%
%TF.SameCoordinates,Original*%
%TF.FileFunction,Soldermask,Bot*%
%TF.FilePolarity,Negative*%
%FSLAX46Y46*%
G04 Gerber Fmt 4.6, Leading zero omitted, Abs format (unit mm)*
G04 Created by KiCad (PCBNEW (6.0.4-0)) date 2022-08-07 13:12:03*
%MOMM*%
%LPD*%
G01*
G04 APERTURE LIST*
G04 Aperture macros list*
%AMRoundRect*
0 Rectangle with rounded corners*
0 $1 Rounding radius*
0 $2 $3 $4 $5 $6 $7 $8 $9 X,Y pos of 4 corners*
0 Add a 4 corners polygon primitive as box body*
4,1,4,$2,$3,$4,$5,$6,$7,$8,$9,$2,$3,0*
0 Add four circle primitives for the rounded corners*
1,1,$1+$1,$2,$3*
1,1,$1+$1,$4,$5*
1,1,$1+$1,$6,$7*
1,1,$1+$1,$8,$9*
0 Add four rect primitives between the rounded corners*
20,1,$1+$1,$2,$3,$4,$5,0*
20,1,$1+$1,$4,$5,$6,$7,0*
20,1,$1+$1,$6,$7,$8,$9,0*
20,1,$1+$1,$8,$9,$2,$3,0*%
G04 Aperture macros list end*
%ADD10C,1.600000*%
%ADD11R,1.600000X1.600000*%
%ADD12R,1.200000X1.200000*%
%ADD13C,1.200000*%
%ADD14O,1.600000X1.600000*%
%ADD15RoundRect,0.444500X3.784600X-0.800100X3.784600X0.800100X-3.784600X0.800100X-3.784600X-0.800100X0*%
%ADD16C,2.400000*%
%ADD17R,1.950000X1.950000*%
%ADD18C,1.950000*%
%ADD19R,3.500000X3.500000*%
%ADD20RoundRect,0.750000X0.750000X1.000000X-0.750000X1.000000X-0.750000X-1.000000X0.750000X-1.000000X0*%
%ADD21RoundRect,0.875000X0.875000X0.875000X-0.875000X0.875000X-0.875000X-0.875000X0.875000X-0.875000X0*%
%ADD22R,1.700000X1.700000*%
%ADD23O,1.700000X1.700000*%
%ADD24R,1.300000X1.300000*%
%ADD25C,1.300000*%
%ADD26C,1.500000*%
%ADD27C,1.440000*%
%ADD28C,5.600000*%
%ADD29C,2.700000*%
%ADD30C,4.400000*%
%ADD31R,2.000000X2.000000*%
%ADD32C,2.000000*%
%ADD33C,1.000000*%
%ADD34C,4.000000*%
%ADD35R,1.980000X1.980000*%
%ADD36C,1.980000*%
%ADD37R,1.524000X1.524000*%
%ADD38C,1.524000*%
%ADD39C,3.810000*%
G04 APERTURE END LIST*
D10*
X218313000Y-67771000D03*
X218313000Y-72771000D03*
D11*
X177419000Y-47244000D03*
D10*
X177419000Y-49744000D03*
D11*
X221996000Y-47920000D03*
D10*
X219496000Y-47920000D03*
D11*
X198731000Y-48387000D03*
D10*
X196231000Y-48387000D03*
X203073000Y-80391000D03*
X208073000Y-80391000D03*
X145669000Y-57912000D03*
X150669000Y-57912000D03*
X197231000Y-60706000D03*
X202231000Y-60706000D03*
D12*
X177419000Y-59055000D03*
D13*
X177419000Y-60555000D03*
D10*
X171069000Y-61468000D03*
X171069000Y-56468000D03*
D11*
X176911000Y-54483000D03*
D10*
X178911000Y-54483000D03*
X113364000Y-122047000D03*
X108364000Y-122047000D03*
X284186000Y-92456000D03*
X279186000Y-92456000D03*
X284226000Y-96774000D03*
X279226000Y-96774000D03*
X142367000Y-122174000D03*
X137367000Y-122174000D03*
X127969000Y-122047000D03*
X122969000Y-122047000D03*
X73486000Y-122047000D03*
X68486000Y-122047000D03*
X128016000Y-98044000D03*
X123016000Y-98044000D03*
X161036000Y-121969000D03*
X156036000Y-121969000D03*
X251126000Y-95123000D03*
X246126000Y-95123000D03*
X88138000Y-43815000D03*
X93138000Y-43815000D03*
X70532000Y-43815000D03*
X65532000Y-43815000D03*
X112950000Y-61976000D03*
X107950000Y-61976000D03*
D12*
X120396000Y-73914000D03*
D13*
X120396000Y-75414000D03*
D10*
X94742000Y-122047000D03*
X89742000Y-122047000D03*
X180293000Y-97663000D03*
X185293000Y-97663000D03*
X211074000Y-63674000D03*
X211074000Y-58674000D03*
X203327000Y-54911000D03*
X203327000Y-49911000D03*
X291211000Y-138303000D03*
D14*
X288671000Y-138303000D03*
D10*
X291211000Y-142494000D03*
D14*
X288671000Y-142494000D03*
D10*
X220450000Y-58588000D03*
D14*
X230610000Y-58588000D03*
D10*
X219583000Y-82931000D03*
D14*
X222123000Y-82931000D03*
D10*
X120396000Y-69723000D03*
D14*
X120396000Y-59563000D03*
D10*
X184023000Y-60960000D03*
D14*
X184023000Y-58420000D03*
D10*
X185547000Y-84201000D03*
D14*
X175387000Y-84201000D03*
D10*
X120396000Y-85344000D03*
D14*
X120396000Y-87884000D03*
D10*
X186436000Y-155194000D03*
D14*
X196596000Y-155194000D03*
D10*
X196596000Y-150749000D03*
D14*
X186436000Y-150749000D03*
D15*
X43055000Y-103765800D03*
X43055000Y-107728200D03*
X43055000Y-111690600D03*
X43055000Y-115653000D03*
X43055000Y-119615400D03*
X43055000Y-123577800D03*
X43055000Y-127540200D03*
X43055000Y-131502600D03*
X43055000Y-135465000D03*
X43055000Y-139427400D03*
X43055000Y-143389800D03*
X43030000Y-147379200D03*
D16*
X81223500Y-30854000D03*
X66223500Y-30854000D03*
D17*
X66223500Y-35854000D03*
D18*
X68723500Y-38354000D03*
X73723500Y-35854000D03*
X78723500Y-38354000D03*
X81223500Y-35854000D03*
X73723500Y-40854000D03*
X76223500Y-25854000D03*
X71223500Y-25854000D03*
D19*
X287116000Y-45021500D03*
D20*
X293116000Y-45021500D03*
D21*
X290116000Y-40321500D03*
D22*
X51943000Y-95631000D03*
D23*
X51943000Y-93091000D03*
X51943000Y-90551000D03*
X51943000Y-88011000D03*
X51943000Y-85471000D03*
X51943000Y-82931000D03*
X51943000Y-80391000D03*
X51943000Y-77851000D03*
X51943000Y-75311000D03*
X51943000Y-72771000D03*
X51943000Y-70231000D03*
X51943000Y-67691000D03*
X51943000Y-65151000D03*
X51943000Y-62611000D03*
X51943000Y-60071000D03*
X51943000Y-57531000D03*
X51943000Y-54991000D03*
X51943000Y-52451000D03*
X51943000Y-49911000D03*
X51943000Y-47371000D03*
D24*
X164719000Y-49149000D03*
D25*
X165989000Y-50419000D03*
X164719000Y-51689000D03*
D10*
X263732000Y-89154000D03*
D14*
X263732000Y-96774000D03*
D10*
X267288000Y-89154000D03*
D14*
X267288000Y-96774000D03*
D10*
X270844000Y-89154000D03*
D14*
X270844000Y-96774000D03*
D10*
X228070000Y-46396000D03*
D14*
X230610000Y-46396000D03*
D10*
X228070000Y-49952000D03*
D14*
X230610000Y-49952000D03*
D10*
X234823000Y-56261000D03*
D14*
X234823000Y-58801000D03*
D10*
X155321000Y-61087000D03*
D14*
X155321000Y-58547000D03*
D10*
X188595000Y-60960000D03*
D14*
X188595000Y-58420000D03*
D10*
X162687000Y-61087000D03*
D14*
X162687000Y-58547000D03*
D10*
X159131000Y-61087000D03*
D14*
X159131000Y-58547000D03*
D10*
X273892000Y-96774000D03*
D14*
X273892000Y-89154000D03*
D10*
X174070000Y-146939000D03*
D14*
X181690000Y-146939000D03*
D10*
X106426000Y-54864000D03*
D14*
X106426000Y-47244000D03*
D10*
X284226000Y-138049000D03*
D14*
X284226000Y-145669000D03*
D10*
X131826000Y-59563000D03*
D14*
X131826000Y-67183000D03*
D10*
X128270000Y-67183000D03*
D14*
X128270000Y-59563000D03*
D10*
X124714000Y-59563000D03*
D14*
X124714000Y-67183000D03*
D10*
X147955000Y-54483000D03*
D14*
X150495000Y-54483000D03*
D10*
X234823000Y-80391000D03*
D14*
X234823000Y-82931000D03*
D10*
X114681000Y-152654000D03*
D14*
X107061000Y-152654000D03*
D10*
X147955000Y-46355000D03*
D14*
X150495000Y-46355000D03*
D11*
X84789000Y-125349000D03*
D14*
X84789000Y-127889000D03*
X84789000Y-130429000D03*
X84789000Y-132969000D03*
X84789000Y-135509000D03*
X84789000Y-138049000D03*
X84789000Y-140589000D03*
X84789000Y-143129000D03*
X84789000Y-145669000D03*
X84789000Y-148209000D03*
X84789000Y-150749000D03*
X84789000Y-153289000D03*
X100029000Y-153289000D03*
X100029000Y-150749000D03*
X100029000Y-148209000D03*
X100029000Y-145669000D03*
X100029000Y-143129000D03*
X100029000Y-140589000D03*
X100029000Y-138049000D03*
X100029000Y-135509000D03*
X100029000Y-132969000D03*
X100029000Y-130429000D03*
X100029000Y-127889000D03*
X100029000Y-125349000D03*
D11*
X63326000Y-125349000D03*
D14*
X63326000Y-127889000D03*
X63326000Y-130429000D03*
X63326000Y-132969000D03*
X63326000Y-135509000D03*
X63326000Y-138049000D03*
X63326000Y-140589000D03*
X63326000Y-143129000D03*
X63326000Y-145669000D03*
X63326000Y-148209000D03*
X63326000Y-150749000D03*
X63326000Y-153289000D03*
X78566000Y-153289000D03*
X78566000Y-150749000D03*
X78566000Y-148209000D03*
X78566000Y-145669000D03*
X78566000Y-143129000D03*
X78566000Y-140589000D03*
X78566000Y-138049000D03*
X78566000Y-135509000D03*
X78566000Y-132969000D03*
X78566000Y-130429000D03*
X78566000Y-127889000D03*
X78566000Y-125349000D03*
D11*
X61722000Y-47371000D03*
D14*
X61722000Y-49911000D03*
X61722000Y-52451000D03*
X61722000Y-54991000D03*
X61722000Y-57531000D03*
X61722000Y-60071000D03*
X61722000Y-62611000D03*
X61722000Y-65151000D03*
X61722000Y-67691000D03*
X61722000Y-70231000D03*
X61722000Y-72771000D03*
X61722000Y-75311000D03*
X61722000Y-77851000D03*
X61722000Y-80391000D03*
X61722000Y-82931000D03*
X61722000Y-85471000D03*
X61722000Y-88011000D03*
X61722000Y-90551000D03*
X61722000Y-93091000D03*
X61722000Y-95631000D03*
X76962000Y-95631000D03*
X76962000Y-93091000D03*
X76962000Y-90551000D03*
X76962000Y-88011000D03*
X76962000Y-85471000D03*
X76962000Y-82931000D03*
X76962000Y-80391000D03*
X76962000Y-77851000D03*
X76962000Y-75311000D03*
X76962000Y-72771000D03*
X76962000Y-70231000D03*
X76962000Y-67691000D03*
X76962000Y-65151000D03*
X76962000Y-62611000D03*
X76962000Y-60071000D03*
X76962000Y-57531000D03*
X76962000Y-54991000D03*
X76962000Y-52451000D03*
X76962000Y-49911000D03*
X76962000Y-47371000D03*
D11*
X82804000Y-47371000D03*
D14*
X82804000Y-49911000D03*
X82804000Y-52451000D03*
X82804000Y-54991000D03*
X82804000Y-57531000D03*
X82804000Y-60071000D03*
X82804000Y-62611000D03*
X82804000Y-65151000D03*
X82804000Y-67691000D03*
X82804000Y-70231000D03*
X82804000Y-72771000D03*
X82804000Y-75311000D03*
X82804000Y-77851000D03*
X82804000Y-80391000D03*
X82804000Y-82931000D03*
X82804000Y-85471000D03*
X82804000Y-88011000D03*
X82804000Y-90551000D03*
X82804000Y-93091000D03*
X82804000Y-95631000D03*
X98044000Y-95631000D03*
X98044000Y-93091000D03*
X98044000Y-90551000D03*
X98044000Y-88011000D03*
X98044000Y-85471000D03*
X98044000Y-82931000D03*
X98044000Y-80391000D03*
X98044000Y-77851000D03*
X98044000Y-75311000D03*
X98044000Y-72771000D03*
X98044000Y-70231000D03*
X98044000Y-67691000D03*
X98044000Y-65151000D03*
X98044000Y-62611000D03*
X98044000Y-60071000D03*
X98044000Y-57531000D03*
X98044000Y-54991000D03*
X98044000Y-52451000D03*
X98044000Y-49911000D03*
X98044000Y-47371000D03*
D11*
X106426000Y-65024000D03*
D14*
X106426000Y-67564000D03*
X106426000Y-70104000D03*
X106426000Y-72644000D03*
X114046000Y-72644000D03*
X114046000Y-70104000D03*
X114046000Y-67564000D03*
X114046000Y-65024000D03*
D11*
X198247000Y-65151000D03*
D14*
X195707000Y-65151000D03*
X193167000Y-65151000D03*
X190627000Y-65151000D03*
X188087000Y-65151000D03*
X185547000Y-65151000D03*
X183007000Y-65151000D03*
X180467000Y-65151000D03*
X177927000Y-65151000D03*
X175387000Y-65151000D03*
X172847000Y-65151000D03*
X170307000Y-65151000D03*
X167767000Y-65151000D03*
X165227000Y-65151000D03*
X162687000Y-65151000D03*
X160147000Y-65151000D03*
X157607000Y-65151000D03*
X155067000Y-65151000D03*
X152527000Y-65151000D03*
X149987000Y-65151000D03*
X149987000Y-80391000D03*
X152527000Y-80391000D03*
X155067000Y-80391000D03*
X157607000Y-80391000D03*
X160147000Y-80391000D03*
X162687000Y-80391000D03*
X165227000Y-80391000D03*
X167767000Y-80391000D03*
X170307000Y-80391000D03*
X172847000Y-80391000D03*
X175387000Y-80391000D03*
X177927000Y-80391000D03*
X180467000Y-80391000D03*
X183007000Y-80391000D03*
X185547000Y-80391000D03*
X188087000Y-80391000D03*
X190627000Y-80391000D03*
X193167000Y-80391000D03*
X195707000Y-80391000D03*
X198247000Y-80391000D03*
D11*
X222123000Y-62611000D03*
D14*
X222123000Y-65151000D03*
X222123000Y-67691000D03*
X222123000Y-70231000D03*
X222123000Y-72771000D03*
X222123000Y-75311000D03*
X222123000Y-77851000D03*
X229743000Y-77851000D03*
X229743000Y-75311000D03*
X229743000Y-72771000D03*
X229743000Y-70231000D03*
X229743000Y-67691000D03*
X229743000Y-65151000D03*
X229743000Y-62611000D03*
D11*
X244866000Y-98679000D03*
D14*
X244866000Y-101219000D03*
X244866000Y-103759000D03*
X244866000Y-106299000D03*
X244866000Y-108839000D03*
X244866000Y-111379000D03*
X244866000Y-113919000D03*
X244866000Y-116459000D03*
X252486000Y-116459000D03*
X252486000Y-113919000D03*
X252486000Y-111379000D03*
X252486000Y-108839000D03*
X252486000Y-106299000D03*
X252486000Y-103759000D03*
X252486000Y-101219000D03*
X252486000Y-98679000D03*
D11*
X151464000Y-125349000D03*
D14*
X151464000Y-127889000D03*
X151464000Y-130429000D03*
X151464000Y-132969000D03*
X151464000Y-135509000D03*
X151464000Y-138049000D03*
X151464000Y-140589000D03*
X151464000Y-143129000D03*
X151464000Y-145669000D03*
X151464000Y-148209000D03*
X151464000Y-150749000D03*
X151464000Y-153289000D03*
X166704000Y-153289000D03*
X166704000Y-150749000D03*
X166704000Y-148209000D03*
X166704000Y-145669000D03*
X166704000Y-143129000D03*
X166704000Y-140589000D03*
X166704000Y-138049000D03*
X166704000Y-135509000D03*
X166704000Y-132969000D03*
X166704000Y-130429000D03*
X166704000Y-127889000D03*
X166704000Y-125349000D03*
D11*
X228346000Y-98679000D03*
D14*
X228346000Y-101219000D03*
X228346000Y-103759000D03*
X228346000Y-106299000D03*
X228346000Y-108839000D03*
X228346000Y-111379000D03*
X228346000Y-113919000D03*
X228346000Y-116459000D03*
X235966000Y-116459000D03*
X235966000Y-113919000D03*
X235966000Y-111379000D03*
X235966000Y-108839000D03*
X235966000Y-106299000D03*
X235966000Y-103759000D03*
X235966000Y-101219000D03*
X235966000Y-98679000D03*
D11*
X162941000Y-93599000D03*
D14*
X162941000Y-96139000D03*
X162941000Y-98679000D03*
X162941000Y-101219000D03*
X162941000Y-103759000D03*
X162941000Y-106299000D03*
X162941000Y-108839000D03*
X162941000Y-111379000D03*
X162941000Y-113919000D03*
X162941000Y-116459000D03*
X170561000Y-116459000D03*
X170561000Y-113919000D03*
X170561000Y-111379000D03*
X170561000Y-108839000D03*
X170561000Y-106299000D03*
X170561000Y-103759000D03*
X170561000Y-101219000D03*
X170561000Y-98679000D03*
X170561000Y-96139000D03*
X170561000Y-93599000D03*
D11*
X263652000Y-105029000D03*
D14*
X263652000Y-107569000D03*
X263652000Y-110109000D03*
X263652000Y-112649000D03*
X263652000Y-115189000D03*
X263652000Y-117729000D03*
X263652000Y-120269000D03*
X263652000Y-122809000D03*
X263652000Y-125349000D03*
X263652000Y-127889000D03*
X263652000Y-130429000D03*
X263652000Y-132969000D03*
X263652000Y-135509000D03*
X263652000Y-138049000D03*
X263652000Y-140589000D03*
X263652000Y-143129000D03*
X263652000Y-145669000D03*
X263652000Y-148209000D03*
X263652000Y-150749000D03*
X263652000Y-153289000D03*
X278892000Y-153289000D03*
X278892000Y-150749000D03*
X278892000Y-148209000D03*
X278892000Y-145669000D03*
X278892000Y-143129000D03*
X278892000Y-140589000D03*
X278892000Y-138049000D03*
X278892000Y-135509000D03*
X278892000Y-132969000D03*
X278892000Y-130429000D03*
X278892000Y-127889000D03*
X278892000Y-125349000D03*
X278892000Y-122809000D03*
X278892000Y-120269000D03*
X278892000Y-117729000D03*
X278892000Y-115189000D03*
X278892000Y-112649000D03*
X278892000Y-110109000D03*
X278892000Y-107569000D03*
X278892000Y-105029000D03*
D11*
X204677000Y-130224000D03*
D14*
X204677000Y-132764000D03*
X204677000Y-135304000D03*
X204677000Y-137844000D03*
X204677000Y-140384000D03*
X204677000Y-142924000D03*
X204677000Y-145464000D03*
X204677000Y-148004000D03*
X204677000Y-150544000D03*
X204677000Y-153084000D03*
X212297000Y-153084000D03*
X212297000Y-150544000D03*
X212297000Y-148004000D03*
X212297000Y-145464000D03*
X212297000Y-142924000D03*
X212297000Y-140384000D03*
X212297000Y-137844000D03*
X212297000Y-135304000D03*
X212297000Y-132764000D03*
X212297000Y-130224000D03*
D11*
X212090000Y-98679000D03*
D14*
X212090000Y-101219000D03*
X212090000Y-103759000D03*
X212090000Y-106299000D03*
X212090000Y-108839000D03*
X212090000Y-111379000D03*
X212090000Y-113919000D03*
X212090000Y-116459000D03*
X219710000Y-116459000D03*
X219710000Y-113919000D03*
X219710000Y-111379000D03*
X219710000Y-108839000D03*
X219710000Y-106299000D03*
X219710000Y-103759000D03*
X219710000Y-101219000D03*
X219710000Y-98679000D03*
D11*
X121666000Y-101346000D03*
D14*
X121666000Y-103886000D03*
X121666000Y-106426000D03*
X121666000Y-108966000D03*
X121666000Y-111506000D03*
X121666000Y-114046000D03*
X121666000Y-116586000D03*
X129286000Y-116586000D03*
X129286000Y-114046000D03*
X129286000Y-111506000D03*
X129286000Y-108966000D03*
X129286000Y-106426000D03*
X129286000Y-103886000D03*
X129286000Y-101346000D03*
D11*
X107014000Y-125349000D03*
D14*
X107014000Y-127889000D03*
X107014000Y-130429000D03*
X107014000Y-132969000D03*
X107014000Y-135509000D03*
X107014000Y-138049000D03*
X107014000Y-140589000D03*
X107014000Y-143129000D03*
X107014000Y-145669000D03*
X114634000Y-145669000D03*
X114634000Y-143129000D03*
X114634000Y-140589000D03*
X114634000Y-138049000D03*
X114634000Y-135509000D03*
X114634000Y-132969000D03*
X114634000Y-130429000D03*
X114634000Y-127889000D03*
X114634000Y-125349000D03*
D11*
X136224000Y-125349000D03*
D14*
X136224000Y-127889000D03*
X136224000Y-130429000D03*
X136224000Y-132969000D03*
X136224000Y-135509000D03*
X136224000Y-138049000D03*
X136224000Y-140589000D03*
X136224000Y-143129000D03*
X136224000Y-145669000D03*
X143844000Y-145669000D03*
X143844000Y-143129000D03*
X143844000Y-140589000D03*
X143844000Y-138049000D03*
X143844000Y-135509000D03*
X143844000Y-132969000D03*
X143844000Y-130429000D03*
X143844000Y-127889000D03*
X143844000Y-125349000D03*
D11*
X121619000Y-125349000D03*
D14*
X121619000Y-127889000D03*
X121619000Y-130429000D03*
X121619000Y-132969000D03*
X121619000Y-135509000D03*
X121619000Y-138049000D03*
X121619000Y-140589000D03*
X121619000Y-143129000D03*
X121619000Y-145669000D03*
X129239000Y-145669000D03*
X129239000Y-143129000D03*
X129239000Y-140589000D03*
X129239000Y-138049000D03*
X129239000Y-135509000D03*
X129239000Y-132969000D03*
X129239000Y-130429000D03*
X129239000Y-127889000D03*
X129239000Y-125349000D03*
D11*
X195961000Y-98679000D03*
D14*
X195961000Y-101219000D03*
X195961000Y-103759000D03*
X195961000Y-106299000D03*
X195961000Y-108839000D03*
X195961000Y-111379000D03*
X195961000Y-113919000D03*
X195961000Y-116459000D03*
X203581000Y-116459000D03*
X203581000Y-113919000D03*
X203581000Y-111379000D03*
X203581000Y-108839000D03*
X203581000Y-106299000D03*
X203581000Y-103759000D03*
X203581000Y-101219000D03*
X203581000Y-98679000D03*
D10*
X220450000Y-54016000D03*
D14*
X230610000Y-54016000D03*
D10*
X166243000Y-61087000D03*
D14*
X166243000Y-58547000D03*
D10*
X203073000Y-66421000D03*
D14*
X203073000Y-76581000D03*
D10*
X192659000Y-60960000D03*
D14*
X192659000Y-58420000D03*
D10*
X273304000Y-101727000D03*
X268304000Y-101727000D03*
X206328000Y-126922000D03*
X211328000Y-126922000D03*
X145749000Y-60960000D03*
X150749000Y-60960000D03*
D12*
X148487000Y-50419000D03*
D13*
X149987000Y-50419000D03*
D10*
X171069000Y-48768000D03*
X171069000Y-53768000D03*
X184023000Y-53975000D03*
D14*
X184023000Y-51435000D03*
D24*
X157353000Y-49149000D03*
D25*
X158623000Y-50419000D03*
X157353000Y-51689000D03*
D11*
X198755000Y-54991000D03*
D10*
X196255000Y-54991000D03*
X234616000Y-95123000D03*
X229616000Y-95123000D03*
X120650000Y-54864000D03*
D14*
X120650000Y-44704000D03*
D10*
X127762000Y-54864000D03*
D14*
X127762000Y-44704000D03*
D10*
X113538000Y-54864000D03*
D14*
X113538000Y-44704000D03*
D10*
X117094000Y-54864000D03*
D14*
X117094000Y-47244000D03*
D10*
X124206000Y-54864000D03*
D14*
X124206000Y-47244000D03*
D10*
X109982000Y-54864000D03*
D14*
X109982000Y-47244000D03*
D16*
X111636000Y-30854000D03*
X96636000Y-30854000D03*
D17*
X96636000Y-35854000D03*
D18*
X104136000Y-35854000D03*
X111636000Y-35854000D03*
X99136000Y-38354000D03*
X109136000Y-38354000D03*
X106636000Y-25854000D03*
X101636000Y-25854000D03*
D26*
X234823000Y-70231000D03*
X234823000Y-65331000D03*
D27*
X189611000Y-49911000D03*
X192151000Y-52451000D03*
X189611000Y-54991000D03*
D28*
X52451000Y-27559000D03*
X52451000Y-153924000D03*
X290417300Y-31527700D03*
D22*
X296291000Y-138049000D03*
D23*
X296291000Y-140589000D03*
X296291000Y-143129000D03*
D29*
X285115000Y-80759000D03*
X281305000Y-80759000D03*
X277495000Y-80759000D03*
X285115000Y-75959000D03*
X281305000Y-75959000D03*
X277495000Y-75959000D03*
X297815000Y-80899000D03*
X297815000Y-75819000D03*
D30*
X238379000Y-44323000D03*
X238379000Y-86995000D03*
D10*
X227203000Y-82931000D03*
D14*
X229743000Y-82931000D03*
D10*
X263906000Y-70184000D03*
X263906000Y-75184000D03*
X263906000Y-82804000D03*
X263906000Y-77804000D03*
D31*
X255016000Y-57959000D03*
D32*
X255016000Y-52959000D03*
D10*
X267970000Y-71200000D03*
D14*
X267970000Y-81360000D03*
D30*
X141859000Y-44323000D03*
D11*
X147066000Y-93599000D03*
D14*
X147066000Y-96139000D03*
X147066000Y-98679000D03*
X147066000Y-101219000D03*
X147066000Y-103759000D03*
X147066000Y-106299000D03*
X147066000Y-108839000D03*
X147066000Y-111379000D03*
X147066000Y-113919000D03*
X147066000Y-116459000D03*
X154686000Y-116459000D03*
X154686000Y-113919000D03*
X154686000Y-111379000D03*
X154686000Y-108839000D03*
X154686000Y-106299000D03*
X154686000Y-103759000D03*
X154686000Y-101219000D03*
X154686000Y-98679000D03*
X154686000Y-96139000D03*
X154686000Y-93599000D03*
D33*
X234823000Y-75311000D03*
D22*
X87884000Y-103759000D03*
D23*
X85344000Y-103759000D03*
X82804000Y-103759000D03*
X80264000Y-103759000D03*
X77724000Y-103759000D03*
X75184000Y-103759000D03*
D30*
X141859000Y-86995000D03*
D28*
X295275000Y-153924000D03*
D10*
X197271000Y-95123000D03*
X202271000Y-95123000D03*
D11*
X239856000Y-125144000D03*
D14*
X239856000Y-127684000D03*
X239856000Y-130224000D03*
X239856000Y-132764000D03*
X239856000Y-135304000D03*
X239856000Y-137844000D03*
X239856000Y-140384000D03*
X239856000Y-142924000D03*
X239856000Y-145464000D03*
X239856000Y-148004000D03*
X239856000Y-150544000D03*
X239856000Y-153084000D03*
X255096000Y-153084000D03*
X255096000Y-150544000D03*
X255096000Y-148004000D03*
X255096000Y-145464000D03*
X255096000Y-142924000D03*
X255096000Y-140384000D03*
X255096000Y-137844000D03*
X255096000Y-135304000D03*
X255096000Y-132764000D03*
X255096000Y-130224000D03*
X255096000Y-127684000D03*
X255096000Y-125144000D03*
D10*
X249936000Y-121842000D03*
X244936000Y-121842000D03*
X228600000Y-121842000D03*
X223600000Y-121842000D03*
D11*
X218520000Y-125144000D03*
D14*
X218520000Y-127684000D03*
X218520000Y-130224000D03*
X218520000Y-132764000D03*
X218520000Y-135304000D03*
X218520000Y-137844000D03*
X218520000Y-140384000D03*
X218520000Y-142924000D03*
X218520000Y-145464000D03*
X218520000Y-148004000D03*
X218520000Y-150544000D03*
X218520000Y-153084000D03*
X233760000Y-153084000D03*
X233760000Y-150544000D03*
X233760000Y-148004000D03*
X233760000Y-145464000D03*
X233760000Y-142924000D03*
X233760000Y-140384000D03*
X233760000Y-137844000D03*
X233760000Y-135304000D03*
X233760000Y-132764000D03*
X233760000Y-130224000D03*
X233760000Y-127684000D03*
X233760000Y-125144000D03*
D34*
X291211000Y-98044000D03*
X291211000Y-123044000D03*
D11*
X289791000Y-116084000D03*
D10*
X289791000Y-113314000D03*
X289791000Y-110544000D03*
X289791000Y-107774000D03*
X289791000Y-105004000D03*
X292631000Y-114699000D03*
X292631000Y-111929000D03*
X292631000Y-109159000D03*
X292631000Y-106389000D03*
D11*
X179451000Y-101219000D03*
D14*
X179451000Y-103759000D03*
X179451000Y-106299000D03*
X179451000Y-108839000D03*
X179451000Y-111379000D03*
X179451000Y-113919000D03*
X179451000Y-116459000D03*
X187071000Y-116459000D03*
X187071000Y-113919000D03*
X187071000Y-111379000D03*
X187071000Y-108839000D03*
X187071000Y-106299000D03*
X187071000Y-103759000D03*
X187071000Y-101219000D03*
D11*
X189056000Y-125271000D03*
D14*
X189056000Y-127811000D03*
X189056000Y-130351000D03*
X189056000Y-132891000D03*
X189056000Y-135431000D03*
X189056000Y-137971000D03*
X189056000Y-140511000D03*
X196676000Y-140511000D03*
X196676000Y-137971000D03*
X196676000Y-135431000D03*
X196676000Y-132891000D03*
X196676000Y-130351000D03*
X196676000Y-127811000D03*
X196676000Y-125271000D03*
D28*
X177546000Y-153924000D03*
D22*
X53086000Y-110744000D03*
D23*
X55626000Y-110744000D03*
X53086000Y-113284000D03*
X55626000Y-113284000D03*
X53086000Y-115824000D03*
X55626000Y-115824000D03*
X53086000Y-118364000D03*
X55626000Y-118364000D03*
X53086000Y-120904000D03*
X55626000Y-120904000D03*
X53086000Y-123444000D03*
X55626000Y-123444000D03*
X53086000Y-125984000D03*
X55626000Y-125984000D03*
X53086000Y-128524000D03*
X55626000Y-128524000D03*
X53086000Y-131064000D03*
X55626000Y-131064000D03*
X53086000Y-133604000D03*
X55626000Y-133604000D03*
X53086000Y-136144000D03*
X55626000Y-136144000D03*
X53086000Y-138684000D03*
X55626000Y-138684000D03*
D22*
X211074000Y-48387000D03*
D23*
X211074000Y-50927000D03*
D10*
X207137000Y-50927000D03*
D14*
X207137000Y-48387000D03*
D35*
X270256000Y-61214000D03*
D36*
X292096000Y-61214000D03*
D11*
X106426000Y-80391000D03*
D14*
X106426000Y-82931000D03*
X106426000Y-85471000D03*
X106426000Y-88011000D03*
X106426000Y-90551000D03*
X106426000Y-93091000D03*
X106426000Y-95631000D03*
X114046000Y-95631000D03*
X114046000Y-93091000D03*
X114046000Y-90551000D03*
X114046000Y-88011000D03*
X114046000Y-85471000D03*
X114046000Y-82931000D03*
X114046000Y-80391000D03*
D11*
X174070000Y-125349000D03*
D14*
X174070000Y-127889000D03*
X174070000Y-130429000D03*
X174070000Y-132969000D03*
X174070000Y-135509000D03*
X174070000Y-138049000D03*
X174070000Y-140589000D03*
X181690000Y-140589000D03*
X181690000Y-138049000D03*
X181690000Y-135509000D03*
X181690000Y-132969000D03*
X181690000Y-130429000D03*
X181690000Y-127889000D03*
X181690000Y-125349000D03*
D10*
X214630000Y-51355000D03*
X214630000Y-46355000D03*
D22*
X133656000Y-49784000D03*
D23*
X133656000Y-47244000D03*
X133656000Y-44704000D03*
D37*
X236214800Y-31623000D03*
D38*
X236214800Y-26543000D03*
X232254800Y-31623000D03*
X232254800Y-26543000D03*
X228294800Y-31623000D03*
X228294800Y-26543000D03*
X224334800Y-31623000D03*
X224334800Y-26543000D03*
X220374800Y-31623000D03*
X220374800Y-26543000D03*
X216414800Y-31623000D03*
X216414800Y-26543000D03*
X212454800Y-31623000D03*
X212454800Y-26543000D03*
X208494800Y-31623000D03*
X208494800Y-26543000D03*
X204534800Y-31623000D03*
X204534800Y-26543000D03*
X200574800Y-31623000D03*
X200574800Y-26543000D03*
X196614800Y-31623000D03*
X196614800Y-26543000D03*
X192654800Y-31623000D03*
X192654800Y-26543000D03*
X188694800Y-31623000D03*
X188694800Y-26543000D03*
X184734800Y-31623000D03*
X184734800Y-26543000D03*
X180774800Y-31623000D03*
X180774800Y-26543000D03*
X176814800Y-31623000D03*
X176814800Y-26543000D03*
X172854800Y-31623000D03*
X172854800Y-26543000D03*
X168894800Y-31623000D03*
X168894800Y-26543000D03*
X164934800Y-31623000D03*
X164934800Y-26543000D03*
X160974800Y-31623000D03*
X160974800Y-26543000D03*
X157014800Y-31623000D03*
X157014800Y-26543000D03*
X153054800Y-31623000D03*
X153054800Y-26543000D03*
D39*
X245759300Y-29019500D03*
X143478300Y-29083000D03*
M02*
