%FSLAX45Y45*%
G04 Gerber Fmt 4.5, Leading zero omitted, Abs format (unit mm)*
G04 Created by KiCad (PCBNEW (6.0.4-0)) date 2022-05-16 08:16:01*
%MOMM*%
%LPD*%
G01*
G04 APERTURE LIST*
%TA.AperFunction,Profile*%
%ADD10C,0.050000*%
%TD*%
%TA.AperFunction,Profile*%
%ADD11C,0.050003*%
%TD*%
%ADD12C,0.200000*%
%ADD13C,0.240000*%
G04 APERTURE END LIST*
D10*
X4737850Y-15903400D02*
X30137100Y-15903400D01*
X30137100Y-15903400D02*
X30137100Y-2247900D01*
X4737850Y-15903400D02*
X4738600Y-15123400D01*
D11*
X30137100Y-2247900D02*
X4737100Y-2247900D01*
D10*
X4737100Y-2247900D02*
X4738600Y-9998400D01*
D12*
D13*
X6453200Y-2965400D02*
X6693200Y-3205400D01*
X6693200Y-2965400D02*
X6453200Y-3205400D01*
X7953200Y-2965400D02*
X8193200Y-3205400D01*
X8193200Y-2965400D02*
X7953200Y-3205400D01*
X9637600Y-2965400D02*
X9877600Y-3205400D01*
X9877600Y-2965400D02*
X9637600Y-3205400D01*
X11137600Y-2965400D02*
X11377600Y-3205400D01*
X11377600Y-2965400D02*
X11137600Y-3205400D01*
D12*
X4085719Y-16216376D02*
X4085719Y-16016376D01*
X4133338Y-16016376D01*
X4161909Y-16025900D01*
X4180957Y-16044948D01*
X4190481Y-16063995D01*
X4200005Y-16102090D01*
X4200005Y-16130662D01*
X4190481Y-16168757D01*
X4180957Y-16187805D01*
X4161909Y-16206852D01*
X4133338Y-16216376D01*
X4085719Y-16216376D01*
X4285719Y-16216376D02*
X4285719Y-16083043D01*
X4285719Y-16121138D02*
X4295243Y-16102090D01*
X4304767Y-16092567D01*
X4323814Y-16083043D01*
X4342862Y-16083043D01*
X4409529Y-16216376D02*
X4409529Y-16083043D01*
X4409529Y-16016376D02*
X4400005Y-16025900D01*
X4409529Y-16035424D01*
X4419052Y-16025900D01*
X4409529Y-16016376D01*
X4409529Y-16035424D01*
X4533338Y-16216376D02*
X4514290Y-16206852D01*
X4504767Y-16187805D01*
X4504767Y-16016376D01*
X4638100Y-16216376D02*
X4619052Y-16206852D01*
X4609529Y-16187805D01*
X4609529Y-16016376D01*
X4866671Y-16216376D02*
X4866671Y-16016376D01*
X4933338Y-16159233D01*
X5000005Y-16016376D01*
X5000005Y-16216376D01*
X5180957Y-16216376D02*
X5180957Y-16111614D01*
X5171433Y-16092567D01*
X5152386Y-16083043D01*
X5114290Y-16083043D01*
X5095243Y-16092567D01*
X5180957Y-16206852D02*
X5161910Y-16216376D01*
X5114290Y-16216376D01*
X5095243Y-16206852D01*
X5085719Y-16187805D01*
X5085719Y-16168757D01*
X5095243Y-16149709D01*
X5114290Y-16140186D01*
X5161910Y-16140186D01*
X5180957Y-16130662D01*
X5276195Y-16083043D02*
X5276195Y-16283043D01*
X5276195Y-16092567D02*
X5295243Y-16083043D01*
X5333338Y-16083043D01*
X5352386Y-16092567D01*
X5361910Y-16102090D01*
X5371433Y-16121138D01*
X5371433Y-16178281D01*
X5361910Y-16197328D01*
X5352386Y-16206852D01*
X5333338Y-16216376D01*
X5295243Y-16216376D01*
X5276195Y-16206852D01*
X5457148Y-16197328D02*
X5466671Y-16206852D01*
X5457148Y-16216376D01*
X5447624Y-16206852D01*
X5457148Y-16197328D01*
X5457148Y-16216376D01*
X5457148Y-16092567D02*
X5466671Y-16102090D01*
X5457148Y-16111614D01*
X5447624Y-16102090D01*
X5457148Y-16092567D01*
X5457148Y-16111614D01*
X3628100Y-16445900D02*
X3828100Y-16645900D01*
X3828100Y-16445900D02*
X3628100Y-16645900D01*
X4076195Y-16455424D02*
X4085719Y-16445900D01*
X4104767Y-16436376D01*
X4152386Y-16436376D01*
X4171433Y-16445900D01*
X4180957Y-16455424D01*
X4190481Y-16474471D01*
X4190481Y-16493519D01*
X4180957Y-16522090D01*
X4066671Y-16636376D01*
X4190481Y-16636376D01*
X4276195Y-16617328D02*
X4285719Y-16626852D01*
X4276195Y-16636376D01*
X4266671Y-16626852D01*
X4276195Y-16617328D01*
X4276195Y-16636376D01*
X4457148Y-16503043D02*
X4457148Y-16636376D01*
X4409529Y-16426852D02*
X4361910Y-16569709D01*
X4485719Y-16569709D01*
X4600005Y-16436376D02*
X4619052Y-16436376D01*
X4638100Y-16445900D01*
X4647624Y-16455424D01*
X4657148Y-16474471D01*
X4666671Y-16512567D01*
X4666671Y-16560186D01*
X4657148Y-16598281D01*
X4647624Y-16617328D01*
X4638100Y-16626852D01*
X4619052Y-16636376D01*
X4600005Y-16636376D01*
X4580957Y-16626852D01*
X4571433Y-16617328D01*
X4561910Y-16598281D01*
X4552386Y-16560186D01*
X4552386Y-16512567D01*
X4561910Y-16474471D01*
X4571433Y-16455424D01*
X4580957Y-16445900D01*
X4600005Y-16436376D01*
X4790481Y-16436376D02*
X4809529Y-16436376D01*
X4828576Y-16445900D01*
X4838100Y-16455424D01*
X4847624Y-16474471D01*
X4857148Y-16512567D01*
X4857148Y-16560186D01*
X4847624Y-16598281D01*
X4838100Y-16617328D01*
X4828576Y-16626852D01*
X4809529Y-16636376D01*
X4790481Y-16636376D01*
X4771433Y-16626852D01*
X4761910Y-16617328D01*
X4752386Y-16598281D01*
X4742862Y-16560186D01*
X4742862Y-16512567D01*
X4752386Y-16474471D01*
X4761910Y-16455424D01*
X4771433Y-16445900D01*
X4790481Y-16436376D01*
X4942862Y-16636376D02*
X4942862Y-16503043D01*
X4942862Y-16522090D02*
X4952386Y-16512567D01*
X4971433Y-16503043D01*
X5000005Y-16503043D01*
X5019052Y-16512567D01*
X5028576Y-16531614D01*
X5028576Y-16636376D01*
X5028576Y-16531614D02*
X5038100Y-16512567D01*
X5057148Y-16503043D01*
X5085719Y-16503043D01*
X5104767Y-16512567D01*
X5114290Y-16531614D01*
X5114290Y-16636376D01*
X5209529Y-16636376D02*
X5209529Y-16503043D01*
X5209529Y-16522090D02*
X5219052Y-16512567D01*
X5238100Y-16503043D01*
X5266671Y-16503043D01*
X5285719Y-16512567D01*
X5295243Y-16531614D01*
X5295243Y-16636376D01*
X5295243Y-16531614D02*
X5304767Y-16512567D01*
X5323814Y-16503043D01*
X5352386Y-16503043D01*
X5371433Y-16512567D01*
X5380957Y-16531614D01*
X5380957Y-16636376D01*
X5771433Y-16426852D02*
X5600005Y-16683995D01*
X6028576Y-16436376D02*
X6047624Y-16436376D01*
X6066671Y-16445900D01*
X6076195Y-16455424D01*
X6085719Y-16474471D01*
X6095243Y-16512567D01*
X6095243Y-16560186D01*
X6085719Y-16598281D01*
X6076195Y-16617328D01*
X6066671Y-16626852D01*
X6047624Y-16636376D01*
X6028576Y-16636376D01*
X6009528Y-16626852D01*
X6000005Y-16617328D01*
X5990481Y-16598281D01*
X5980957Y-16560186D01*
X5980957Y-16512567D01*
X5990481Y-16474471D01*
X6000005Y-16455424D01*
X6009528Y-16445900D01*
X6028576Y-16436376D01*
X6180957Y-16617328D02*
X6190481Y-16626852D01*
X6180957Y-16636376D01*
X6171433Y-16626852D01*
X6180957Y-16617328D01*
X6180957Y-16636376D01*
X6314290Y-16436376D02*
X6333338Y-16436376D01*
X6352386Y-16445900D01*
X6361909Y-16455424D01*
X6371433Y-16474471D01*
X6380957Y-16512567D01*
X6380957Y-16560186D01*
X6371433Y-16598281D01*
X6361909Y-16617328D01*
X6352386Y-16626852D01*
X6333338Y-16636376D01*
X6314290Y-16636376D01*
X6295243Y-16626852D01*
X6285719Y-16617328D01*
X6276195Y-16598281D01*
X6266671Y-16560186D01*
X6266671Y-16512567D01*
X6276195Y-16474471D01*
X6285719Y-16455424D01*
X6295243Y-16445900D01*
X6314290Y-16436376D01*
X6476195Y-16636376D02*
X6514290Y-16636376D01*
X6533338Y-16626852D01*
X6542862Y-16617328D01*
X6561909Y-16588757D01*
X6571433Y-16550662D01*
X6571433Y-16474471D01*
X6561909Y-16455424D01*
X6552386Y-16445900D01*
X6533338Y-16436376D01*
X6495243Y-16436376D01*
X6476195Y-16445900D01*
X6466671Y-16455424D01*
X6457148Y-16474471D01*
X6457148Y-16522090D01*
X6466671Y-16541138D01*
X6476195Y-16550662D01*
X6495243Y-16560186D01*
X6533338Y-16560186D01*
X6552386Y-16550662D01*
X6561909Y-16541138D01*
X6571433Y-16522090D01*
X6742862Y-16503043D02*
X6742862Y-16636376D01*
X6695243Y-16426852D02*
X6647624Y-16569709D01*
X6771433Y-16569709D01*
X6942862Y-16436376D02*
X6847624Y-16436376D01*
X6838100Y-16531614D01*
X6847624Y-16522090D01*
X6866671Y-16512567D01*
X6914290Y-16512567D01*
X6933338Y-16522090D01*
X6942862Y-16531614D01*
X6952386Y-16550662D01*
X6952386Y-16598281D01*
X6942862Y-16617328D01*
X6933338Y-16626852D01*
X6914290Y-16636376D01*
X6866671Y-16636376D01*
X6847624Y-16626852D01*
X6838100Y-16617328D01*
X7028576Y-16436376D02*
X7028576Y-16474471D01*
X7104767Y-16436376D02*
X7104767Y-16474471D01*
X7400005Y-16712567D02*
X7390481Y-16703043D01*
X7371433Y-16674471D01*
X7361909Y-16655424D01*
X7352386Y-16626852D01*
X7342862Y-16579233D01*
X7342862Y-16541138D01*
X7352386Y-16493519D01*
X7361909Y-16464948D01*
X7371433Y-16445900D01*
X7390481Y-16417328D01*
X7400005Y-16407805D01*
X7561909Y-16503043D02*
X7561909Y-16636376D01*
X7514290Y-16426852D02*
X7466671Y-16569709D01*
X7590481Y-16569709D01*
X7819052Y-16636376D02*
X7819052Y-16436376D01*
X7904767Y-16636376D02*
X7904767Y-16531614D01*
X7895243Y-16512567D01*
X7876195Y-16503043D01*
X7847624Y-16503043D01*
X7828576Y-16512567D01*
X7819052Y-16522090D01*
X8028576Y-16636376D02*
X8009528Y-16626852D01*
X8000005Y-16617328D01*
X7990481Y-16598281D01*
X7990481Y-16541138D01*
X8000005Y-16522090D01*
X8009528Y-16512567D01*
X8028576Y-16503043D01*
X8057148Y-16503043D01*
X8076195Y-16512567D01*
X8085719Y-16522090D01*
X8095243Y-16541138D01*
X8095243Y-16598281D01*
X8085719Y-16617328D01*
X8076195Y-16626852D01*
X8057148Y-16636376D01*
X8028576Y-16636376D01*
X8209528Y-16636376D02*
X8190481Y-16626852D01*
X8180957Y-16607805D01*
X8180957Y-16436376D01*
X8361909Y-16626852D02*
X8342862Y-16636376D01*
X8304767Y-16636376D01*
X8285719Y-16626852D01*
X8276195Y-16607805D01*
X8276195Y-16531614D01*
X8285719Y-16512567D01*
X8304767Y-16503043D01*
X8342862Y-16503043D01*
X8361909Y-16512567D01*
X8371433Y-16531614D01*
X8371433Y-16550662D01*
X8276195Y-16569709D01*
X8447624Y-16626852D02*
X8466671Y-16636376D01*
X8504767Y-16636376D01*
X8523814Y-16626852D01*
X8533338Y-16607805D01*
X8533338Y-16598281D01*
X8523814Y-16579233D01*
X8504767Y-16569709D01*
X8476195Y-16569709D01*
X8457148Y-16560186D01*
X8447624Y-16541138D01*
X8447624Y-16531614D01*
X8457148Y-16512567D01*
X8476195Y-16503043D01*
X8504767Y-16503043D01*
X8523814Y-16512567D01*
X8600005Y-16712567D02*
X8609529Y-16703043D01*
X8628576Y-16674471D01*
X8638100Y-16655424D01*
X8647624Y-16626852D01*
X8657148Y-16579233D01*
X8657148Y-16541138D01*
X8647624Y-16493519D01*
X8638100Y-16464948D01*
X8628576Y-16445900D01*
X8609529Y-16417328D01*
X8600005Y-16407805D01*
X8961910Y-16712567D02*
X8952386Y-16703043D01*
X8933338Y-16674471D01*
X8923814Y-16655424D01*
X8914290Y-16626852D01*
X8904767Y-16579233D01*
X8904767Y-16541138D01*
X8914290Y-16493519D01*
X8923814Y-16464948D01*
X8933338Y-16445900D01*
X8952386Y-16417328D01*
X8961910Y-16407805D01*
X9038100Y-16503043D02*
X9038100Y-16636376D01*
X9038100Y-16522090D02*
X9047624Y-16512567D01*
X9066671Y-16503043D01*
X9095243Y-16503043D01*
X9114290Y-16512567D01*
X9123814Y-16531614D01*
X9123814Y-16636376D01*
X9247624Y-16636376D02*
X9228576Y-16626852D01*
X9219052Y-16617328D01*
X9209529Y-16598281D01*
X9209529Y-16541138D01*
X9219052Y-16522090D01*
X9228576Y-16512567D01*
X9247624Y-16503043D01*
X9276195Y-16503043D01*
X9295243Y-16512567D01*
X9304767Y-16522090D01*
X9314290Y-16541138D01*
X9314290Y-16598281D01*
X9304767Y-16617328D01*
X9295243Y-16626852D01*
X9276195Y-16636376D01*
X9247624Y-16636376D01*
X9371433Y-16503043D02*
X9447624Y-16503043D01*
X9400005Y-16436376D02*
X9400005Y-16607805D01*
X9409529Y-16626852D01*
X9428576Y-16636376D01*
X9447624Y-16636376D01*
X9666671Y-16503043D02*
X9666671Y-16703043D01*
X9666671Y-16512567D02*
X9685719Y-16503043D01*
X9723814Y-16503043D01*
X9742862Y-16512567D01*
X9752386Y-16522090D01*
X9761910Y-16541138D01*
X9761910Y-16598281D01*
X9752386Y-16617328D01*
X9742862Y-16626852D01*
X9723814Y-16636376D01*
X9685719Y-16636376D01*
X9666671Y-16626852D01*
X9876195Y-16636376D02*
X9857148Y-16626852D01*
X9847624Y-16607805D01*
X9847624Y-16436376D01*
X10038100Y-16636376D02*
X10038100Y-16531614D01*
X10028576Y-16512567D01*
X10009529Y-16503043D01*
X9971433Y-16503043D01*
X9952386Y-16512567D01*
X10038100Y-16626852D02*
X10019052Y-16636376D01*
X9971433Y-16636376D01*
X9952386Y-16626852D01*
X9942862Y-16607805D01*
X9942862Y-16588757D01*
X9952386Y-16569709D01*
X9971433Y-16560186D01*
X10019052Y-16560186D01*
X10038100Y-16550662D01*
X10104767Y-16503043D02*
X10180957Y-16503043D01*
X10133338Y-16436376D02*
X10133338Y-16607805D01*
X10142862Y-16626852D01*
X10161910Y-16636376D01*
X10180957Y-16636376D01*
X10323814Y-16626852D02*
X10304767Y-16636376D01*
X10266671Y-16636376D01*
X10247624Y-16626852D01*
X10238100Y-16607805D01*
X10238100Y-16531614D01*
X10247624Y-16512567D01*
X10266671Y-16503043D01*
X10304767Y-16503043D01*
X10323814Y-16512567D01*
X10333338Y-16531614D01*
X10333338Y-16550662D01*
X10238100Y-16569709D01*
X10504767Y-16636376D02*
X10504767Y-16436376D01*
X10504767Y-16626852D02*
X10485719Y-16636376D01*
X10447624Y-16636376D01*
X10428576Y-16626852D01*
X10419052Y-16617328D01*
X10409529Y-16598281D01*
X10409529Y-16541138D01*
X10419052Y-16522090D01*
X10428576Y-16512567D01*
X10447624Y-16503043D01*
X10485719Y-16503043D01*
X10504767Y-16512567D01*
X10580957Y-16712567D02*
X10590481Y-16703043D01*
X10609529Y-16674471D01*
X10619052Y-16655424D01*
X10628576Y-16626852D01*
X10638100Y-16579233D01*
X10638100Y-16541138D01*
X10628576Y-16493519D01*
X10619052Y-16464948D01*
X10609529Y-16445900D01*
X10590481Y-16417328D01*
X10580957Y-16407805D01*
M02*
